<svg width="80" height="16" viewBox="0 0 80 16" fill="none" xmlns="http://www.w3.org/2000/svg">
<path d="M59.9456 9.54675C59.7729 9.71408 59.6936 9.95608 59.7329 10.1934L60.3256 13.4734C60.3756 13.7514 60.2583 14.0327 60.0256 14.1934C59.7976 14.3601 59.4943 14.3801 59.2456 14.2467L56.2929 12.7067C56.1903 12.6521 56.0763 12.6227 55.9596 12.6194H55.7789C55.7163 12.6287 55.6549 12.6487 55.5989 12.6794L52.6456 14.2267C52.4996 14.3001 52.3343 14.3261 52.1723 14.3001C51.7776 14.2254 51.5143 13.8494 51.5789 13.4527L52.1723 10.1727C52.2116 9.93341 52.1323 9.69008 51.9596 9.52008L49.5523 7.18675C49.3509 6.99141 49.2809 6.69808 49.3729 6.43341C49.4623 6.16941 49.6903 5.97675 49.9656 5.93341L53.2789 5.45275C53.5309 5.42675 53.7523 5.27341 53.8656 5.04675L55.3256 2.05341C55.3603 1.98675 55.4049 1.92541 55.4589 1.87341L55.5189 1.82675C55.5503 1.79208 55.5863 1.76341 55.6263 1.74008L55.6989 1.71341L55.8123 1.66675H56.0929C56.3436 1.69275 56.5643 1.84275 56.6796 2.06675L58.1589 5.04675C58.2656 5.26475 58.4729 5.41608 58.7123 5.45275L62.0256 5.93341C62.3056 5.97341 62.5396 6.16675 62.6323 6.43341C62.7196 6.70075 62.6443 6.99408 62.4389 7.18675L59.9456 9.54675Z" fill="#F08597"/>
<path d="M43.9456 9.54675C43.7729 9.71408 43.6936 9.95608 43.7329 10.1934L44.3256 13.4734C44.3756 13.7514 44.2583 14.0327 44.0256 14.1934C43.7976 14.3601 43.4943 14.3801 43.2456 14.2467L40.2929 12.7067C40.1903 12.6521 40.0763 12.6227 39.9596 12.6194H39.7789C39.7163 12.6287 39.6549 12.6487 39.5989 12.6794L36.6456 14.2267C36.4996 14.3001 36.3343 14.3261 36.1723 14.3001C35.7776 14.2254 35.5143 13.8494 35.5789 13.4527L36.1723 10.1727C36.2116 9.93341 36.1323 9.69008 35.9596 9.52008L33.5523 7.18675C33.3509 6.99141 33.2809 6.69808 33.3729 6.43341C33.4623 6.16941 33.6903 5.97675 33.9656 5.93341L37.2789 5.45275C37.5309 5.42675 37.7523 5.27341 37.8656 5.04675L39.3256 2.05341C39.3603 1.98675 39.4049 1.92541 39.4589 1.87341L39.5189 1.82675C39.5503 1.79208 39.5863 1.76341 39.6263 1.74008L39.6989 1.71341L39.8123 1.66675H40.0929C40.3436 1.69275 40.5643 1.84275 40.6796 2.06675L42.1589 5.04675C42.2656 5.26475 42.4729 5.41608 42.7123 5.45275L46.0256 5.93341C46.3056 5.97341 46.5396 6.16675 46.6323 6.43341C46.7196 6.70075 46.6443 6.99408 46.4389 7.18675L43.9456 9.54675Z" fill="#F08597"/>
<path d="M27.9456 9.54675C27.7729 9.71408 27.6936 9.95608 27.7329 10.1934L28.3256 13.4734C28.3756 13.7514 28.2583 14.0327 28.0256 14.1934C27.7976 14.3601 27.4943 14.3801 27.2456 14.2467L24.2929 12.7067C24.1903 12.6521 24.0763 12.6227 23.9596 12.6194H23.7789C23.7163 12.6287 23.6549 12.6487 23.5989 12.6794L20.6456 14.2267C20.4996 14.3001 20.3343 14.3261 20.1723 14.3001C19.7776 14.2254 19.5143 13.8494 19.5789 13.4527L20.1723 10.1727C20.2116 9.93341 20.1323 9.69008 19.9596 9.52008L17.5523 7.18675C17.3509 6.99141 17.2809 6.69808 17.3729 6.43341C17.4623 6.16941 17.6903 5.97675 17.9656 5.93341L21.2789 5.45275C21.5309 5.42675 21.7523 5.27341 21.8656 5.04675L23.3256 2.05341C23.3603 1.98675 23.4049 1.92541 23.4589 1.87341L23.5189 1.82675C23.5503 1.79208 23.5863 1.76341 23.6263 1.74008L23.6989 1.71341L23.8123 1.66675H24.0929C24.3436 1.69275 24.5643 1.84275 24.6796 2.06675L26.1589 5.04675C26.2656 5.26475 26.4729 5.41608 26.7123 5.45275L30.0256 5.93341C30.3056 5.97341 30.5396 6.16675 30.6323 6.43341C30.7196 6.70075 30.6443 6.99408 30.4389 7.18675L27.9456 9.54675Z" fill="#F08597"/>
<path d="M11.9456 9.54675C11.7729 9.71408 11.6936 9.95608 11.7329 10.1934L12.3256 13.4734C12.3756 13.7514 12.2583 14.0327 12.0256 14.1934C11.7976 14.3601 11.4943 14.3801 11.2456 14.2467L8.29292 12.7067C8.19026 12.6521 8.07626 12.6227 7.95959 12.6194H7.77892C7.71626 12.6287 7.65493 12.6487 7.59893 12.6794L4.64559 14.2267C4.49959 14.3001 4.33426 14.3261 4.17226 14.3001C3.77759 14.2254 3.51426 13.8494 3.57893 13.4527L4.17226 10.1727C4.21159 9.93341 4.13226 9.69008 3.95959 9.52008L1.55226 7.18675C1.35093 6.99141 1.28093 6.69808 1.37293 6.43341C1.46226 6.16941 1.69026 5.97675 1.96559 5.93341L5.27892 5.45275C5.53093 5.42675 5.75226 5.27341 5.86559 5.04675L7.32559 2.05341C7.36026 1.98675 7.40493 1.92541 7.45893 1.87341L7.51892 1.82675C7.55026 1.79208 7.58626 1.76341 7.62626 1.74008L7.69893 1.71341L7.81226 1.66675H8.09293C8.34359 1.69275 8.56426 1.84275 8.67959 2.06675L10.1589 5.04675C10.2656 5.26475 10.4729 5.41608 10.7123 5.45275L14.0256 5.93341C14.3056 5.97341 14.5396 6.16675 14.6323 6.43341C14.7196 6.70075 14.6443 6.99408 14.4389 7.18675L11.9456 9.54675Z" fill="#F08597"/>
<path fill-rule="evenodd" clip-rule="evenodd" d="M72 2C70.6426 2 70.5142 4.36435 69.7061 5.19972C68.8979 6.03508 66.3855 5.07995 66.0364 6.56268C65.688 8.04618 67.9482 8.54953 68.2269 9.82229C68.507 11.095 67.1261 12.8833 68.3061 13.7732C69.4861 14.6624 70.7562 12.6498 72 12.6498C73.2438 12.6498 74.5139 14.6624 75.6939 13.7732C76.8738 12.8833 75.4937 11.095 75.7731 9.82229C76.0525 8.54953 78.3119 8.04618 77.9636 6.56268C77.6153 5.07995 75.1021 6.03508 74.2946 5.19972C73.4865 4.36435 73.3574 2 72 2Z" stroke="#888888" stroke-linecap="round" stroke-linejoin="round"/>
</svg>
