<svg width="16" height="16" viewBox="0 0 16 16" fill="none" xmlns="http://www.w3.org/2000/svg">
<path fill-rule="evenodd" clip-rule="evenodd" d="M2 8C2 4.688 4.688 2 8 2C11.312 2 14 4.688 14 8C14 11.312 11.312 14 8 14C4.688 14 2 11.312 2 8ZM4.1776 8.56964L6.35749 10.8169C6.5943 11.061 6.98292 11.061 7.21366 10.8169L11.8224 6.06573C12.0592 5.8216 12.0592 5.42723 11.8224 5.1831C11.5856 4.93897 11.203 4.93897 10.9662 5.1831L6.78861 9.48983L5.03377 7.68701C4.79696 7.44288 4.41441 7.44288 4.1776 7.68701C4.0639 7.80396 4 7.96274 4 8.12833C4 8.29391 4.0639 8.45269 4.1776 8.56964Z" fill="#00982B"/>
</svg>
