<svg width="16" height="16" viewBox="0 0 16 16" fill="none" xmlns="http://www.w3.org/2000/svg">
<path fill-rule="evenodd" clip-rule="evenodd" d="M1.33301 8.00004C1.33301 4.31814 4.31778 1.33337 7.99967 1.33337C11.6816 1.33337 14.6663 4.31814 14.6663 8.00004C14.6663 11.6819 11.6816 14.6667 7.99967 14.6667C4.31778 14.6667 1.33301 11.6819 1.33301 8.00004ZM8.58791 4.07847C8.58791 3.7536 8.32455 3.49024 7.99967 3.49024C7.6748 3.49024 7.41144 3.7536 7.41144 4.07847V8.00004C7.41144 8.20286 7.51592 8.39137 7.68791 8.49886L10.0409 9.96945C10.3163 10.1416 10.6793 10.0579 10.8514 9.78239C11.0236 9.5069 10.9399 9.14399 10.6644 8.97181L8.58791 7.67401V4.07847Z" fill="black"/>
</svg>
