<svg width="150" height="20" viewBox="0 0 150 20" fill="none" xmlns="http://www.w3.org/2000/svg">
<path d="M35.8128 12.7503H30.9308L29.9995 15.0003H27.5059L32.1926 4.50031H34.5961L39.2979 15.0003H36.7442L35.8128 12.7503ZM35.0467 10.9053L33.3793 6.88531L31.7119 10.9053H35.0467Z" fill="#323232"/>
<path d="M47.0885 15.0003L45.0605 12.0753H44.9404H42.8223V15.0003H40.3888V4.50031H44.9404C45.8717 4.50031 46.6779 4.65531 47.3589 4.96531C48.0499 5.27531 48.5806 5.71531 48.9512 6.28531C49.3217 6.85531 49.507 7.53031 49.507 8.31031C49.507 9.09031 49.3167 9.76531 48.9361 10.3353C48.5656 10.8953 48.0348 11.3253 47.3438 11.6253L49.7022 15.0003H47.0885ZM47.0434 8.31031C47.0434 7.72031 46.8531 7.27031 46.4726 6.96031C46.092 6.64031 45.5362 6.48031 44.8052 6.48031H42.8223V10.1403H44.8052C45.5362 10.1403 46.092 9.98031 46.4726 9.66031C46.8531 9.34031 47.0434 8.89031 47.0434 8.31031Z" fill="#323232"/>
<path d="M53.4664 6.48031H50.1016V4.50031H59.2648V6.48031H55.9V15.0003H53.4664V6.48031Z" fill="#323232"/>
<path d="M68.7159 13.0503V15.0003H60.5742V4.50031H68.5206V6.45031H62.9926V8.73031H67.8747V10.6203H62.9926V13.0503H68.7159Z" fill="#323232"/>
<path d="M80.221 15.0003L80.2059 8.70031L77.1115 13.8903H76.0149L72.9355 8.83531V15.0003H70.6522V4.50031H72.6651L76.6007 11.0253L80.4763 4.50031H82.4742L82.5042 15.0003H80.221Z" fill="#323232"/>
<path d="M94.3455 15.1803C93.254 15.1803 92.2675 14.9453 91.3863 14.4753C90.515 14.0053 89.829 13.3603 89.3283 12.5403C88.8376 11.7103 88.5922 10.7803 88.5922 9.75031C88.5922 8.72031 88.8376 7.79531 89.3283 6.97531C89.829 6.14531 90.515 5.49531 91.3863 5.02531C92.2675 4.55531 93.254 4.32031 94.3455 4.32031C95.4371 4.32031 96.4185 4.55531 97.2898 5.02531C98.161 5.49531 98.847 6.14531 99.3478 6.97531C99.8485 7.79531 100.099 8.72031 100.099 9.75031C100.099 10.7803 99.8485 11.7103 99.3478 12.5403C98.847 13.3603 98.161 14.0053 97.2898 14.4753C96.4185 14.9453 95.4371 15.1803 94.3455 15.1803ZM94.3455 13.1103C94.9664 13.1103 95.5272 12.9703 96.028 12.6903C96.5287 12.4003 96.9193 12.0003 97.1997 11.4903C97.4901 10.9803 97.6353 10.4003 97.6353 9.75031C97.6353 9.10031 97.4901 8.52031 97.1997 8.01031C96.9193 7.50031 96.5287 7.10531 96.028 6.82531C95.5272 6.53531 94.9664 6.39031 94.3455 6.39031C93.7246 6.39031 93.1638 6.53531 92.6631 6.82531C92.1624 7.10531 91.7668 7.50031 91.4764 8.01031C91.196 8.52031 91.0558 9.10031 91.0558 9.75031C91.0558 10.4003 91.196 10.9803 91.4764 11.4903C91.7668 12.0003 92.1624 12.4003 92.6631 12.6903C93.1638 12.9703 93.7246 13.1103 94.3455 13.1103Z" fill="#323232"/>
<path d="M106.479 4.50031C107.411 4.50031 108.217 4.65531 108.898 4.96531C109.589 5.27531 110.12 5.71531 110.49 6.28531C110.861 6.85531 111.046 7.53031 111.046 8.31031C111.046 9.08031 110.861 9.75531 110.49 10.3353C110.12 10.9053 109.589 11.3453 108.898 11.6553C108.217 11.9553 107.411 12.1053 106.479 12.1053H104.361V15.0003H101.928V4.50031H106.479ZM106.344 10.1253C107.075 10.1253 107.631 9.97031 108.011 9.66031C108.392 9.34031 108.582 8.89031 108.582 8.31031C108.582 7.72031 108.392 7.27031 108.011 6.96031C107.631 6.64031 107.075 6.48031 106.344 6.48031H104.361V10.1253H106.344Z" fill="#323232"/>
<path d="M119.18 12.7503H114.298L113.367 15.0003H110.873L115.56 4.50031H117.963L122.665 15.0003H120.111L119.18 12.7503ZM118.414 10.9053L116.747 6.88531L115.079 10.9053H118.414Z" fill="#323232"/>
<path d="M130.456 15.0003L128.428 12.0753H128.308H126.19V15.0003H123.756V4.50031H128.308C129.239 4.50031 130.045 4.65531 130.726 4.96531C131.417 5.27531 131.948 5.71531 132.318 6.28531C132.689 6.85531 132.874 7.53031 132.874 8.31031C132.874 9.09031 132.684 9.76531 132.303 10.3353C131.933 10.8953 131.402 11.3253 130.711 11.6253L133.069 15.0003H130.456ZM130.411 8.31031C130.411 7.72031 130.22 7.27031 129.84 6.96031C129.459 6.64031 128.903 6.48031 128.172 6.48031H126.19V10.1403H128.172C128.903 10.1403 129.459 9.98031 129.84 9.66031C130.22 9.34031 130.411 8.89031 130.411 8.31031Z" fill="#323232"/>
<path d="M134.802 4.50031H137.236V15.0003H134.802V4.50031Z" fill="#323232"/>
<path d="M149.375 4.50031V15.0003H147.377L142.135 8.62531V15.0003H139.731V4.50031H141.744L146.972 10.8753V4.50031H149.375Z" fill="#323232"/>
<path fill-rule="evenodd" clip-rule="evenodd" d="M10.0144 18.2759C14.5917 18.2759 18.3022 14.5706 18.3022 10C18.3022 5.42937 14.5917 1.72414 10.0144 1.72414C5.43721 1.72414 1.72663 5.42937 1.72663 10C1.72663 14.5706 5.43721 18.2759 10.0144 18.2759ZM10.0144 20C15.5453 20 20.0289 15.5228 20.0289 10C20.0289 4.47715 15.5453 0 10.0144 0C4.48362 0 0 4.47715 0 10C0 15.5228 4.48362 20 10.0144 20Z" fill="#323232"/>
<path fill-rule="evenodd" clip-rule="evenodd" d="M10.0143 1.03467L5.22937 10.6036H14.7993L10.0143 1.03467ZM10.0143 4.8941L8.02144 8.8795H12.0072L10.0143 4.8941Z" fill="#323232"/>
<path fill-rule="evenodd" clip-rule="evenodd" d="M4.30084 13.2759H15.7277L17.0023 15.8214L15.458 16.5924L14.6606 15H5.36795L4.57059 16.5924L3.02624 15.8214L4.30084 13.2759Z" fill="#323232"/>
</svg>
