<svg width="631" height="502" viewBox="0 0 631 502" fill="none" xmlns="http://www.w3.org/2000/svg">
<path d="M303.258 0.608245C344.087 1.18323 385.492 0.608228 426.322 3.48317C444.724 4.63315 463.126 11.533 479.802 19.0079C502.23 29.3577 519.482 42.5826 526.958 67.3071C528.683 72.4821 533.859 77.657 539.034 79.9569C564.912 93.1817 585.614 111.581 605.167 132.281C628.169 156.431 632.77 185.18 630.469 216.23C623.569 316.853 574.113 388.727 483.253 431.276C478.077 433.576 473.477 437.026 468.876 440.476C425.172 481.3 373.416 502 313.034 502C255.528 501.425 204.922 480.725 161.792 441.626C156.041 436.451 149.141 431.276 141.665 428.401C45.0541 383.552 -13.0275 277.754 2.49919 173.105C3.07426 167.356 5.94961 162.181 8.82493 157.006C28.9522 123.656 56.5553 98.3567 90.4841 79.957C96.8098 76.5071 103.136 70.1821 104.861 63.8573C111.761 41.4326 126.713 28.2078 147.991 19.008C177.894 6.35816 218.148 -0.541758 258.978 0.033226L303.258 0.608245ZM238.276 71.3321C215.848 88.5818 192.27 128.831 187.095 159.306C180.194 200.13 193.421 231.18 228.5 252.454C280.255 283.504 333.736 283.504 388.367 260.504C403.319 254.179 406.769 242.679 403.894 229.455C402.169 220.255 396.993 209.905 390.668 203.005C380.316 192.08 367.665 182.88 354.439 174.83C330.861 159.881 306.133 146.656 283.131 131.706C261.853 116.756 243.451 98.9317 238.276 71.3321ZM384.917 368.602C245.751 387.002 127.288 350.203 32.4026 242.679C50.2296 326.053 96.8097 384.702 177.319 411.151C254.377 437.026 323.96 420.351 384.917 368.602ZM598.266 242.104C552.261 293.853 526.958 315.128 475.202 337.553C453.35 347.328 434.948 358.827 419.421 377.227C407.344 391.602 390.093 401.952 375.141 413.451C372.266 415.751 369.965 418.051 365.94 420.926C478.652 433.001 586.765 349.627 598.266 242.104ZM382.617 60.9822C357.889 97.7816 321.66 97.7816 282.556 92.0317C298.082 104.682 314.184 115.606 330.286 125.956C369.965 150.681 415.97 167.93 436.098 216.23C459.1 170.805 432.072 95.4817 382.617 60.9822ZM275.655 303.053C322.235 334.103 369.39 341.003 417.121 317.428C479.227 286.954 505.681 231.754 512.581 165.63C466.576 266.254 390.668 314.553 275.655 303.053ZM92.2092 116.756C90.4841 115.606 88.7589 114.456 87.0337 113.881C70.9319 131.706 54.255 149.531 38.1533 167.931C35.853 170.806 35.2778 177.13 36.428 181.155C53.6799 232.904 91.0591 267.404 137.064 294.429C97.9598 240.379 83.5833 181.155 92.2092 116.756ZM539.609 114.456C547.66 180.58 534.434 238.654 497.63 290.978C543.06 264.529 579.289 230.029 595.966 179.43C597.116 176.555 597.116 172.53 595.39 170.23C581.589 147.806 564.912 129.406 539.609 114.456ZM239.426 29.3578C205.497 29.9328 176.744 36.8327 150.866 52.3574C147.415 54.0824 143.39 58.1074 142.815 61.5573C135.339 98.3567 138.789 134.006 156.041 169.081C164.092 111.581 193.996 67.8822 239.426 29.3578ZM475.202 169.08C494.179 142.056 496.479 84.5569 489.004 59.8323C488.428 58.1073 487.278 56.3823 486.128 55.2323C471.752 43.7325 414.82 24.1828 395.268 32.2327C437.248 67.8821 467.151 111.581 475.202 169.08ZM120.962 167.356C124.988 257.629 194.571 327.203 257.253 328.353C241.726 310.528 227.349 288.679 208.372 274.304C168.693 246.129 138.789 212.205 120.962 167.356ZM230.8 454.276C275.655 483.6 368.24 479.575 397.568 454.276C373.991 450.826 348.113 446.801 321.66 442.776C318.21 442.201 314.184 442.201 310.159 442.776C283.131 446.226 256.103 450.251 230.8 454.276ZM314.759 67.3072C326.26 63.2822 337.187 60.9822 347.538 56.3823C356.164 52.3574 356.739 44.8825 348.688 38.5576C333.736 26.4828 296.932 26.4829 282.556 38.5577C275.08 44.8826 274.505 51.7824 283.131 55.8074C292.332 60.9823 303.833 63.2822 314.759 67.3072Z" fill="url(#paint0_linear_3546_9236)"/>
<defs>
<linearGradient id="paint0_linear_3546_9236" x1="631" y1="251" x2="5.50009e-05" y2="251" gradientUnits="userSpaceOnUse">
<stop stop-color="#FFF1F4"/>
<stop offset="1" stop-color="#F9F9F9"/>
</linearGradient>
</defs>
</svg>
