<svg width="222" height="100" viewBox="0 0 222 100" fill="none" xmlns="http://www.w3.org/2000/svg">
<path d="M2.53204 65.0498H6.39237C7.84517 65.0498 9.04893 65.2159 9.96212 65.5479C10.9168 65.88 11.6225 66.2951 12.2036 66.8347C12.7432 67.3743 13.1168 67.9555 13.3243 68.5781C13.5319 69.2422 13.6564 69.8649 13.6564 70.529C13.6564 71.1931 13.5319 71.8158 13.3243 72.4799C13.1168 73.1441 12.7432 73.7252 12.2036 74.2648C11.664 74.8044 10.9168 75.2195 10.0036 75.5516C9.04893 75.8836 7.84517 76.0497 6.39237 76.0497H0V56.582H11.8715V58.1179H2.53204V65.0498ZM6.35085 74.8459C6.93198 74.8459 7.47159 74.7629 8.01121 74.5554C8.55082 74.3893 9.04893 74.0988 9.46402 73.7667C9.87911 73.4346 10.2112 72.978 10.4602 72.4799C10.7093 71.9403 10.8338 71.3592 10.8338 70.695C10.8338 70.0724 10.7093 69.4913 10.5017 68.9101C10.2942 68.3705 9.96212 67.9139 9.58854 67.4989C9.21497 67.0838 8.71686 66.7932 8.13574 66.5857C7.55461 66.3781 6.89047 66.2536 6.18482 66.2536H2.53204V74.8044H6.35085V74.8459Z" fill="black"/>
<path d="M19.9241 62.1025V68.4119H23.2448C23.7014 68.4119 24.241 68.4534 24.9052 68.4949C25.5693 68.5364 26.1919 68.7024 26.7731 68.9515C27.3542 69.2006 27.8523 69.5741 28.3089 70.1137C28.724 70.6534 28.9315 71.359 28.9315 72.3137C28.9315 72.8948 28.807 73.3929 28.5995 73.8495C28.3504 74.3061 28.0598 74.6797 27.6863 75.0118C27.3127 75.3439 26.8976 75.5929 26.3995 75.7589C25.9014 75.925 25.4033 76.008 24.9052 76.008H17.5996V62.1025H19.9241ZM23.6599 74.9288C24.4071 74.9288 25.0297 74.7212 25.5693 74.3061C26.1089 73.891 26.3995 73.2269 26.3995 72.3552C26.3995 71.6496 26.275 71.0685 25.9844 70.6534C25.6938 70.2383 25.4033 69.9477 25.0297 69.7817C24.6561 69.6156 24.324 69.4911 23.9505 69.4496C23.5769 69.4081 23.3278 69.4081 23.1618 69.4081H19.9656V74.9288H23.6599Z" fill="black"/>
<path d="M34.909 69.3666V76.0496H32.543V62.1441H34.909V68.4534H37.2335C37.2335 67.4157 37.441 66.5025 37.8561 65.6723C38.2297 64.8422 38.7693 64.1365 39.3919 63.5969C40.0146 63.0158 40.8032 62.6007 41.6334 62.2686C42.5051 61.978 43.4183 61.812 44.4145 61.812C45.5352 61.812 46.5314 62.0196 47.4031 62.3931C48.2748 62.7667 49.022 63.3063 49.6446 63.9705C50.2672 64.6346 50.7653 65.3818 51.0974 66.2535C51.4295 67.1251 51.5955 68.0383 51.5955 68.9515C51.5955 69.9893 51.4295 70.9855 51.0974 71.8987C50.7653 72.8119 50.3087 73.6005 49.6861 74.2647C49.0635 74.9288 48.3163 75.4684 47.4446 75.842C46.573 76.2156 45.5352 76.4231 44.4145 76.4231C43.2938 76.4231 42.2975 76.2156 41.4259 75.8005C40.5542 75.3854 39.807 74.8458 39.2259 74.1817C38.6033 73.5175 38.1467 72.7704 37.8146 71.9402C37.4825 71.11 37.275 70.2798 37.2335 69.4496H34.909V69.3666ZM39.8485 68.9515C39.8485 70.2383 39.973 71.3175 40.2636 72.1477C40.5542 72.9779 40.9278 73.6005 41.3428 74.0986C41.7994 74.5552 42.2975 74.8873 42.8372 75.0533C43.3768 75.2194 43.8749 75.3024 44.4145 75.3024C45.2862 75.3024 46.0333 75.0948 46.6145 74.7213C47.1956 74.3477 47.6522 73.8496 48.0258 73.2269C48.3578 72.6043 48.6069 71.9402 48.7314 71.193C48.8559 70.4459 48.939 69.6987 48.939 68.9515C48.939 67.6648 48.8144 66.627 48.5239 65.8384C48.2333 65.0497 47.9012 64.4271 47.4446 64.012C46.988 63.5969 46.4899 63.3063 45.9503 63.1818C45.4107 63.0573 44.9126 62.9743 44.373 62.9743C43.9994 62.9743 43.5428 63.0158 43.0032 63.0988C42.4636 63.1818 42.007 63.3894 41.5089 63.7629C41.0523 64.1365 40.6372 64.7591 40.3051 65.5478C40.0146 66.3365 39.8485 67.4572 39.8485 68.9515Z" fill="black"/>
<path d="M59.0671 63.2233H53.5049V62.1025H66.9953V63.2233H61.4331V76.008H59.0671V63.2233Z" fill="black"/>
<path d="M79.2404 62.1025H82.0215V76.008H79.6555V63.8044L72.5575 76.008H69.7764V62.1025H72.1424V74.3892L79.2404 62.1025Z" fill="black"/>
<path d="M98.4178 73.2686H98.5423L107.55 56.5405H109.459V76.0082H106.927V60.2348H106.803L98.0027 76.3402H97.5046L88.9123 60.1103H88.7877V76.0082H87.584V56.5405H89.4934L98.4178 73.2686Z" fill="black"/>
<path d="M116.847 69.6987C116.847 70.8194 117.013 71.7741 117.345 72.4798C117.677 73.1854 118.092 73.7666 118.59 74.1816C119.088 74.5967 119.628 74.8873 120.209 75.0118C120.79 75.1779 121.33 75.2609 121.87 75.2609C122.326 75.2609 122.741 75.2194 123.115 75.0948C123.488 75.0118 123.862 74.8458 124.194 74.6797C124.526 74.5137 124.9 74.2647 125.232 73.9741C125.564 73.6835 125.937 73.393 126.311 73.0609L127.183 73.9326C126.436 74.7213 125.564 75.3024 124.568 75.7175C123.571 76.1326 122.451 76.3401 121.288 76.3401C120.085 76.3401 119.005 76.1326 118.092 75.7175C117.179 75.3024 116.432 74.7628 115.851 74.0571C115.27 73.3515 114.813 72.5628 114.523 71.6911C114.232 70.8194 114.107 69.9062 114.107 68.993C114.107 67.8723 114.273 66.8761 114.606 66.0044C114.938 65.1327 115.394 64.3856 116.017 63.7629C116.598 63.1403 117.304 62.6837 118.092 62.3516C118.881 62.0196 119.753 61.8535 120.707 61.8535C121.579 61.8535 122.451 62.0196 123.239 62.3101C124.028 62.6007 124.734 63.0573 125.356 63.6384C125.979 64.2195 126.436 64.9667 126.809 65.8799C127.141 66.7931 127.349 67.8723 127.349 69.1176V69.6987H116.847ZM124.941 68.578C124.941 66.7931 124.568 65.3818 123.862 64.344C123.115 63.3063 122.119 62.8082 120.79 62.8082C120.126 62.8082 119.504 62.9743 119.005 63.3063C118.507 63.6384 118.092 64.0535 117.76 64.5931C117.428 65.1327 117.179 65.7553 117.055 66.461C116.93 67.1666 116.805 67.8723 116.805 68.6195H124.941V68.578Z" fill="black"/>
<path d="M145.198 74.9288V78.9551H143.247V76.0495H131.002V78.9551H129.051V74.9288H131.043L136.232 62.144H137.892L143.247 74.9288H145.198ZM132.371 74.9288H140.756L136.605 64.8836H136.481L132.371 74.9288Z" fill="black"/>
<path d="M160.722 56.5405V58.0763H151.383V76.0082H148.851V56.5405H160.722Z" fill="black"/>
<path d="M163.752 62.1026H166.118V64.344H166.242C166.948 62.6422 168.359 61.7705 170.601 61.7705C171.514 61.7705 172.386 61.9365 173.174 62.2686C173.963 62.6007 174.627 63.0988 175.208 63.7629C175.79 64.3856 176.205 65.1742 176.537 66.0459C176.869 66.9176 176.993 67.9553 176.993 69.0346C176.993 70.1138 176.827 71.11 176.537 72.0232C176.205 72.9364 175.79 73.6835 175.208 74.3062C174.627 74.9288 173.963 75.4269 173.174 75.759C172.386 76.091 171.556 76.2571 170.601 76.2571C170.144 76.2571 169.729 76.2156 169.273 76.1326C168.816 76.0495 168.442 75.8835 168.027 75.676C167.654 75.4684 167.28 75.2194 166.99 74.8873C166.699 74.5552 166.45 74.1401 166.242 73.6835H166.118V82.94H163.752V62.1026ZM166.118 70.1138C166.118 70.8609 166.242 71.5666 166.45 72.1477C166.658 72.7288 166.948 73.2269 167.28 73.6835C167.612 74.0986 168.027 74.4307 168.484 74.6382C168.941 74.8458 169.439 74.9703 169.978 74.9703C170.559 74.9703 171.099 74.8458 171.639 74.6382C172.178 74.4307 172.635 74.0986 173.008 73.6005C173.424 73.1439 173.714 72.5213 173.963 71.7741C174.212 71.027 174.295 70.1138 174.295 69.0761C174.295 68.0383 174.171 67.1666 173.963 66.4195C173.714 65.6723 173.423 65.0912 173.05 64.5931C172.676 64.1365 172.22 63.8044 171.68 63.5969C171.141 63.3893 170.601 63.2648 170.02 63.2648C169.48 63.2648 168.982 63.3893 168.484 63.5969C168.027 63.8459 167.612 64.1365 167.239 64.5516C166.907 64.9667 166.616 65.4233 166.409 65.9629C166.201 66.5025 166.118 67.0836 166.118 67.7063V70.1138Z" fill="black"/>
<path d="M186.375 72.7703L190.733 62.1025H192.103L185.379 78.6646C185.171 79.1627 184.964 79.6608 184.756 80.2004C184.549 80.6985 184.258 81.1551 183.967 81.6117C183.677 82.0268 183.345 82.3589 182.93 82.6079C182.556 82.857 182.099 82.9815 181.56 82.9815C181.186 82.9815 180.771 82.8985 180.356 82.7739C179.941 82.6079 179.526 82.4004 179.194 82.0683L180.398 79.7438C180.564 80.1174 180.813 80.4079 181.103 80.574C181.394 80.7815 181.726 80.8645 182.058 80.8645C182.39 80.8645 182.722 80.74 182.971 80.491C183.22 80.2419 183.469 79.8683 183.635 79.4532L185.13 75.842L178.903 62.1025H181.435L186.25 72.7703H186.375Z" fill="black"/>
<path d="M197.25 76.0495H194.884V62.1025H206.091V76.008H203.725V63.2233H197.25V76.0495Z" fill="black"/>
<path d="M212.899 76.0495H210.533V62.1025H221.741V76.008H219.375V63.2233H212.899V76.0495Z" fill="black"/>
<path d="M49.8927 99.1699C49.8097 99.253 49.7267 99.336 49.6022 99.419C49.4776 99.502 49.3116 99.585 49.1456 99.6681C48.9795 99.7511 48.7305 99.8341 48.4814 99.8756C48.2324 99.9171 47.9418 99.9586 47.6097 99.9586C47.1116 99.9586 46.655 99.8756 46.3229 99.7511C45.9494 99.585 45.6588 99.419 45.4098 99.1699C45.1607 98.9209 44.9947 98.6303 44.8701 98.3398C44.7456 98.0077 44.7041 97.7171 44.7041 97.3436C44.7041 96.97 44.7871 96.5964 44.9116 96.3058C45.0362 95.9738 45.2437 95.7247 45.4928 95.5172C45.7418 95.3096 46.0324 95.1436 46.406 95.0191C46.7795 94.8945 47.1531 94.853 47.6097 94.853C47.9003 94.853 48.1908 94.8945 48.3984 94.9361C48.6474 94.9776 48.855 95.0606 49.021 95.1851C49.1871 95.2681 49.3531 95.3926 49.4776 95.5587C49.6021 95.6832 49.6852 95.8492 49.7682 96.0153H49.2286C49.1871 95.9323 49.1455 95.8077 49.0625 95.7247C48.9795 95.6417 48.855 95.5587 48.7305 95.4757C48.6059 95.3926 48.4399 95.3511 48.2739 95.3096C48.1078 95.2681 47.9003 95.2266 47.6927 95.2266C47.3607 95.2266 47.0701 95.2681 46.8211 95.3926C46.572 95.5172 46.3229 95.6417 46.1154 95.8492C45.9079 96.0568 45.7833 96.2643 45.6588 96.5549C45.5343 96.8455 45.4928 97.136 45.4928 97.4266C45.4928 97.7171 45.5343 98.0077 45.6588 98.2983C45.7418 98.5888 45.9079 98.8379 46.1154 99.0454C46.3229 99.253 46.572 99.419 46.8626 99.5435C47.1531 99.6681 47.4852 99.7511 47.9003 99.7511C48.6059 99.7511 49.1871 99.502 49.7267 99.0454L49.8927 99.1699Z" fill="#F08597"/>
<path d="M54.9152 95.2261C54.7907 95.2676 54.6662 95.3507 54.5831 95.4337C54.5001 95.5167 54.4171 95.5997 54.4171 95.7242C54.3756 95.8488 54.3756 95.9318 54.3341 96.0148H53.753C53.753 95.8073 53.7945 95.6412 53.8775 95.4752C53.9605 95.3091 54.085 95.1846 54.2511 95.1016C54.4171 95.0186 54.5831 94.9356 54.7907 94.8941C54.9982 94.8525 55.2473 94.811 55.4963 94.811C55.8284 94.811 56.119 94.8526 56.3265 94.9356C56.5756 95.0186 56.7416 95.1016 56.9076 95.2261C57.0737 95.3507 57.1567 95.4752 57.2397 95.6412C57.3227 95.8072 57.3227 95.9318 57.3227 96.0978C57.3227 96.2223 57.2812 96.3884 57.2397 96.5129C57.1982 96.6374 57.1152 96.762 57.0322 96.8865C56.9491 97.011 56.8246 97.094 56.7001 97.1355C56.5756 97.2186 56.4095 97.2186 56.285 97.2186V97.2601H56.3265C56.4925 97.2601 56.6586 97.3016 56.8246 97.3431C56.9906 97.3846 57.1152 97.5091 57.2397 97.5921C57.3642 97.6752 57.4472 97.8412 57.5303 98.0072C57.6133 98.1733 57.6548 98.3393 57.6548 98.5053C57.6548 98.6714 57.6133 98.8374 57.5303 99.0449C57.4472 99.211 57.3227 99.377 57.1567 99.5431C56.9906 99.6676 56.7416 99.7921 56.4925 99.8751C56.202 99.9581 55.8699 99.9996 55.4548 99.9996C54.8322 99.9996 54.3341 99.8751 54.0435 99.6676C53.753 99.46 53.5869 99.0865 53.5869 98.6714H54.2926C54.2926 98.7544 54.3341 98.8374 54.3341 98.9619C54.3756 99.0864 54.4171 99.211 54.5001 99.294C54.5831 99.4185 54.7077 99.5015 54.8737 99.5846C55.0397 99.6676 55.2473 99.7091 55.4963 99.7091C55.7869 99.7091 55.9944 99.6676 56.1605 99.5846C56.3265 99.5015 56.4925 99.4185 56.5756 99.294C56.7001 99.1695 56.7416 99.0449 56.7831 98.9204C56.8246 98.7959 56.8661 98.6714 56.8661 98.5468C56.8661 98.3808 56.8246 98.2148 56.7416 98.0902C56.6586 97.9657 56.5756 97.8412 56.451 97.7582C56.3265 97.6751 56.1605 97.5921 55.9944 97.5506C55.8284 97.5091 55.6209 97.4676 55.3718 97.4676H54.8322V97.1355H55.3718C55.6624 97.1355 55.8699 97.094 56.0359 97.011C56.202 96.928 56.3265 96.845 56.4095 96.7204C56.4925 96.5959 56.534 96.5129 56.5756 96.3884C56.6171 96.2639 56.6171 96.1808 56.6171 96.0978C56.6171 95.8072 56.534 95.5997 56.3265 95.4337C56.119 95.2676 55.8284 95.1846 55.4548 95.1846C55.2473 95.1016 55.0812 95.1431 54.9152 95.2261Z" fill="#F08597"/>
<path d="M59.4816 98.4223L58.8174 99.9166H58.4854L60.6853 94.894H61.0589L63.5079 99.9166H62.8023L62.0966 98.4223H59.4816ZM60.7268 95.6827L59.6061 98.0902H61.8891L60.7268 95.6827Z" fill="#F08597"/>
<path d="M65.5001 97.094H66.5378C66.9114 97.094 67.2434 97.1355 67.4925 97.2185C67.7416 97.3016 67.9491 97.4261 68.0736 97.5506C68.1982 97.6751 68.3227 97.8412 68.3642 98.0072C68.4057 98.1732 68.4472 98.3393 68.4472 98.5053C68.4472 98.6714 68.4057 98.8374 68.3642 99.0034C68.3227 99.1695 68.1982 99.3355 68.0736 99.46C67.9491 99.5845 67.7416 99.7091 67.4925 99.7921C67.2434 99.8751 66.9114 99.9166 66.5378 99.9166H64.8359V94.894H68.0321V95.2676H65.5416V97.094H65.5001ZM66.5378 99.5845C66.7038 99.5845 66.8284 99.543 66.9944 99.5015C67.1604 99.46 67.285 99.377 67.368 99.294C67.4925 99.211 67.5755 99.0864 67.6585 98.9619C67.7416 98.8374 67.7831 98.6714 67.7831 98.5053C67.7831 98.3393 67.7416 98.1732 67.7 98.0487C67.6585 97.9242 67.5755 97.7997 67.451 97.6751C67.3265 97.5921 67.2019 97.5091 67.0359 97.4261C66.8699 97.3846 66.7038 97.3431 66.4963 97.3431H65.5001V99.543H66.5378V99.5845Z" fill="#F08597"/>
<path d="M69.6509 96.5129C69.7754 96.2223 69.9415 95.9318 70.149 95.6827C70.3981 95.4337 70.6886 95.2261 71.0207 95.0601C71.3943 94.8941 71.8094 94.811 72.3075 94.811C72.8056 94.811 73.2207 94.8941 73.5942 95.0601C73.9678 95.2261 74.2584 95.4337 74.5074 95.6827C74.7565 95.9318 74.9225 96.2223 75.0471 96.5129C75.1716 96.8035 75.2131 97.094 75.2131 97.3846C75.2131 97.5506 75.1716 97.7582 75.1301 97.9242C75.0886 98.1317 75.0055 98.2978 74.881 98.5053C74.798 98.7129 74.632 98.8789 74.5074 99.0449C74.3414 99.211 74.1754 99.377 73.9263 99.5015C73.7188 99.6261 73.4697 99.7506 73.1792 99.8336C72.8886 99.9166 72.598 99.9581 72.266 99.9581C71.7678 99.9581 71.3528 99.8751 70.9792 99.7091C70.6056 99.5431 70.315 99.3355 70.1075 99.0865C69.8585 98.8374 69.6924 98.5468 69.6094 98.2563C69.4849 97.9657 69.4434 97.6752 69.4434 97.3846C69.4849 97.1355 69.5264 96.845 69.6509 96.5129ZM70.3981 98.2978C70.5226 98.5883 70.6471 98.7959 70.8547 99.0034C71.0207 99.211 71.2697 99.377 71.5188 99.46C71.7679 99.5846 72.0584 99.6261 72.349 99.6261C72.6395 99.6261 72.9301 99.5846 73.1792 99.46C73.4282 99.3355 73.6773 99.211 73.8848 99.0034C74.0924 98.7959 74.2169 98.5468 74.3414 98.2978C74.4659 98.0072 74.5074 97.7167 74.5074 97.3846C74.5074 97.0525 74.4659 96.762 74.3414 96.4714C74.2169 96.1808 74.0508 95.9733 73.8848 95.7657C73.6773 95.5582 73.4697 95.3922 73.1792 95.3091C72.9301 95.1846 72.6395 95.1431 72.349 95.1431C72.0584 95.1431 71.7679 95.1846 71.5188 95.3091C71.2697 95.4337 71.0622 95.5582 70.8547 95.7657C70.6886 95.9733 70.5226 96.2223 70.3981 96.4714C70.2735 96.762 70.232 97.0525 70.232 97.3846C70.232 97.7167 70.2735 98.0487 70.3981 98.2978Z" fill="#F08597"/>
<path d="M77.9114 99.9166V95.3091H75.9189V94.894H80.6094V95.2676H78.617V99.8751H77.9114V99.9166Z" fill="#F08597"/>
<path d="M81.44 96.5129C81.5645 96.2223 81.7305 95.9318 81.9381 95.6827C82.1871 95.4337 82.4777 95.2261 82.8098 95.0601C83.1833 94.8941 83.5984 94.811 84.0965 94.811C84.5946 94.811 85.0097 94.8941 85.3833 95.0601C85.7569 95.2261 86.0475 95.4337 86.2965 95.6827C86.5456 95.9318 86.7116 96.2223 86.8361 96.5129C86.9606 96.8035 87.0021 97.094 87.0021 97.3846C87.0021 97.5506 86.9606 97.7582 86.9191 97.9242C86.8776 98.1317 86.7946 98.2978 86.6701 98.5053C86.5871 98.7129 86.421 98.8789 86.2965 99.0449C86.1305 99.211 85.9644 99.377 85.7154 99.5015C85.5078 99.6261 85.2588 99.7506 84.9682 99.8336C84.6777 99.9166 84.3871 99.9581 84.055 99.9581C83.5569 99.9581 83.1418 99.8751 82.7683 99.7091C82.3947 99.5431 82.1041 99.3355 81.8966 99.0865C81.6475 98.8374 81.4815 98.5468 81.3985 98.2563C81.2739 97.9657 81.2324 97.6752 81.2324 97.3846C81.3154 97.1355 81.3569 96.845 81.44 96.5129ZM82.1871 98.2978C82.3117 98.5883 82.4362 98.7959 82.6437 99.0034C82.8098 99.211 83.0588 99.377 83.3079 99.46C83.5569 99.5846 83.8475 99.6261 84.138 99.6261C84.4286 99.6261 84.7192 99.5846 84.9682 99.46C85.2173 99.3355 85.4663 99.211 85.6739 99.0034C85.8814 98.7959 86.0059 98.5468 86.1305 98.2978C86.255 98.0072 86.2965 97.7167 86.2965 97.3846C86.2965 97.0525 86.255 96.762 86.1305 96.4714C86.0059 96.1808 85.8399 95.9733 85.6739 95.7657C85.4663 95.5582 85.2588 95.3922 84.9682 95.3091C84.7192 95.1846 84.4286 95.1431 84.138 95.1431C83.8475 95.1431 83.5569 95.1846 83.3079 95.3091C83.0588 95.4337 82.8513 95.5582 82.6437 95.7657C82.4777 95.9733 82.3117 96.2223 82.1871 96.4714C82.0626 96.762 82.0211 97.0525 82.0211 97.3846C82.0211 97.7167 82.0626 98.0487 82.1871 98.2978Z" fill="#F08597"/>
<path d="M92.2314 94.8942H92.8956V99.9167H92.2314V95.4338L89.1182 99.9167H88.4541V94.8942H89.1182V99.3356L92.2314 94.8942ZM90.2805 94.5206C90.156 94.5206 89.9899 94.4791 89.8654 94.4376C89.7409 94.3961 89.6163 94.313 89.4918 94.23C89.4088 94.147 89.3258 93.981 89.3258 93.8149V93.7319H90.0314C90.0314 93.7734 90.0314 93.7734 90.0314 93.8149C90.0314 93.8565 90.0314 93.8565 90.0314 93.898C90.0314 93.981 90.0729 94.064 90.1145 94.147C90.156 94.1885 90.1975 94.23 90.2805 94.2715C90.322 94.3131 90.405 94.3131 90.488 94.3131C90.5711 94.3131 90.6126 94.3131 90.6541 94.3131C90.6956 94.3131 90.7371 94.3131 90.8201 94.3131C90.9031 94.3131 90.9446 94.2715 91.0277 94.2715C91.0692 94.23 91.1522 94.1885 91.1937 94.147C91.2352 94.1055 91.2767 94.0225 91.2767 93.898C91.2767 93.8565 91.2767 93.8565 91.2767 93.8149C91.2767 93.7734 91.2767 93.7734 91.2767 93.7319H91.9824V93.8149C91.9824 93.981 91.9408 94.147 91.8163 94.23C91.7333 94.313 91.6088 94.3961 91.4427 94.4376C91.3182 94.4791 91.1522 94.5206 91.0277 94.5206C90.8616 94.5206 90.7786 94.5206 90.6541 94.5206C90.5711 94.5206 90.4465 94.5206 90.2805 94.5206Z" fill="#F08597"/>
<path d="M97.3374 96.5129C97.462 96.2223 97.628 95.9318 97.8355 95.6827C98.0846 95.4337 98.3751 95.2261 98.7072 95.0601C99.0808 94.8941 99.4959 94.811 99.994 94.811C100.492 94.811 100.907 94.8941 101.281 95.0601C101.654 95.2261 101.945 95.4337 102.194 95.6827C102.443 95.9318 102.609 96.2223 102.734 96.5129C102.858 96.8035 102.9 97.094 102.9 97.3846C102.9 97.5506 102.858 97.7582 102.817 97.9242C102.775 98.1317 102.692 98.2978 102.568 98.5053C102.485 98.7129 102.318 98.8789 102.194 99.0449C102.028 99.211 101.862 99.377 101.613 99.5015C101.405 99.6261 101.156 99.7506 100.866 99.8336C100.575 99.9166 100.285 99.9581 99.9525 99.9581C99.4544 99.9581 99.0393 99.8751 98.6657 99.7091C98.2921 99.5431 98.0016 99.3355 97.794 99.0865C97.545 98.8374 97.3789 98.5468 97.2959 98.2563C97.1714 97.9657 97.1299 97.6752 97.1299 97.3846C97.1714 97.1355 97.2129 96.845 97.3374 96.5129ZM98.0846 98.2978C98.2091 98.5883 98.3336 98.7959 98.5412 99.0034C98.7072 99.211 98.9563 99.377 99.2053 99.46C99.4544 99.5846 99.7449 99.6261 100.036 99.6261C100.326 99.6261 100.617 99.5846 100.866 99.46C101.115 99.3355 101.364 99.211 101.571 99.0034C101.779 98.7959 101.903 98.5468 102.028 98.2978C102.152 98.0072 102.194 97.7167 102.194 97.3846C102.194 97.0525 102.152 96.762 102.028 96.4714C101.903 96.1808 101.737 95.9733 101.571 95.7657C101.364 95.5582 101.156 95.3922 100.866 95.3091C100.617 95.1846 100.326 95.1431 100.036 95.1431C99.7449 95.1431 99.4544 95.1846 99.2053 95.3091C98.9563 95.4337 98.7487 95.5582 98.5412 95.7657C98.3751 95.9733 98.2091 96.2223 98.0846 96.4714C97.9601 96.762 97.9185 97.0525 97.9185 97.3846C97.9185 97.7167 97.9601 98.0487 98.0846 98.2978Z" fill="#F08597"/>
<path d="M107.133 94.894H109.001C109.25 94.894 109.499 94.9355 109.665 95.0186C109.872 95.1016 109.997 95.1846 110.121 95.3091C110.246 95.4337 110.329 95.5582 110.412 95.6827C110.454 95.8072 110.495 95.9733 110.495 96.0978C110.495 96.2638 110.454 96.3884 110.371 96.5129C110.287 96.6374 110.204 96.7619 110.08 96.8865C109.955 96.9695 109.831 97.0525 109.665 97.1355C109.499 97.2185 109.333 97.2185 109.167 97.2185V97.2601C109.291 97.2601 109.416 97.3016 109.582 97.3016C109.748 97.3431 109.955 97.3846 110.121 97.4676C110.287 97.5506 110.454 97.6751 110.578 97.8412C110.703 98.0072 110.744 98.2148 110.744 98.5053C110.744 98.6714 110.703 98.8374 110.661 99.0034C110.578 99.1695 110.495 99.3355 110.371 99.46C110.246 99.5845 110.038 99.7091 109.831 99.7921C109.582 99.8751 109.333 99.9166 109.001 99.9166H107.133V94.894ZM108.71 97.094C108.876 97.094 109.001 97.0525 109.125 97.011C109.25 96.9695 109.374 96.8865 109.457 96.8035C109.54 96.7204 109.623 96.5959 109.706 96.5129C109.748 96.3884 109.789 96.2638 109.789 96.1393C109.789 96.0148 109.789 95.9318 109.748 95.8072C109.706 95.6827 109.665 95.5997 109.54 95.5167C109.457 95.4337 109.333 95.3506 109.208 95.3091C109.084 95.2676 108.918 95.2261 108.71 95.2261H107.838V97.094H108.71ZM108.918 99.5845C109.084 99.5845 109.208 99.543 109.374 99.5015C109.499 99.46 109.623 99.377 109.748 99.294C109.872 99.211 109.955 99.0864 109.997 98.9619C110.038 98.8374 110.08 98.6714 110.08 98.5053C110.08 98.3393 110.038 98.2148 109.997 98.0487C109.955 97.9242 109.872 97.7997 109.748 97.6751C109.623 97.5506 109.499 97.4676 109.291 97.4261C109.125 97.3846 108.918 97.3431 108.669 97.3431H107.838V99.543H108.918V99.5845Z" fill="#F08597"/>
<path d="M112.446 98.4223L111.782 99.9166H111.45L113.65 94.894H114.024L116.473 99.9166H115.726L115.02 98.4223H112.446ZM113.692 95.6827L112.571 98.0902H114.854L113.692 95.6827Z" fill="#F08597"/>
<path d="M124.443 94.894V99.9166H117.76V94.894H118.424V99.5015H120.748V94.894H121.413V99.5015H123.737V94.894H124.443Z" fill="#F08597"/>
<path d="M129.797 94.894V95.2676H127.099V97.0525H129.423V97.3846H127.099V99.46H129.797V99.8336H126.435V94.894H129.797Z" fill="#F08597"/>
<path d="M134.903 94.8942H135.567V99.9167H134.903V95.4338L131.79 99.9167H131.126V94.8942H131.79V99.3356L134.903 94.8942ZM132.952 94.5206C132.828 94.5206 132.662 94.4791 132.537 94.4376C132.413 94.3961 132.288 94.313 132.164 94.23C132.081 94.147 131.998 93.981 131.998 93.8149V93.7319H132.703C132.703 93.7734 132.703 93.7734 132.703 93.8149C132.703 93.8565 132.703 93.8565 132.703 93.898C132.703 93.981 132.745 94.064 132.786 94.147C132.828 94.1885 132.869 94.23 132.952 94.2715C132.994 94.3131 133.077 94.3131 133.16 94.3131C133.243 94.3131 133.284 94.3131 133.326 94.3131C133.367 94.3131 133.409 94.3131 133.492 94.3131C133.575 94.3131 133.616 94.2715 133.7 94.2715C133.741 94.23 133.824 94.1885 133.866 94.147C133.907 94.1055 133.949 94.0225 133.949 93.898C133.949 93.8565 133.949 93.8565 133.949 93.8149C133.949 93.7734 133.949 93.7734 133.949 93.7319H134.654V93.8149C134.654 93.981 134.613 94.147 134.488 94.23C134.405 94.313 134.281 94.3961 134.115 94.4376C133.99 94.4791 133.824 94.5206 133.7 94.5206C133.533 94.5206 133.45 94.5206 133.326 94.5206C133.201 94.5206 133.077 94.5206 132.952 94.5206Z" fill="#F08597"/>
<path d="M140.34 94.894H141.004V97.7166L143.786 94.894H144.159L142.25 96.845L144.574 99.9166H143.786L141.793 97.3016L140.963 98.1732V99.9166H140.299V94.894H140.34Z" fill="#F08597"/>
<path d="M146.608 99.9166H145.944V94.894H147.688C147.978 94.894 148.227 94.9355 148.435 95.0186C148.642 95.1016 148.808 95.2261 148.974 95.3506C149.099 95.4752 149.224 95.6412 149.307 95.8487C149.39 96.0148 149.431 96.2223 149.431 96.4299C149.431 96.6374 149.39 96.845 149.307 97.011C149.224 97.177 149.099 97.3431 148.933 97.5091C148.767 97.6336 148.601 97.7582 148.352 97.8412C148.103 97.9242 147.854 97.9657 147.563 97.9657C147.397 97.9657 147.231 97.9657 147.065 97.9242C146.899 97.8827 146.775 97.8827 146.65 97.8412V99.9166H146.608ZM146.608 97.5091C146.733 97.5506 146.816 97.5921 146.941 97.5921C147.065 97.5921 147.231 97.5921 147.356 97.5921C147.563 97.5921 147.771 97.5506 147.937 97.4676C148.103 97.3846 148.227 97.3016 148.352 97.177C148.476 97.0525 148.518 96.928 148.559 96.8035C148.601 96.6789 148.642 96.5129 148.642 96.3884C148.642 96.2638 148.601 96.0978 148.559 95.9733C148.518 95.8072 148.435 95.6827 148.31 95.5997C148.186 95.4752 148.061 95.3921 147.895 95.3091C147.729 95.2261 147.563 95.1846 147.356 95.1846H146.567V97.5091H146.608Z" fill="#F08597"/>
<path d="M151.257 98.4223L150.593 99.9166H150.261L152.461 94.894H152.834L155.283 99.9166H154.578L153.872 98.4223H151.257ZM152.502 95.6827L151.381 98.0902H153.664L152.502 95.6827Z" fill="#F08597"/>
<path d="M161.303 99.1699C161.22 99.253 161.137 99.336 161.012 99.419C160.888 99.502 160.722 99.585 160.556 99.6681C160.39 99.7511 160.141 99.8341 159.892 99.8756C159.643 99.9171 159.352 99.9586 159.02 99.9586C158.522 99.9586 158.065 99.8756 157.733 99.7511C157.36 99.585 157.069 99.419 156.82 99.1699C156.571 98.9209 156.405 98.6303 156.28 98.3398C156.156 98.0077 156.114 97.7171 156.114 97.3436C156.114 96.97 156.197 96.5964 156.322 96.3058C156.446 95.9738 156.654 95.7247 156.903 95.5172C157.152 95.3096 157.443 95.1436 157.816 95.0191C158.19 94.8945 158.563 94.853 159.02 94.853C159.31 94.853 159.601 94.8945 159.809 94.9361C160.058 94.9776 160.265 95.0606 160.431 95.1851C160.597 95.2681 160.763 95.3926 160.888 95.5587C161.012 95.7247 161.095 95.8492 161.178 96.0153H160.639C160.597 95.9323 160.556 95.8077 160.473 95.7247C160.39 95.6417 160.265 95.5587 160.141 95.4757C160.016 95.3926 159.85 95.3511 159.684 95.3096C159.518 95.2681 159.31 95.2266 159.103 95.2266C158.771 95.2266 158.48 95.2681 158.231 95.3926C157.982 95.5172 157.733 95.6417 157.526 95.8492C157.318 96.0568 157.193 96.2643 157.069 96.5549C156.944 96.8039 156.903 97.136 156.903 97.4266C156.903 97.7171 156.944 98.0077 157.069 98.2983C157.152 98.5888 157.318 98.8379 157.526 99.0454C157.733 99.253 157.982 99.419 158.273 99.5435C158.563 99.6681 158.895 99.7511 159.31 99.7511C160.016 99.7511 160.597 99.502 161.137 99.0454L161.303 99.1699Z" fill="#F08597"/>
<path d="M162.257 96.5129C162.382 96.2223 162.548 95.9318 162.755 95.6827C163.005 95.4337 163.295 95.2261 163.627 95.0601C163.959 94.8941 164.416 94.811 164.914 94.811C165.412 94.811 165.827 94.8941 166.201 95.0601C166.574 95.2261 166.865 95.4337 167.114 95.6827C167.363 95.9318 167.529 96.2223 167.653 96.5129C167.778 96.8035 167.82 97.094 167.82 97.3846C167.82 97.5506 167.778 97.7582 167.737 97.9242C167.695 98.1317 167.612 98.2978 167.487 98.5053C167.404 98.7129 167.238 98.8789 167.114 99.0449C166.948 99.211 166.782 99.377 166.533 99.5015C166.325 99.6261 166.076 99.7506 165.786 99.8336C165.495 99.9166 165.204 99.9581 164.872 99.9581C164.374 99.9581 163.959 99.8751 163.586 99.7091C163.212 99.5431 162.922 99.3355 162.714 99.0865C162.465 98.8374 162.299 98.5468 162.216 98.2563C162.091 97.9657 162.05 97.6752 162.05 97.3846C162.091 97.1355 162.133 96.845 162.257 96.5129ZM162.963 98.2978C163.088 98.5883 163.212 98.7959 163.42 99.0034C163.586 99.211 163.835 99.377 164.084 99.46C164.333 99.5846 164.623 99.6261 164.914 99.6261C165.204 99.6261 165.495 99.5846 165.744 99.46C165.993 99.3355 166.242 99.211 166.45 99.0034C166.657 98.7959 166.782 98.5468 166.906 98.2978C167.031 98.0072 167.072 97.7167 167.072 97.3846C167.072 97.0525 167.031 96.762 166.906 96.4714C166.782 96.1808 166.616 95.9733 166.45 95.7657C166.242 95.5582 166.035 95.3922 165.744 95.3091C165.495 95.1846 165.204 95.1431 164.914 95.1431C164.623 95.1431 164.333 95.1846 164.084 95.3091C163.835 95.4337 163.627 95.5582 163.42 95.7657C163.212 95.9733 163.088 96.2223 162.963 96.4714C162.838 96.762 162.797 97.0525 162.797 97.3846C162.797 97.7167 162.88 98.0487 162.963 98.2978Z" fill="#F08597"/>
<path d="M170.518 99.9166V95.3091H168.525V94.894H173.216V95.2676H171.223V99.8751H170.518V99.9166Z" fill="#F08597"/>
<path d="M177.782 94.894V95.2676H175.084V97.0525H177.409V97.3846H175.084V99.46H177.782V99.8336H174.42V94.894H177.782Z" fill="#F08597"/>
<path d="M109.999 5.23532C112.946 5.27683 115.935 5.23532 118.882 5.44286C120.21 5.52588 121.538 6.02399 122.742 6.5636C124.361 7.31076 125.606 8.26547 126.146 10.0503C126.27 10.4239 126.644 10.7975 127.018 10.9635C128.885 11.9182 130.38 13.2465 131.791 14.7408C133.451 16.4842 133.783 18.5597 133.617 20.8011C133.119 28.0652 129.55 33.2538 122.991 36.3254C122.618 36.4915 122.286 36.7405 121.953 36.9896C118.799 39.9367 115.063 41.431 110.705 41.431C106.554 41.3895 102.901 39.8952 99.7877 37.0726C99.3726 36.699 98.8745 36.3254 98.3349 36.1179C91.3614 32.8802 87.169 25.2426 88.2898 17.688C88.3313 17.2729 88.5388 16.8993 88.7464 16.5257C90.1992 14.1182 92.1916 12.2918 94.6406 10.9635C95.0972 10.7145 95.5538 10.2579 95.6783 9.80129C96.1765 8.18245 97.2557 7.22774 98.7915 6.5636C100.95 5.65041 103.856 5.1523 106.803 5.19381L109.999 5.23532ZM105.308 10.3409C103.69 11.5862 101.988 14.4918 101.614 16.6918C101.116 19.6389 102.071 21.8804 104.603 23.4162C108.339 25.6577 112.199 25.6577 116.142 23.9973C117.221 23.5407 117.47 22.7105 117.263 21.7558C117.138 21.0917 116.765 20.3445 116.308 19.8464C115.561 19.0578 114.648 18.3936 113.693 17.8125C111.991 16.7333 110.206 15.7786 108.546 14.6993C107.01 13.6201 105.682 12.3333 105.308 10.3409ZM115.893 31.801C105.848 33.1293 97.2972 30.4727 90.4482 22.7105C91.735 28.7293 95.0972 32.9632 100.908 34.8726C106.471 36.7405 111.493 35.5368 115.893 31.801ZM131.293 22.669C127.972 26.4048 126.146 27.9407 122.41 29.5595C120.833 30.2652 119.504 31.0953 118.384 32.4236C117.512 33.4613 116.267 34.2085 115.188 35.0387C114.98 35.2047 114.814 35.3707 114.523 35.5783C122.659 36.45 130.463 30.4312 131.293 22.669ZM115.727 9.59375C113.942 12.2503 111.327 12.2503 108.505 11.8352C109.625 12.7484 110.788 13.5371 111.95 14.2842C114.814 16.0691 118.135 17.3144 119.587 20.8011C121.248 17.5219 119.297 12.0843 115.727 9.59375ZM108.006 27.069C111.369 29.3104 114.772 29.8086 118.218 28.1067C122.701 25.9067 124.61 21.9219 125.108 17.1484C121.787 24.4124 116.308 27.8991 108.006 27.069ZM94.7651 13.6201C94.6406 13.5371 94.5161 13.4541 94.3916 13.4126C93.2293 14.6993 92.0256 15.9861 90.8633 17.3144C90.6973 17.5219 90.6558 17.9785 90.7388 18.2691C91.9841 22.0049 94.6821 24.4954 98.0028 26.4463C95.1802 22.5445 94.1425 18.2691 94.7651 13.6201ZM127.059 13.4541C127.64 18.2276 126.685 22.42 124.029 26.1973C127.308 24.2879 129.923 21.7973 131.127 18.1446C131.21 17.937 131.21 17.6465 131.085 17.4804C130.089 15.8616 128.885 14.5333 127.059 13.4541ZM105.391 7.31076C102.942 7.35227 100.867 7.85038 98.9991 8.97112C98.75 9.09564 98.4594 9.38621 98.4179 9.63526C97.8783 12.2918 98.1274 14.8654 99.3726 17.3974C99.9538 13.2465 102.112 10.0919 105.391 7.31076ZM122.41 17.3974C123.78 15.4465 123.946 11.2956 123.406 9.51073C123.365 9.3862 123.282 9.26168 123.199 9.17866C122.161 8.34848 118.052 6.93718 116.64 7.51831C119.67 10.0919 121.829 13.2465 122.41 17.3974ZM96.8406 17.2729C97.1312 23.7898 102.154 28.8123 106.678 28.8954C105.557 27.6086 104.52 26.0313 103.15 24.9935C100.286 22.9596 98.1274 20.5106 96.8406 17.2729ZM104.769 37.9858C108.006 40.1027 114.689 39.8122 116.806 37.9858C115.104 37.7367 113.237 37.4462 111.327 37.1556C111.078 37.1141 110.788 37.1141 110.497 37.1556C108.546 37.4047 106.595 37.6952 104.769 37.9858ZM110.829 10.0503C111.659 9.75979 112.448 9.59375 113.195 9.26168C113.818 8.97111 113.859 8.4315 113.278 7.97491C112.199 7.10322 109.542 7.10322 108.505 7.97491C107.965 8.4315 107.923 8.92961 108.546 9.22017C109.21 9.59375 110.04 9.75979 110.829 10.0503Z" fill="#F08597"/>
<path d="M110.829 2.7448C110.829 2.7448 106.512 1.91462 108.754 0.58634C109.459 0.171252 110.29 -0.036296 111.078 0.0052128C111.576 0.0052128 112.116 0.0882317 112.656 0.337285C112.697 0.295776 115.769 1.74859 110.829 2.7448Z" fill="#F08597"/>
</svg>
