<svg width="16" height="16" viewBox="0 0 16 16" fill="none" xmlns="http://www.w3.org/2000/svg">
<g clip-path="url(#clip0_3812_13237)">
<path d="M8 0C3.58877 0 0 3.58877 0 8C0 12.4112 3.58871 16 7.99993 16C12.4112 16 15.9999 12.4112 15.9999 8C15.9999 3.58877 12.4112 0 8 0ZM8 14.0435C4.6676 14.0435 1.95652 11.3324 1.95652 8C1.95652 4.6676 4.6676 1.95652 8 1.95652C11.3324 1.95652 14.0435 4.6676 14.0435 8C14.0435 11.3324 11.3323 14.0435 8 14.0435Z" fill="black"/>
<path d="M8.97801 11.2935V8.09785C8.97801 7.55757 8.54003 7.11959 7.99975 7.11959C7.45947 7.11959 7.02148 7.55757 7.02148 8.09785V11.2935C7.02148 11.8338 7.45947 12.2717 7.99975 12.2717C8.54003 12.2717 8.97801 11.8338 8.97801 11.2935Z" fill="black"/>
<path d="M8.03236 3.72828H7.96713C7.44487 3.72828 7.02148 4.15166 7.02148 4.67393C7.02148 5.1962 7.44487 5.61958 7.96713 5.61958H8.03236C8.55463 5.61958 8.97801 5.1962 8.97801 4.67393C8.97801 4.15166 8.55463 3.72828 8.03236 3.72828Z" fill="black"/>
</g>
<defs>
<clipPath id="clip0_3812_13237">
<rect width="16" height="16" fill="white"/>
</clipPath>
</defs>
</svg>
