<svg width="261" height="42" viewBox="0 0 261 42" fill="none" xmlns="http://www.w3.org/2000/svg">
<path d="M61.3066 11.7141H64.8233C66.1468 11.7141 67.2433 11.8648 68.0752 12.1662C68.945 12.4676 69.5878 12.8444 70.1172 13.3342C70.6087 13.824 70.9491 14.3515 71.1381 14.9166C71.3272 15.5194 71.4406 16.0846 71.4406 16.6874C71.4406 17.2902 71.3272 17.8554 71.1381 18.4582C70.9491 19.061 70.6087 19.5885 70.1172 20.0783C69.6256 20.5681 68.945 20.9449 68.1131 21.2463C67.2433 21.5477 66.1468 21.6984 64.8233 21.6984H59V4.02808H69.8147V5.4221H61.3066V11.7141ZM64.7855 20.6058C65.3149 20.6058 65.8064 20.5304 66.298 20.342C66.7896 20.1913 67.2433 19.9276 67.6215 19.6262C67.9996 19.3248 68.3021 18.9103 68.529 18.4582C68.7559 17.9684 68.8693 17.4409 68.8693 16.8381C68.8693 16.273 68.7559 15.7455 68.5668 15.218C68.3777 14.7282 68.0752 14.3138 67.7349 13.937C67.3946 13.5603 66.9408 13.2965 66.4114 13.1081C65.8821 12.9197 65.277 12.8067 64.6342 12.8067H61.3066V20.5681H64.7855V20.6058Z" fill="black"/>
<path d="M77.1508 9.03882V14.7657H80.1758C80.5918 14.7657 81.0834 14.8033 81.6884 14.841C82.2934 14.8787 82.8606 15.0294 83.39 15.2555C83.9194 15.4815 84.3731 15.8206 84.7891 16.3104C85.1672 16.8002 85.3563 17.4407 85.3563 18.3073C85.3563 18.8347 85.2428 19.2869 85.0538 19.7013C84.8269 20.1157 84.5622 20.4548 84.2219 20.7562C83.8816 21.0577 83.5034 21.2837 83.0497 21.4344C82.5959 21.5851 82.1421 21.6605 81.6884 21.6605H75.0332V9.03882H77.1508ZM80.554 20.6809C81.2346 20.6809 81.8018 20.4925 82.2934 20.1157C82.785 19.739 83.0497 19.1362 83.0497 18.3449C83.0497 17.7044 82.9362 17.177 82.6715 16.8002C82.4068 16.4234 82.1421 16.1597 81.8018 16.009C81.4615 15.8583 81.159 15.7453 80.8187 15.7076C80.4783 15.6699 80.2515 15.6699 80.1002 15.6699H77.1886V20.6809H80.554Z" fill="black"/>
<path d="M90.8019 15.6322V21.6981H88.6465V9.07644H90.8019V14.8033H92.9194C92.9194 13.8614 93.1085 13.0325 93.4866 12.279C93.8269 11.5254 94.3185 10.8849 94.8857 10.3951C95.4529 9.86765 96.1714 9.49088 96.9276 9.18947C97.7217 8.92573 98.5536 8.77502 99.4611 8.77502C100.482 8.77502 101.39 8.96342 102.184 9.30251C102.978 9.6416 103.658 10.1314 104.226 10.7342C104.793 11.337 105.247 12.0152 105.549 12.8064C105.852 13.5976 106.003 14.4265 106.003 15.2554C106.003 16.1973 105.852 17.1016 105.549 17.9304C105.247 18.7593 104.831 19.4752 104.263 20.078C103.696 20.6808 103.016 21.1706 102.222 21.5097C101.427 21.8488 100.482 22.0372 99.4611 22.0372C98.4402 22.0372 97.5327 21.8488 96.7386 21.472C95.9445 21.0953 95.2638 20.6055 94.7345 20.0027C94.1673 19.3998 93.7513 18.7217 93.4488 17.9681C93.1463 17.2146 92.9572 16.4611 92.9194 15.7075H90.8019V15.6322ZM95.3017 15.2554C95.3017 16.4234 95.4151 17.403 95.6798 18.1565C95.9445 18.91 96.2848 19.4752 96.6629 19.9273C97.0789 20.3417 97.5327 20.6432 98.0242 20.7939C98.5158 20.9446 98.9696 21.0199 99.4611 21.0199C100.255 21.0199 100.936 20.8315 101.465 20.4925C101.995 20.1534 102.411 19.7012 102.751 19.1361C103.053 18.5709 103.28 17.9681 103.394 17.2899C103.507 16.6118 103.583 15.9336 103.583 15.2554C103.583 14.0874 103.469 13.1455 103.205 12.4297C102.94 11.7138 102.637 11.1487 102.222 10.7719C101.806 10.3951 101.352 10.1314 100.86 10.0184C100.369 9.90533 99.9149 9.82998 99.4233 9.82998C99.083 9.82998 98.6671 9.86765 98.1755 9.943C97.6839 10.0184 97.268 10.2067 96.8142 10.5458C96.3982 10.8849 96.0201 11.4501 95.7176 12.1659C95.4529 12.8818 95.3017 13.899 95.3017 15.2554Z" fill="black"/>
<path d="M112.808 10.0561H107.741V9.03882H120.031V10.0561H114.964V21.6605H112.808V10.0561Z" fill="black"/>
<path d="M131.186 9.03882H133.719V21.6605H131.564V10.5836L125.098 21.6605H122.564V9.03882H124.72V20.1911L131.186 9.03882Z" fill="black"/>
<path d="M148.655 19.1738H148.769L156.974 3.99011H158.714V21.6604H156.407V7.34333H156.294L148.277 21.9618H147.824L139.996 7.2303H139.883V21.6604H138.786V3.99011H140.526L148.655 19.1738Z" fill="black"/>
<path d="M165.445 15.9336C165.445 16.9509 165.596 17.8175 165.899 18.458C166.201 19.0985 166.579 19.6259 167.033 20.0027C167.487 20.3795 167.978 20.6432 168.508 20.7562C169.037 20.9069 169.529 20.9823 170.02 20.9823C170.436 20.9823 170.814 20.9446 171.155 20.8316C171.495 20.7562 171.835 20.6055 172.138 20.4548C172.44 20.3041 172.781 20.0781 173.083 19.8143C173.386 19.5506 173.726 19.2868 174.066 18.9854L174.86 19.7766C174.18 20.4925 173.386 21.02 172.478 21.3967C171.571 21.7735 170.55 21.9619 169.491 21.9619C168.394 21.9619 167.411 21.7735 166.579 21.3967C165.747 21.02 165.067 20.5302 164.537 19.8897C164.008 19.2492 163.592 18.5333 163.327 17.7421C163.063 16.9509 162.949 16.122 162.949 15.2931C162.949 14.2759 163.1 13.3716 163.403 12.5804C163.705 11.7892 164.121 11.111 164.689 10.5459C165.218 9.98072 165.861 9.56628 166.579 9.26487C167.298 8.96346 168.092 8.81274 168.962 8.81274C169.756 8.81274 170.55 8.96345 171.268 9.22719C171.987 9.49093 172.629 9.90537 173.197 10.4328C173.764 10.9603 174.18 11.6385 174.52 12.4674C174.823 13.2963 175.012 14.2759 175.012 15.4062V15.9336H165.445ZM172.819 14.9164C172.819 13.2963 172.478 12.0153 171.835 11.0733C171.155 10.1314 170.247 9.67931 169.037 9.67931C168.432 9.67931 167.865 9.83001 167.411 10.1314C166.957 10.4328 166.579 10.8096 166.277 11.2994C165.974 11.7892 165.747 12.3543 165.634 12.9949C165.521 13.6354 165.407 14.2759 165.407 14.954H172.819V14.9164Z" fill="black"/>
<path d="M191.271 20.6809V24.3356H189.494V21.6982H178.339V24.3356H176.562V20.6809H178.377L183.103 9.07654H184.616L189.494 20.6809H191.271ZM179.587 20.6809H187.225L183.444 11.5632H183.33L179.587 20.6809Z" fill="black"/>
<path d="M205.413 3.99011V5.38414H196.905V21.6604H194.599V3.99011H205.413Z" fill="black"/>
<path d="M208.174 9.03883H210.329V11.0734H210.443C211.085 9.52863 212.371 8.73743 214.413 8.73743C215.245 8.73743 216.039 8.88813 216.757 9.18954C217.476 9.49095 218.081 9.94307 218.61 10.5459C219.14 11.111 219.518 11.8269 219.82 12.6181C220.123 13.4093 220.236 14.3512 220.236 15.3308C220.236 16.3104 220.085 17.2147 219.82 18.0435C219.518 18.8724 219.14 19.5506 218.61 20.1158C218.081 20.6809 217.476 21.133 216.757 21.4344C216.039 21.7358 215.283 21.8866 214.413 21.8866C213.997 21.8866 213.619 21.8489 213.203 21.7735C212.787 21.6982 212.447 21.5475 212.069 21.3591C211.728 21.1707 211.388 20.9446 211.123 20.6432C210.859 20.3418 210.632 19.965 210.443 19.5506H210.329V27.9525H208.174V9.03883ZM210.329 16.3104C210.329 16.9886 210.443 17.6291 210.632 18.1566C210.821 18.684 211.085 19.1362 211.388 19.5506C211.69 19.9274 212.069 20.2288 212.485 20.4172C212.901 20.6056 213.354 20.7186 213.846 20.7186C214.375 20.7186 214.867 20.6056 215.358 20.4172C215.85 20.2288 216.266 19.9274 216.606 19.4753C216.984 19.0608 217.249 18.4957 217.476 17.8175C217.703 17.1393 217.778 16.3104 217.778 15.3685C217.778 14.4266 217.665 13.6354 217.476 12.9572C217.249 12.279 216.984 11.7516 216.644 11.2994C216.304 10.885 215.888 10.5836 215.396 10.3952C214.905 10.2068 214.413 10.0938 213.884 10.0938C213.392 10.0938 212.938 10.2068 212.485 10.3952C212.069 10.6213 211.69 10.885 211.35 11.2618C211.048 11.6385 210.783 12.053 210.594 12.5428C210.405 13.0326 210.329 13.56 210.329 14.1252V16.3104Z" fill="black"/>
<path d="M228.783 18.7217L232.753 9.03882H234.001L227.875 24.0718C227.686 24.5239 227.497 24.976 227.308 25.4658C227.119 25.9179 226.855 26.3324 226.59 26.7468C226.325 27.1236 226.023 27.425 225.644 27.6511C225.304 27.8771 224.888 27.9901 224.397 27.9901C224.056 27.9901 223.678 27.9148 223.3 27.8018C222.922 27.6511 222.544 27.4627 222.241 27.1613L223.338 25.0514C223.489 25.3905 223.716 25.6542 223.981 25.8049C224.245 25.9933 224.548 26.0686 224.85 26.0686C225.153 26.0686 225.455 25.9556 225.682 25.7295C225.909 25.5035 226.136 25.1644 226.287 24.7876L227.649 21.5098L221.977 9.03882H224.283L228.67 18.7217H228.783Z" fill="black"/>
<path d="M238.69 21.6982H236.534V9.03882H246.744V21.6605H244.588V10.0561H238.69V21.6982Z" fill="black"/>
<path d="M252.945 21.6982H250.79V9.03882H261V21.6605H258.844V10.0561H252.945V21.6982Z" fill="black"/>
<path d="M64.4975 36.7699C64.4095 36.8626 64.3216 36.9554 64.1897 37.0481C64.0577 37.1408 63.8818 37.2335 63.7059 37.3262C63.5299 37.4189 63.2661 37.5117 63.0022 37.558C62.7383 37.6044 62.4304 37.6507 62.0786 37.6507C61.5508 37.6507 61.0671 37.558 60.7152 37.4189C60.3194 37.2335 60.0115 37.0481 59.7477 36.7699C59.4838 36.4918 59.3079 36.1673 59.1759 35.8428C59.044 35.4719 59 35.1474 59 34.7302C59 34.313 59.088 33.8958 59.2199 33.5712C59.3518 33.2004 59.5717 32.9222 59.8356 32.6905C60.0995 32.4587 60.4074 32.2732 60.8032 32.1342C61.199 31.9951 61.5948 31.9487 62.0786 31.9487C62.3865 31.9487 62.6943 31.9951 62.9142 32.0415C63.1781 32.0878 63.398 32.1805 63.5739 32.3196C63.7498 32.4123 63.9258 32.5514 64.0577 32.7368C64.1896 32.8759 64.2776 33.0613 64.3656 33.2468H63.7938C63.7498 33.154 63.7059 33.015 63.6179 32.9222C63.5299 32.8295 63.398 32.7368 63.2661 32.6441C63.1341 32.5514 62.9582 32.505 62.7823 32.4587C62.6064 32.4123 62.3865 32.3659 62.1666 32.3659C61.8147 32.3659 61.5069 32.4123 61.243 32.5514C60.9791 32.6905 60.7152 32.8295 60.4953 33.0613C60.2754 33.2931 60.1435 33.5249 60.0115 33.8494C59.8796 34.1739 59.8356 34.4984 59.8356 34.8229C59.8356 35.1474 59.8796 35.4719 60.0115 35.7964C60.0995 36.1209 60.2754 36.3991 60.4953 36.6309C60.7152 36.8626 60.9791 37.0481 61.287 37.1872C61.5948 37.3262 61.9467 37.4189 62.3865 37.4189C63.1341 37.4189 63.7498 37.1408 64.3216 36.6309L64.4975 36.7699Z" fill="black"/>
<path d="M69.8195 32.3659C69.6875 32.4123 69.5556 32.505 69.4676 32.5977C69.3797 32.6904 69.2917 32.7831 69.2917 32.9222C69.2477 33.0613 69.2477 33.154 69.2038 33.2467H68.588C68.588 33.0149 68.632 32.8295 68.72 32.6441C68.8079 32.4586 68.9399 32.3196 69.1158 32.2269C69.2917 32.1341 69.4676 32.0414 69.6875 31.9951C69.9074 31.9487 70.1713 31.9023 70.4352 31.9023C70.787 31.9023 71.0949 31.9487 71.3148 32.0414C71.5787 32.1341 71.7546 32.2268 71.9305 32.3659C72.1064 32.505 72.1944 32.6441 72.2824 32.8295C72.3703 33.0149 72.3703 33.154 72.3703 33.3394C72.3703 33.4785 72.3263 33.6639 72.2824 33.803C72.2384 33.9421 72.1504 34.0812 72.0625 34.2202C71.9745 34.3593 71.8426 34.452 71.7106 34.4984C71.5787 34.5911 71.4028 34.5911 71.2708 34.5911V34.6375H71.3148C71.4907 34.6375 71.6666 34.6838 71.8426 34.7302C72.0185 34.7765 72.1504 34.9156 72.2824 35.0083C72.4143 35.101 72.5023 35.2865 72.5902 35.4719C72.6782 35.6573 72.7222 35.8428 72.7222 36.0282C72.7222 36.2136 72.6782 36.399 72.5902 36.6308C72.5023 36.8163 72.3703 37.0017 72.1944 37.1871C72.0185 37.3262 71.7546 37.4653 71.4907 37.558C71.1829 37.6507 70.831 37.6971 70.3912 37.6971C69.7315 37.6971 69.2038 37.558 68.8959 37.3262C68.588 37.0944 68.4121 36.6772 68.4121 36.2136H69.1598C69.1598 36.3063 69.2038 36.399 69.2038 36.5381C69.2477 36.6772 69.2917 36.8163 69.3797 36.909C69.4676 37.0481 69.5996 37.1408 69.7755 37.2335C69.9514 37.3262 70.1713 37.3726 70.4352 37.3726C70.7431 37.3726 70.963 37.3262 71.1389 37.2335C71.3148 37.1408 71.4907 37.0481 71.5787 36.909C71.7106 36.7699 71.7546 36.6308 71.7986 36.4918C71.8426 36.3527 71.8865 36.2136 71.8865 36.0745C71.8865 35.8891 71.8426 35.7037 71.7546 35.5646C71.6666 35.4255 71.5787 35.2865 71.4467 35.1937C71.3148 35.101 71.1389 35.0083 70.963 34.962C70.787 34.9156 70.5671 34.8692 70.3033 34.8692H69.7315V34.4984H70.3033C70.6111 34.4984 70.831 34.452 71.0069 34.3593C71.1829 34.2666 71.3148 34.1739 71.4028 34.0348C71.4907 33.8957 71.5347 33.803 71.5787 33.6639C71.6227 33.5249 71.6227 33.4322 71.6227 33.3394C71.6227 33.0149 71.5347 32.7831 71.3148 32.5977C71.0949 32.4123 70.787 32.3196 70.3912 32.3196C70.1713 32.2269 69.9954 32.2732 69.8195 32.3659Z" fill="black"/>
<path d="M74.6571 35.9355L73.9534 37.6044H73.6016L75.9325 31.9951H76.3283L78.9231 37.6044H78.1755L77.4278 35.9355H74.6571ZM75.9765 32.8759L74.789 35.5647H77.2079L75.9765 32.8759Z" fill="black"/>
<path d="M81.0338 34.4521H82.1333C82.5291 34.4521 82.8809 34.4984 83.1448 34.5912C83.4087 34.6839 83.6286 34.8229 83.7605 34.962C83.8925 35.1011 84.0244 35.2865 84.0684 35.4719C84.1124 35.6574 84.1563 35.8428 84.1563 36.0282C84.1563 36.2137 84.1124 36.3991 84.0684 36.5845C84.0244 36.77 83.8925 36.9554 83.7605 37.0945C83.6286 37.2335 83.4087 37.3726 83.1448 37.4653C82.8809 37.558 82.5291 37.6044 82.1333 37.6044H80.3301V31.9951H83.7165V32.4123H81.0777V34.4521H81.0338ZM82.1333 37.2335C82.3092 37.2335 82.4411 37.1872 82.617 37.1408C82.793 37.0945 82.9249 37.0018 83.0129 36.909C83.1448 36.8163 83.2328 36.6772 83.3207 36.5382C83.4087 36.3991 83.4527 36.2137 83.4527 36.0282C83.4527 35.8428 83.4087 35.6574 83.3647 35.5183C83.3207 35.3792 83.2328 35.2402 83.1008 35.1011C82.9689 35.0084 82.8369 34.9157 82.661 34.8229C82.4851 34.7766 82.3092 34.7302 82.0893 34.7302H81.0338V37.1872H82.1333V37.2335Z" fill="black"/>
<path d="M85.4318 33.803C85.5638 33.4785 85.7397 33.154 85.9596 32.8759C86.2235 32.5977 86.5313 32.3659 86.8832 32.1805C87.279 31.9951 87.7188 31.9023 88.2465 31.9023C88.7743 31.9023 89.2141 31.9951 89.6099 32.1805C90.0057 32.3659 90.3136 32.5977 90.5775 32.8759C90.8414 33.154 91.0173 33.4785 91.1492 33.803C91.2812 34.1275 91.3251 34.452 91.3251 34.7765C91.3251 34.962 91.2812 35.1937 91.2372 35.3792C91.1932 35.611 91.1052 35.7964 90.9733 36.0282C90.8853 36.26 90.7094 36.4454 90.5775 36.6308C90.4016 36.8163 90.2256 37.0017 89.9618 37.1408C89.7419 37.2798 89.478 37.4189 89.1701 37.5116C88.8623 37.6043 88.5544 37.6507 88.2026 37.6507C87.6748 37.6507 87.235 37.558 86.8392 37.3726C86.4434 37.1871 86.1355 36.9553 85.9156 36.6772C85.6517 36.399 85.4758 36.0745 85.3878 35.75C85.2559 35.4255 85.2119 35.101 85.2119 34.7765C85.2559 34.4984 85.2999 34.1739 85.4318 33.803ZM86.2234 35.7964C86.3554 36.1209 86.4873 36.3527 86.7072 36.5845C86.8832 36.8163 87.147 37.0017 87.4109 37.0944C87.6748 37.2335 87.9827 37.2798 88.2905 37.2798C88.5984 37.2798 88.9062 37.2335 89.1701 37.0944C89.434 36.9553 89.6979 36.8163 89.9178 36.5845C90.1377 36.3527 90.2696 36.0745 90.4016 35.7964C90.5335 35.4719 90.5775 35.1474 90.5775 34.7765C90.5775 34.4057 90.5335 34.0812 90.4016 33.7567C90.2696 33.4321 90.0937 33.2004 89.9178 32.9686C89.6979 32.7368 89.478 32.5514 89.1701 32.4586C88.9062 32.3196 88.5984 32.2732 88.2905 32.2732C87.9827 32.2732 87.6748 32.3196 87.4109 32.4586C87.147 32.5977 86.9271 32.7368 86.7072 32.9686C86.5313 33.2004 86.3554 33.4785 86.2234 33.7567C86.0915 34.0812 86.0475 34.4057 86.0475 34.7765C86.0475 35.1474 86.0915 35.5183 86.2234 35.7964Z" fill="black"/>
<path d="M94.1843 37.6044V32.4587H92.0732V31.9951H97.043V32.4123H94.9319V37.558H94.1843V37.6044Z" fill="black"/>
<path d="M97.923 33.803C98.055 33.4785 98.2309 33.154 98.4508 32.8759C98.7147 32.5977 99.0225 32.3659 99.3744 32.1805C99.7702 31.9951 100.21 31.9023 100.738 31.9023C101.266 31.9023 101.705 31.9951 102.101 32.1805C102.497 32.3659 102.805 32.5977 103.069 32.8759C103.333 33.154 103.508 33.4785 103.64 33.803C103.772 34.1275 103.816 34.452 103.816 34.7765C103.816 34.962 103.772 35.1937 103.728 35.3792C103.684 35.611 103.596 35.7964 103.465 36.0282C103.377 36.26 103.201 36.4454 103.069 36.6308C102.893 36.8163 102.717 37.0017 102.453 37.1408C102.233 37.2798 101.969 37.4189 101.661 37.5116C101.353 37.6043 101.046 37.6507 100.694 37.6507C100.166 37.6507 99.7262 37.558 99.3304 37.3726C98.9346 37.1871 98.6267 36.9553 98.4068 36.6772C98.1429 36.399 97.967 36.0745 97.879 35.75C97.7471 35.4255 97.7031 35.101 97.7031 34.7765C97.7911 34.4984 97.8351 34.1739 97.923 33.803ZM98.7147 35.7964C98.8466 36.1209 98.9785 36.3527 99.1984 36.5845C99.3744 36.8163 99.6382 37.0017 99.9021 37.0944C100.166 37.2335 100.474 37.2798 100.782 37.2798C101.09 37.2798 101.397 37.2335 101.661 37.0944C101.925 36.9553 102.189 36.8163 102.409 36.5845C102.629 36.3527 102.761 36.0745 102.893 35.7964C103.025 35.4719 103.069 35.1474 103.069 34.7765C103.069 34.4057 103.025 34.0812 102.893 33.7567C102.761 33.4321 102.585 33.2004 102.409 32.9686C102.189 32.7368 101.969 32.5514 101.661 32.4586C101.397 32.3196 101.09 32.2732 100.782 32.2732C100.474 32.2732 100.166 32.3196 99.9021 32.4586C99.6382 32.5977 99.4183 32.7368 99.1984 32.9686C99.0225 33.2004 98.8466 33.4785 98.7147 33.7567C98.5827 34.0812 98.5387 34.4057 98.5387 34.7765C98.5387 35.1474 98.5827 35.5183 98.7147 35.7964Z" fill="black"/>
<path d="M109.357 31.9952H110.06V37.6044H109.357V32.5978L106.058 37.6044H105.354V31.9952H106.058V36.9554L109.357 31.9952ZM107.29 31.5779C107.158 31.5779 106.982 31.5316 106.85 31.4852C106.718 31.4389 106.586 31.3461 106.454 31.2534C106.366 31.1607 106.278 30.9753 106.278 30.7899V30.6971H107.026C107.026 30.7435 107.026 30.7435 107.026 30.7899C107.026 30.8362 107.026 30.8362 107.026 30.8826C107.026 30.9753 107.07 31.068 107.114 31.1607C107.158 31.2071 107.202 31.2534 107.29 31.2998C107.334 31.3461 107.422 31.3461 107.51 31.3461C107.597 31.3461 107.641 31.3461 107.685 31.3461C107.729 31.3461 107.773 31.3461 107.861 31.3461C107.949 31.3461 107.993 31.2998 108.081 31.2998C108.125 31.2534 108.213 31.2071 108.257 31.1607C108.301 31.1144 108.345 31.0216 108.345 30.8826C108.345 30.8362 108.345 30.8362 108.345 30.7899C108.345 30.7435 108.345 30.7435 108.345 30.6971H109.093V30.7899C109.093 30.9753 109.049 31.1607 108.917 31.2534C108.829 31.3461 108.697 31.4389 108.521 31.4852C108.389 31.5316 108.213 31.5779 108.081 31.5779C107.905 31.5779 107.817 31.5779 107.685 31.5779C107.597 31.5779 107.466 31.5779 107.29 31.5779Z" fill="black"/>
<path d="M114.767 33.803C114.899 33.4785 115.075 33.154 115.295 32.8759C115.558 32.5977 115.866 32.3659 116.218 32.1805C116.614 31.9951 117.054 31.9023 117.581 31.9023C118.109 31.9023 118.549 31.9951 118.945 32.1805C119.341 32.3659 119.649 32.5977 119.912 32.8759C120.176 33.154 120.352 33.4785 120.484 33.803C120.616 34.1275 120.66 34.452 120.66 34.7765C120.66 34.962 120.616 35.1937 120.572 35.3792C120.528 35.611 120.44 35.7964 120.308 36.0282C120.22 36.26 120.044 36.4454 119.912 36.6308C119.737 36.8163 119.561 37.0017 119.297 37.1408C119.077 37.2798 118.813 37.4189 118.505 37.5116C118.197 37.6043 117.889 37.6507 117.538 37.6507C117.01 37.6507 116.57 37.558 116.174 37.3726C115.778 37.1871 115.47 36.9553 115.251 36.6772C114.987 36.399 114.811 36.0745 114.723 35.75C114.591 35.4255 114.547 35.101 114.547 34.7765C114.591 34.4984 114.635 34.1739 114.767 33.803ZM115.558 35.7964C115.69 36.1209 115.822 36.3527 116.042 36.5845C116.218 36.8163 116.482 37.0017 116.746 37.0944C117.01 37.2335 117.318 37.2798 117.625 37.2798C117.933 37.2798 118.241 37.2335 118.505 37.0944C118.769 36.9553 119.033 36.8163 119.253 36.5845C119.473 36.3527 119.605 36.0745 119.737 35.7964C119.868 35.4719 119.912 35.1474 119.912 34.7765C119.912 34.4057 119.868 34.0812 119.737 33.7567C119.605 33.4321 119.429 33.2004 119.253 32.9686C119.033 32.7368 118.813 32.5514 118.505 32.4586C118.241 32.3196 117.933 32.2732 117.625 32.2732C117.318 32.2732 117.01 32.3196 116.746 32.4586C116.482 32.5977 116.262 32.7368 116.042 32.9686C115.866 33.2004 115.69 33.4785 115.558 33.7567C115.426 34.0812 115.382 34.4057 115.382 34.7765C115.382 35.1474 115.426 35.5183 115.558 35.7964Z" fill="black"/>
<path d="M125.146 31.9951H127.125C127.388 31.9951 127.652 32.0415 127.828 32.1342C128.048 32.2269 128.18 32.3196 128.312 32.4587C128.444 32.5978 128.532 32.7368 128.62 32.8759C128.664 33.015 128.708 33.2004 128.708 33.3395C128.708 33.5249 128.664 33.664 128.576 33.8031C128.488 33.9421 128.4 34.0812 128.268 34.2203C128.136 34.313 128.004 34.4057 127.828 34.4984C127.652 34.5911 127.476 34.5912 127.301 34.5912V34.6375C127.432 34.6375 127.564 34.6839 127.74 34.6839C127.916 34.7302 128.136 34.7766 128.312 34.8693C128.488 34.962 128.664 35.1011 128.796 35.2865C128.928 35.4719 128.972 35.7037 128.972 36.0282C128.972 36.2137 128.928 36.3991 128.884 36.5845C128.796 36.77 128.708 36.9554 128.576 37.0945C128.444 37.2335 128.224 37.3726 128.004 37.4653C127.74 37.558 127.476 37.6044 127.125 37.6044H125.146V31.9951ZM126.817 34.4521C126.993 34.4521 127.125 34.4057 127.257 34.3594C127.388 34.313 127.52 34.2203 127.608 34.1276C127.696 34.0349 127.784 33.8958 127.872 33.8031C127.916 33.664 127.96 33.5249 127.96 33.3858C127.96 33.2468 127.96 33.1541 127.916 33.015C127.872 32.8759 127.828 32.7832 127.696 32.6905C127.608 32.5978 127.476 32.5051 127.345 32.4587C127.213 32.4123 127.037 32.366 126.817 32.366H125.893V34.4521H126.817ZM127.037 37.2335C127.213 37.2335 127.345 37.1872 127.52 37.1408C127.652 37.0945 127.784 37.0018 127.916 36.909C128.048 36.8163 128.136 36.6772 128.18 36.5382C128.224 36.3991 128.268 36.2137 128.268 36.0282C128.268 35.8428 128.224 35.7037 128.18 35.5183C128.136 35.3792 128.048 35.2402 127.916 35.1011C127.784 34.962 127.652 34.8693 127.432 34.8229C127.257 34.7766 127.037 34.7302 126.773 34.7302H125.893V37.1872H127.037V37.2335Z" fill="black"/>
<path d="M130.775 35.9355L130.072 37.6044H129.72L132.051 31.9951H132.446L135.041 37.6044H134.25L133.502 35.9355H130.775ZM132.095 32.8759L130.907 35.5647H133.326L132.095 32.8759Z" fill="black"/>
<path d="M143.485 31.9951V37.6044H136.404V31.9951H137.108V37.1408H139.571V31.9951H140.275V37.1408H142.737V31.9951H143.485Z" fill="black"/>
<path d="M149.159 31.9951V32.4123H146.3V34.4057H148.763V34.7766H146.3V37.0945H149.159V37.5117H145.597V31.9951H149.159Z" fill="black"/>
<path d="M154.569 31.9952H155.272V37.6044H154.569V32.5978L151.27 37.6044H150.566V31.9952H151.27V36.9554L154.569 31.9952ZM152.502 31.5779C152.37 31.5779 152.194 31.5316 152.062 31.4852C151.93 31.4389 151.798 31.3461 151.666 31.2534C151.578 31.1607 151.49 30.9753 151.49 30.7899V30.6971H152.238C152.238 30.7435 152.238 30.7435 152.238 30.7899C152.238 30.8362 152.238 30.8362 152.238 30.8826C152.238 30.9753 152.282 31.068 152.326 31.1607C152.37 31.2071 152.414 31.2534 152.502 31.2998C152.546 31.3461 152.633 31.3461 152.721 31.3461C152.809 31.3461 152.853 31.3461 152.897 31.3461C152.941 31.3461 152.985 31.3461 153.073 31.3461C153.161 31.3461 153.205 31.2998 153.293 31.2998C153.337 31.2534 153.425 31.2071 153.469 31.1607C153.513 31.1144 153.557 31.0216 153.557 30.8826C153.557 30.8362 153.557 30.8362 153.557 30.7899C153.557 30.7435 153.557 30.7435 153.557 30.6971H154.305V30.7899C154.305 30.9753 154.261 31.1607 154.129 31.2534C154.041 31.3461 153.909 31.4389 153.733 31.4852C153.601 31.5316 153.425 31.5779 153.293 31.5779C153.117 31.5779 153.029 31.5779 152.897 31.5779C152.765 31.5779 152.633 31.5779 152.502 31.5779Z" fill="black"/>
<path d="M160.33 31.9951H161.034V35.1474L163.98 31.9951H164.376L162.353 34.1739L164.816 37.6044H163.98L161.869 34.6839L160.99 35.6574V37.6044H160.286V31.9951H160.33Z" fill="black"/>
<path d="M166.971 37.6044H166.268V31.9951H168.115C168.423 31.9951 168.686 32.0415 168.906 32.1342C169.126 32.2269 169.302 32.366 169.478 32.5051C169.61 32.6441 169.742 32.8295 169.83 33.0613C169.918 33.2468 169.962 33.4786 169.962 33.7104C169.962 33.9421 169.918 34.1739 169.83 34.3594C169.742 34.5448 169.61 34.7302 169.434 34.9156C169.258 35.0547 169.082 35.1938 168.818 35.2865C168.555 35.3792 168.291 35.4256 167.983 35.4256C167.807 35.4256 167.631 35.4256 167.455 35.3792C167.279 35.3329 167.147 35.3329 167.015 35.2865V37.6044H166.971ZM166.971 34.9156C167.103 34.962 167.191 35.0084 167.323 35.0084C167.455 35.0084 167.631 35.0084 167.763 35.0084C167.983 35.0084 168.203 34.962 168.379 34.8693C168.555 34.7766 168.686 34.6839 168.818 34.5448C168.95 34.4057 168.994 34.2666 169.038 34.1276C169.082 33.9885 169.126 33.8031 169.126 33.664C169.126 33.5249 169.082 33.3395 169.038 33.2004C168.994 33.015 168.906 32.8759 168.774 32.7832C168.643 32.6441 168.511 32.5514 168.335 32.4587C168.159 32.366 167.983 32.3196 167.763 32.3196H166.927V34.9156H166.971Z" fill="black"/>
<path d="M171.896 35.9355L171.193 37.6044H170.841L173.172 31.9951H173.568L176.162 37.6044H175.415L174.667 35.9355H171.896ZM173.216 32.8759L172.028 35.5647H174.447L173.216 32.8759Z" fill="black"/>
<path d="M182.54 36.7699C182.453 36.8626 182.365 36.9554 182.233 37.0481C182.101 37.1408 181.925 37.2335 181.749 37.3262C181.573 37.4189 181.309 37.5117 181.045 37.558C180.781 37.6044 180.473 37.6507 180.122 37.6507C179.594 37.6507 179.11 37.558 178.758 37.4189C178.362 37.2335 178.055 37.0481 177.791 36.7699C177.527 36.4918 177.351 36.1673 177.219 35.8428C177.087 35.4719 177.043 35.1474 177.043 34.7302C177.043 34.313 177.131 33.8958 177.263 33.5712C177.395 33.2004 177.615 32.9222 177.879 32.6905C178.142 32.4587 178.45 32.2732 178.846 32.1342C179.242 31.9951 179.638 31.9487 180.122 31.9487C180.429 31.9487 180.737 31.9951 180.957 32.0415C181.221 32.0878 181.441 32.1805 181.617 32.3196C181.793 32.4123 181.969 32.5514 182.101 32.7368C182.233 32.9222 182.321 33.0613 182.409 33.2468H181.837C181.793 33.154 181.749 33.015 181.661 32.9222C181.573 32.8295 181.441 32.7368 181.309 32.6441C181.177 32.5514 181.001 32.505 180.825 32.4587C180.649 32.4123 180.429 32.3659 180.21 32.3659C179.858 32.3659 179.55 32.4123 179.286 32.5514C179.022 32.6905 178.758 32.8295 178.538 33.0613C178.318 33.2931 178.186 33.5249 178.055 33.8494C177.923 34.1275 177.879 34.4984 177.879 34.8229C177.879 35.1474 177.923 35.4719 178.055 35.7964C178.142 36.1209 178.318 36.3991 178.538 36.6309C178.758 36.8626 179.022 37.0481 179.33 37.1872C179.638 37.3262 179.99 37.4189 180.429 37.4189C181.177 37.4189 181.793 37.1408 182.365 36.6309L182.54 36.7699Z" fill="black"/>
<path d="M183.551 33.803C183.683 33.4785 183.859 33.154 184.079 32.8759C184.343 32.5977 184.65 32.3659 185.002 32.1805C185.354 31.9951 185.838 31.9023 186.366 31.9023C186.893 31.9023 187.333 31.9951 187.729 32.1805C188.125 32.3659 188.433 32.5977 188.697 32.8759C188.961 33.154 189.136 33.4785 189.268 33.803C189.4 34.1275 189.444 34.452 189.444 34.7765C189.444 34.962 189.4 35.1937 189.356 35.3792C189.312 35.611 189.224 35.7964 189.092 36.0282C189.004 36.26 188.829 36.4454 188.697 36.6308C188.521 36.8163 188.345 37.0017 188.081 37.1408C187.861 37.2798 187.597 37.4189 187.289 37.5116C186.981 37.6043 186.674 37.6507 186.322 37.6507C185.794 37.6507 185.354 37.558 184.958 37.3726C184.563 37.1871 184.255 36.9553 184.035 36.6772C183.771 36.399 183.595 36.0745 183.507 35.75C183.375 35.4255 183.331 35.101 183.331 34.7765C183.375 34.4984 183.419 34.1739 183.551 33.803ZM184.299 35.7964C184.431 36.1209 184.563 36.3527 184.782 36.5845C184.958 36.8163 185.222 37.0017 185.486 37.0944C185.75 37.2335 186.058 37.2798 186.366 37.2798C186.674 37.2798 186.981 37.2335 187.245 37.0944C187.509 36.9553 187.773 36.8163 187.993 36.5845C188.213 36.3527 188.345 36.0745 188.477 35.7964C188.609 35.4719 188.653 35.1474 188.653 34.7765C188.653 34.4057 188.609 34.0812 188.477 33.7567C188.345 33.4321 188.169 33.2004 187.993 32.9686C187.773 32.7368 187.553 32.5514 187.245 32.4586C186.981 32.3196 186.674 32.2732 186.366 32.2732C186.058 32.2732 185.75 32.3196 185.486 32.4586C185.222 32.5977 185.002 32.7368 184.782 32.9686C184.563 33.2004 184.431 33.4785 184.299 33.7567C184.167 34.0812 184.123 34.4057 184.123 34.7765C184.123 35.1474 184.211 35.5183 184.299 35.7964Z" fill="black"/>
<path d="M192.303 37.6044V32.4587H190.192V31.9951H195.162V32.4123H193.051V37.558H192.303V37.6044Z" fill="black"/>
<path d="M200.001 31.9951V32.4123H197.142V34.4057H199.605V34.7766H197.142V37.0945H200.001V37.5117H196.438V31.9951H200.001Z" fill="black"/>
<path d="M22.1075 5.47571C25.084 5.51759 28.1024 5.47571 31.0789 5.68514C32.4204 5.76891 33.7619 6.27154 34.9777 6.81605C36.6126 7.56999 37.8703 8.53337 38.4153 10.3345C38.5411 10.7114 38.9184 11.0884 39.2957 11.2559C41.1822 12.2193 42.6914 13.5597 44.1167 15.0675C45.7936 16.8267 46.129 18.921 45.9613 21.1829C45.4583 28.5129 41.8529 33.7486 35.2292 36.8481C34.8519 37.0157 34.5165 37.267 34.1812 37.5183C30.9951 40.4922 27.2221 42.0001 22.8202 42.0001C18.628 41.9582 14.9388 40.4503 11.7947 37.6021C11.3754 37.2251 10.8724 36.8481 10.3274 36.6387C3.28444 33.3716 -0.949712 25.6646 0.182189 18.0414C0.224112 17.6226 0.433726 17.2456 0.643337 16.8686C2.11062 14.4393 4.12289 12.5963 6.59631 11.2559C7.05745 11.0046 7.5186 10.5439 7.64436 10.0831C8.14743 8.44959 9.23741 7.48622 10.7885 6.81605C12.9685 5.89456 15.903 5.39193 18.8795 5.43382L22.1075 5.47571ZM17.3703 10.6277C15.7354 11.8842 14.0165 14.8162 13.6392 17.0362C13.1362 20.0101 14.1004 22.2719 16.6577 23.8217C20.4307 26.0835 24.3294 26.0835 28.312 24.4081C29.402 23.9473 29.6536 23.1096 29.4439 22.1462C29.3182 21.4761 28.9409 20.7221 28.4797 20.2195C27.7251 19.4237 26.8028 18.7535 25.8386 18.1671C24.1198 17.0781 22.3172 16.1147 20.6403 15.0257C19.0891 13.9366 17.7476 12.6382 17.3703 10.6277ZM28.0605 32.2826C17.9153 33.6229 9.27933 30.9422 2.36215 23.1096C3.66174 29.183 7.05744 33.4554 12.9266 35.3821C18.5441 37.267 23.6167 36.0523 28.0605 32.2826ZM43.6137 23.0677C40.2599 26.8374 38.4153 28.3872 34.6423 30.0208C33.0493 30.7328 31.7077 31.5705 30.5758 32.9109C29.6955 33.958 28.4378 34.7119 27.3478 35.5497C27.1382 35.7172 26.9705 35.8848 26.6771 36.0942C34.8938 36.9738 42.7752 30.9003 43.6137 23.0677ZM27.8928 9.87371C26.0902 12.5544 23.4491 12.5544 20.5983 12.1355C21.7302 13.057 22.9041 13.8529 24.0779 14.6068C26.9705 16.4079 30.3243 17.6645 31.7916 21.1829C33.4685 17.8739 31.4981 12.3869 27.8928 9.87371ZM20.0953 27.5076C23.491 29.7694 26.9286 30.2721 30.4082 28.5547C34.9358 26.3348 36.8642 22.3138 37.3673 17.4969C34.0135 24.8269 28.4797 28.3453 20.0953 27.5076ZM6.72207 13.9366C6.5963 13.8529 6.47054 13.7691 6.34477 13.7272C5.17095 15.0257 3.9552 16.3241 2.78138 17.6645C2.61369 17.8739 2.57176 18.3346 2.6556 18.6278C3.91327 22.3975 6.63822 24.9107 9.992 26.8793C7.14128 22.9421 6.09323 18.6278 6.72207 13.9366ZM39.3376 13.7691C39.9245 18.5859 38.9603 22.8164 36.2773 26.628C39.5891 24.7013 42.2302 22.1881 43.446 18.5022C43.5298 18.2927 43.5298 17.9995 43.4041 17.832C42.3979 16.1985 41.1822 14.8581 39.3376 13.7691ZM17.4542 7.56999C14.9808 7.61188 12.8846 8.11451 10.9981 9.24542C10.7466 9.37108 10.4531 9.66428 10.4112 9.9156C9.86623 12.5963 10.1178 15.1932 11.3754 17.7482C11.9624 13.5597 14.1423 10.3763 17.4542 7.56999ZM34.6423 17.7482C36.0257 15.7796 36.1934 11.591 35.6484 9.78994C35.6065 9.66428 35.5227 9.53862 35.4388 9.45485C34.3908 8.61714 30.2405 7.19302 28.8151 7.77942C31.8754 10.3763 34.0554 13.5597 34.6423 17.7482ZM8.81818 17.6226C9.11164 24.1986 14.1842 29.2668 18.7538 29.3506C17.6219 28.0521 16.5738 26.4605 15.1904 25.4133C12.2977 23.3609 10.1178 20.8897 8.81818 17.6226ZM16.8253 38.5235C20.0953 40.6597 26.8448 40.3665 28.9828 38.5235C27.264 38.2722 25.3775 37.979 23.4491 37.6858C23.1975 37.6439 22.9041 37.6439 22.6106 37.6858C20.6403 37.9371 18.6699 38.2303 16.8253 38.5235ZM22.946 10.3345C23.7844 10.0413 24.581 9.87371 25.3356 9.53862C25.9644 9.24542 26.0063 8.70091 25.4194 8.24017C24.3294 7.36057 21.6464 7.36057 20.5983 8.24017C20.0534 8.70091 20.0114 9.20354 20.6403 9.49674C21.311 9.87371 22.1495 10.0413 22.946 10.3345Z" fill="#F08597"/>
<path d="M22.9462 2.76984C22.9462 2.76984 18.5862 1.93213 20.85 0.591786C21.5627 0.172929 22.4012 -0.0365035 23.1977 0.00538221C23.7007 0.00538221 24.2457 0.0891549 24.7907 0.340469C24.8327 0.298584 27.9349 1.76459 22.9462 2.76984Z" fill="#F08597"/>
</svg>
