<svg width="334" height="283" viewBox="0 0 334 283" fill="none" xmlns="http://www.w3.org/2000/svg">
<g opacity="0.2" filter="url(#filter0_f_3540_9221)">
<path fill-rule="evenodd" clip-rule="evenodd" d="M286.649 228H192.774C182.148 228 167.926 228.648 161.985 229.546C122.754 235.48 76.6009 241.411 37.0506 247.394C31.1095 248.292 36.7685 248.94 47.3942 248.94H141.269C151.895 248.94 166.117 248.292 172.058 247.394C212.001 241.352 258.325 235.395 296.992 229.546C302.934 228.648 297.275 228 286.649 228Z" fill="url(#paint0_linear_3540_9221)"/>
</g>
<path fill-rule="evenodd" clip-rule="evenodd" d="M288.248 8.85645H194.373C183.747 8.85645 169.525 16.3427 163.584 26.7305C124.353 95.3237 85.1433 163.881 45.593 233.033C39.6519 243.421 45.3109 250.907 55.9366 250.907H149.812C160.437 250.907 174.66 243.421 180.601 233.033C220.543 163.196 259.924 94.3391 298.592 26.7305C304.533 16.3427 298.874 8.85645 288.248 8.85645Z" fill="#FAFAFA"/>
<path d="M298.986 12.9392L291.926 27.1781L286.12 20.3761L291.926 4.06594L298.986 12.9392Z" fill="#FAFAFA"/>
<path d="M38.5966 237.728L46.3368 225.201L52.1433 232.003L45.4333 246.201L38.5966 237.728Z" fill="#FAFAFA"/>
<path fill-rule="evenodd" clip-rule="evenodd" d="M187.418 0H281.293C291.919 0 297.578 7.48622 291.637 17.8741L270.998 53.9598C271.317 54.0785 271.41 54.3989 271.195 54.7754L257.51 78.7036C257.294 79.0802 256.834 79.4006 256.38 79.5193L173.646 224.176C167.705 234.564 153.482 242.051 142.857 242.051H48.9815C38.3559 242.051 32.6968 234.564 38.638 224.176C78.5802 154.339 117.961 85.4827 156.629 17.8741C162.57 7.48622 176.792 0 187.418 0Z" fill="#FAFAFA"/>
<path fill-rule="evenodd" clip-rule="evenodd" d="M186.757 1.15381H280.632C291.258 1.15381 295.59 8.64003 290.308 17.8747C250.838 86.8865 212.108 154.605 172.318 224.177C167.036 233.412 154.141 240.898 143.515 240.898H49.6398C39.0142 240.898 34.682 233.412 39.9636 224.177C80.1408 153.929 119.052 85.8933 157.954 17.8747C163.236 8.64003 176.131 1.15381 186.757 1.15381Z" fill="url(#paint1_linear_3540_9221)"/>
<path d="M243.37 7.75108C242.926 7.75108 242.745 7.43877 242.966 7.05352C243.187 6.66827 243.726 6.35596 244.17 6.35596C244.615 6.35596 244.795 6.66827 244.574 7.05352C244.353 7.43877 243.814 7.75108 243.37 7.75108Z" fill="#E8E8E8"/>
<path d="M223.282 7.95718H235.503C236.077 7.95718 236.777 7.55123 237.063 7.05379C237.348 6.55635 237.113 6.15039 236.54 6.15039H224.319C223.745 6.15039 223.044 6.55635 222.759 7.05379C222.474 7.55123 222.709 7.95718 223.282 7.95718Z" fill="#E8E8E8"/>
<mask id="mask0_3540_9221" style="mask-type:alpha" maskUnits="userSpaceOnUse" x="43" y="5" width="245" height="232">
<path fill-rule="evenodd" clip-rule="evenodd" d="M162.876 17.7694C162.73 17.9996 162.591 18.2314 162.457 18.4646L45.1968 222.881C41.0081 230.183 44.4441 236.102 52.8714 236.102H145.288C153.715 236.102 163.942 230.183 168.131 222.881L285.391 18.4646C285.407 18.4361 285.424 18.4076 285.44 18.3791C289.553 11.1165 286.111 5.24316 277.716 5.24316H259.51C258.468 5.24316 257.169 5.90363 256.532 7.01325C256.375 7.28716 255.662 8.50688 255.482 8.77521C253.347 11.9503 249.644 14.0096 246.268 14.0096H206.691C203.377 14.0096 201.996 12.039 203.409 8.9332C203.554 8.61375 204.265 7.34106 204.453 7.01325C205.09 5.90363 204.68 5.24316 203.506 5.24316H185.3C181.498 5.24316 177.329 6.44819 173.514 8.44153C172.044 9.20943 170.627 10.0943 169.303 11.0724C166.691 13.0028 164.443 15.2962 162.876 17.7694Z" fill="#F1F1F1"/>
</mask>
<g mask="url(#mask0_3540_9221)">
<rect width="122.933" height="266.145" transform="matrix(1 0 -0.49758 0.867418 170.187 5.2998)" fill="#F08597"/>
</g>
<circle r="8.11371" transform="matrix(1 0 -0.49758 0.867418 140.538 111.907)" fill="white"/>
<circle r="8.11371" transform="matrix(1 0 -0.49758 0.867418 171.744 111.907)" fill="white"/>
<circle r="8.11371" transform="matrix(1 0 -0.49758 0.867418 201.702 111.907)" fill="white"/>
<circle r="8.11371" transform="matrix(1 0 -0.49758 0.867418 125.01 138.976)" fill="white"/>
<circle r="8.11371" transform="matrix(1 0 -0.49758 0.867418 110.103 164.963)" fill="white"/>
<circle r="8.11371" transform="matrix(1 0 -0.49758 0.867418 156.216 138.976)" fill="white"/>
<circle r="8.11371" transform="matrix(1 0 -0.49758 0.867418 141.309 164.963)" fill="white"/>
<circle r="8.11371" transform="matrix(1 0 -0.49758 0.867418 125.782 192.032)" fill="white"/>
<circle r="8.11371" transform="matrix(1 0 -0.49758 0.867418 186.175 138.976)" fill="white"/>
<circle r="8.11371" transform="matrix(1 0 -0.49758 0.867418 171.268 164.963)" fill="white"/>
<path d="M208.326 47.2111C212.175 47.2586 216.134 47.2111 219.875 47.4487C221.568 47.5437 222.988 48.1138 224.217 48.7315C225.856 49.5867 226.868 50.6795 226.406 52.7225C226.324 53.1501 226.57 53.5777 226.953 53.7678C228.783 54.8606 229.877 56.3809 230.752 58.0914C231.792 60.0869 230.866 62.4625 229.176 65.0282C223.751 73.3428 215.648 79.2818 205.004 82.7977C204.403 82.9877 203.803 83.2728 203.202 83.5579C197.117 86.9312 191.222 88.6417 185.488 88.6417C180.055 88.5942 176.231 86.8837 173.989 83.6529C173.688 83.2253 173.278 82.7977 172.704 82.5601C165.656 78.8542 165.156 70.112 171.591 61.4647C171.918 60.9896 172.436 60.562 172.955 60.1344C176.447 57.3787 180.267 55.2882 184.361 53.7678C185.125 53.4827 186.025 52.9601 186.489 52.4374C188.207 50.5845 190.254 49.4917 192.71 48.7315C196.149 47.6862 200.299 47.1161 204.148 47.1636L208.326 47.2111ZM198.803 53.0551C195.856 54.4805 191.709 57.8063 189.773 60.3245C187.183 63.6978 186.967 66.2635 189.29 68.0214C192.732 70.5871 197.811 70.5871 204.088 68.6866C205.808 68.164 206.681 67.2137 207.034 66.1209C207.307 65.3607 207.306 64.5055 207.032 63.9354C206.567 63.0326 205.802 62.2725 204.927 61.6073C203.397 60.372 201.676 59.2792 200.201 58.0439C198.889 56.8086 197.986 55.3357 198.803 53.0551ZM198.637 77.6189C184.55 79.1393 175.046 76.0985 171.133 67.2137C168.873 74.103 170.516 78.9492 176.907 81.1348C182.998 83.2728 190.396 81.895 198.637 77.6189ZM224.891 67.1662C218.07 71.4423 214.659 73.2002 208.682 75.0532C206.143 75.8609 203.851 76.8112 201.504 78.3315C199.676 79.5193 197.547 80.3746 195.583 81.3248C195.201 81.5149 194.873 81.7049 194.355 81.9425C204.485 82.9402 218.703 76.051 224.891 67.1662ZM213 52.1999C208.907 55.2407 205.467 55.2407 202.026 54.7655C202.901 55.8108 203.912 56.7135 204.951 57.5688C207.546 59.6118 211.097 61.0371 210.719 65.0282C215.056 61.2747 216.06 55.0506 213 52.1999ZM191.369 72.2025C194.32 74.7681 198.471 75.3383 204.12 73.3903C211.462 70.8721 216.59 66.311 220.38 60.8471C211.242 69.1617 201.745 73.1527 191.369 72.2025ZM182.78 56.8086C182.671 56.7135 182.562 56.6185 182.425 56.571C180.051 58.0439 177.623 59.5168 175.222 61.0371C174.867 61.2747 174.513 61.7973 174.431 62.1299C173.616 66.406 175.53 69.2567 178.618 71.4898C177.467 67.0237 178.909 62.1299 182.78 56.8086ZM225.372 56.6185C223.002 62.0824 218.994 66.8811 213.019 71.2047C218.586 69.0192 223.662 66.1684 227.644 61.9874C227.889 61.7498 228.08 61.4172 228.025 61.2272C227.777 59.3742 227.066 57.8538 225.372 56.6185ZM200.902 49.5867C197.653 49.6342 194.596 50.2044 191.402 51.4872C190.993 51.6297 190.42 51.9623 190.202 52.2474C187.748 55.2882 186.386 58.2339 186.361 61.1322C189.851 56.3809 194.762 52.77 200.902 49.5867ZM216.667 61.1322C219.75 58.8991 222.694 54.1479 223.156 52.1049C223.183 51.9623 223.156 51.8198 223.101 51.7248C222.281 50.7745 217.802 49.1591 215.564 49.8243C217.86 52.77 218.628 56.3809 216.667 61.1322ZM183.112 60.9896C179.215 68.449 182.525 74.198 188.422 74.293C187.793 72.8201 187.463 71.0147 186.343 69.8269C183.91 67.4988 182.679 64.6956 183.112 60.9896ZM179.942 84.6982C182.811 87.1213 191.793 86.7887 195.777 84.6982C193.702 84.4131 191.435 84.0805 189.114 83.7479C188.814 83.7004 188.432 83.7004 188.022 83.7479C185.292 84.033 182.535 84.3656 179.942 84.6982ZM206.256 52.7225C207.539 52.3899 208.686 52.1999 209.887 51.8198C210.896 51.4872 211.305 50.8695 210.841 50.3469C209.993 49.3492 206.499 49.3492 204.561 50.3469C203.551 50.8695 203.17 51.4397 203.798 51.7723C204.427 52.1999 205.41 52.3899 206.256 52.7225Z" fill="white"/>
<path d="M211.179 44.1418C211.179 44.1418 206.045 43.1915 209.866 41.6711C211.067 41.196 212.295 40.9585 213.305 41.006C213.96 41.006 214.616 41.101 215.162 41.3861C215.244 41.3386 218.331 43.0015 211.179 44.1418Z" fill="white"/>
<rect width="12.5868" height="2.64882" transform="matrix(-0.627148 -0.7789 1 0 62.0088 249.994)" fill="#EDEDED"/>
<rect width="2.43011" height="2.43011" rx="1.21506" transform="matrix(-0.627148 -0.7789 1 0 68.209 246.174)" fill="#EDEDED"/>
<rect width="2.43011" height="2.43011" rx="1.21506" transform="matrix(-0.627148 -0.7789 1 0 72.7217 246.174)" fill="#EDEDED"/>
<rect width="2.43011" height="2.43011" rx="1.21506" transform="matrix(-0.627148 -0.7789 1 0 77.2354 246.174)" fill="#EDEDED"/>
<rect width="2.43011" height="2.43011" rx="1.21506" transform="matrix(-0.627148 -0.7789 1 0 86.2607 246.173)" fill="#D4D4D4"/>
<rect width="3.47159" height="15.275" rx="1.7358" transform="matrix(-0.627148 -0.7789 1 0 93.0439 246.444)" fill="#D4D4D4"/>
<rect width="2.43011" height="2.43011" rx="1.21506" transform="matrix(-0.627148 -0.7789 1 0 112.236 246.173)" fill="#D4D4D4"/>
<rect width="2.43011" height="2.43011" rx="1.21506" transform="matrix(-0.627148 -0.7789 1 0 121.317 246.174)" fill="#EDEDED"/>
<rect width="2.43011" height="2.43011" rx="1.21506" transform="matrix(-0.627148 -0.7789 1 0 125.83 246.174)" fill="#EDEDED"/>
<rect width="2.43011" height="2.43011" rx="1.21506" transform="matrix(-0.627148 -0.7789 1 0 130.344 246.174)" fill="#EDEDED"/>
<rect width="2.43011" height="2.43011" rx="1.21506" transform="matrix(-0.627148 -0.7789 1 0 134.856 246.174)" fill="#EDEDED"/>
<rect width="2.43011" height="2.43011" rx="1.21506" transform="matrix(-0.627148 -0.7789 1 0 139.37 246.174)" fill="#EDEDED"/>
<rect width="4.51307" height="31.8455" rx="2.25653" transform="matrix(0.707107 0.707107 -0.49758 0.867418 260.404 77.439)" fill="#D4D4D4"/>
<rect width="4.51307" height="31.8455" rx="2.25653" transform="matrix(0.707107 0.707107 -0.49758 0.867418 261.099 77.439)" fill="#EDEDED"/>
<path d="M178.903 211.685L187.109 221.28L185.571 223.961L177.365 214.366L178.903 211.685Z" fill="#EDEDED"/>
<path d="M284.695 27.2607L292.901 36.8553L291.363 39.5366L283.157 29.9421L284.695 27.2607Z" fill="#EDEDED"/>
<defs>
<filter id="filter0_f_3540_9221" x="0.642578" y="194" width="332.758" height="88.9399" filterUnits="userSpaceOnUse" color-interpolation-filters="sRGB">
<feFlood flood-opacity="0" result="BackgroundImageFix"/>
<feBlend mode="normal" in="SourceGraphic" in2="BackgroundImageFix" result="shape"/>
<feGaussianBlur stdDeviation="17" result="effect1_foregroundBlur_3540_9221"/>
</filter>
<linearGradient id="paint0_linear_3540_9221" x1="163.55" y1="228" x2="244.669" y2="228" gradientUnits="userSpaceOnUse">
<stop stop-color="#393742"/>
<stop offset="1" stop-color="#393742" stop-opacity="0"/>
</linearGradient>
<linearGradient id="paint1_linear_3540_9221" x1="233.556" y1="1.14792" x2="199.449" y2="339.404" gradientUnits="userSpaceOnUse">
<stop stop-color="#F5F5F5"/>
<stop offset="1" stop-color="#EBEBEB"/>
</linearGradient>
</defs>
</svg>
