<svg width="452" height="466" viewBox="0 0 452 466" fill="none" xmlns="http://www.w3.org/2000/svg">
<path d="M260.004 64.4034C295.01 64.8961 330.509 64.4034 365.515 66.8667C381.292 67.852 397.07 73.7639 411.368 80.1684C430.597 89.0362 445.388 100.367 451.797 121.552C453.277 125.986 457.714 130.419 462.151 132.39C484.338 143.721 502.088 159.486 518.851 177.222C538.573 197.913 542.517 222.546 540.545 249.15C534.629 335.365 492.227 396.947 414.326 433.403C409.889 435.374 405.945 438.33 402 441.286C364.529 476.264 320.155 494 268.386 494C219.081 493.507 175.694 475.772 138.716 442.271C133.785 437.837 127.869 433.403 121.459 430.94C38.6279 392.513 -11.1694 301.864 2.14271 212.2C2.63575 207.274 5.10099 202.84 7.5662 198.406C24.8227 169.832 48.4888 148.155 77.5783 132.39C83.0018 129.434 88.4252 124.015 89.9044 118.596C95.8209 99.382 108.64 88.0509 126.883 80.1684C152.521 69.33 187.034 63.4181 222.04 63.9107L260.004 64.4034ZM204.29 125C185.061 139.78 164.847 174.266 160.409 200.377C154.493 235.355 165.833 261.959 195.908 280.187C240.282 306.79 286.135 306.79 332.974 287.084C345.793 281.665 348.752 271.812 346.286 260.481C344.807 252.598 340.37 243.73 334.946 237.819C326.072 228.458 315.225 220.576 303.885 213.678C283.67 200.869 262.469 189.538 242.748 176.729C224.505 163.92 208.728 148.648 204.29 125ZM330.016 379.704C210.7 395.469 109.133 363.939 27.781 271.812C43.0653 343.247 83.0016 393.498 152.028 416.16C218.095 438.33 277.753 424.043 330.016 379.704ZM512.935 271.319C473.491 315.658 451.797 333.887 407.424 353.1C388.688 361.475 372.911 371.328 359.599 387.093C349.245 399.41 334.453 408.278 321.634 418.131C319.169 420.101 317.197 422.072 313.746 424.535C410.382 434.881 503.074 363.446 512.935 271.319ZM328.044 116.132C306.843 147.662 275.781 147.662 242.254 142.736C255.567 153.574 269.372 162.935 283.177 171.803C317.197 192.987 356.64 207.766 373.897 249.15C393.618 210.23 370.445 145.692 328.044 116.132ZM236.338 323.541C276.274 350.144 316.704 356.056 357.626 335.857C410.875 309.746 433.555 262.451 439.471 205.796C400.028 292.011 334.946 333.394 236.338 323.541ZM79.0574 163.92C77.5782 162.935 76.0991 161.949 74.62 161.457C60.8148 176.729 46.5166 192.002 32.7114 207.767C30.7392 210.23 30.2461 215.649 31.2322 219.098C46.0235 263.437 78.0712 292.996 117.515 316.151C83.9877 269.841 71.6617 219.098 79.0574 163.92ZM462.644 161.949C469.547 218.605 458.207 268.363 426.652 313.195C465.603 290.533 496.664 260.973 510.963 217.62C511.949 215.156 511.949 211.708 510.47 209.737C498.636 190.524 484.338 174.758 462.644 161.949ZM205.276 89.0362C176.187 89.5289 151.535 95.4408 129.348 108.743C126.39 110.22 122.938 113.669 122.445 116.625C116.035 148.155 118.994 178.7 133.785 208.752C140.688 159.486 166.326 122.044 205.276 89.0362ZM407.424 208.752C423.694 185.597 425.666 136.331 419.257 115.147C418.764 113.669 417.778 112.191 416.791 111.206C404.465 101.353 355.654 84.6023 338.891 91.4995C374.883 122.044 400.521 159.486 407.424 208.752ZM103.709 207.274C107.161 284.621 166.819 344.232 220.561 345.218C207.248 329.945 194.922 311.224 178.652 298.908C144.632 274.768 118.994 245.701 103.709 207.274ZM197.881 453.109C236.338 478.235 315.718 474.786 340.863 453.109C320.648 450.153 298.461 446.705 275.781 443.256C272.823 442.764 269.372 442.764 265.92 443.256C242.747 446.212 219.575 449.661 197.881 453.109ZM269.865 121.552C279.726 118.103 289.093 116.132 297.968 112.191C305.364 108.742 305.857 102.338 298.954 96.9188C286.135 86.573 254.581 86.573 242.254 96.9188C235.845 102.338 235.352 108.25 242.748 111.698C250.636 116.132 260.497 118.103 269.865 121.552Z" fill="#FFD9DF"/>
<path d="M269.867 32.5772C269.867 32.5772 218.59 22.7241 245.215 6.95911C253.596 2.03254 263.457 -0.430787 272.825 0.0618693C278.741 0.0618693 285.151 1.0472 291.561 4.00314C292.054 3.51048 328.539 20.7535 269.867 32.5772Z" fill="#FFD9DF"/>
</svg>
