<svg width="391" height="609" viewBox="0 0 391 609" fill="none" xmlns="http://www.w3.org/2000/svg">
<path d="M320.559 79.3961C363.718 80.0034 407.485 79.3961 450.644 82.4328C470.096 83.6475 489.548 90.9356 507.176 98.8311C530.883 109.763 549.12 123.732 557.022 149.848C558.846 155.314 564.317 160.78 569.787 163.21C597.142 177.178 619.025 196.613 639.693 218.478C664.008 243.986 668.871 274.353 666.439 307.15C659.145 413.435 606.868 489.353 510.824 534.297C505.353 536.726 500.49 540.37 495.627 544.014C449.428 587.136 394.72 609 330.893 609C270.106 608.393 216.613 586.528 171.023 545.229C164.944 539.763 157.649 534.297 149.747 531.26C47.6244 483.887 -13.7708 372.136 2.64175 261.599C3.24962 255.526 6.28902 250.06 9.32839 244.594C30.6039 209.368 59.7819 182.645 95.6464 163.21C102.333 159.566 109.02 152.885 110.843 146.204C118.138 122.518 133.942 108.549 156.434 98.8311C188.043 85.4695 230.594 78.1814 273.753 78.7887L320.559 79.3961ZM251.87 154.099C228.163 172.32 203.24 214.834 197.769 247.023C190.475 290.144 204.456 322.941 241.536 345.413C296.245 378.209 352.777 378.209 410.525 353.915C426.329 347.235 429.977 335.088 426.937 321.119C425.114 311.401 419.643 300.469 412.956 293.181C402.014 281.642 388.641 271.924 374.66 263.421C349.737 247.63 323.599 233.661 299.284 217.871C276.793 202.08 257.341 183.252 251.87 154.099ZM406.877 468.096C259.772 487.531 134.55 448.661 34.2512 335.088C53.0953 423.153 102.333 485.102 187.435 513.04C268.89 540.37 342.443 522.757 406.877 468.096ZM632.398 334.481C583.768 389.141 557.022 411.613 502.313 435.3C479.214 445.624 459.762 457.771 443.35 477.206C430.584 492.39 412.348 503.322 396.544 515.469C393.504 517.898 391.073 520.328 386.818 523.364C505.961 536.119 620.241 448.054 632.398 334.481ZM404.446 143.167C378.307 182.037 340.011 182.037 298.676 175.964C315.089 189.325 332.109 200.865 349.129 211.797C391.073 237.913 439.702 256.133 460.978 307.15C485.293 259.17 456.723 179.608 404.446 143.167ZM291.381 398.859C340.619 431.656 390.465 438.944 440.918 414.043C506.569 381.853 534.531 323.548 541.825 253.704C493.195 359.989 412.956 411.006 291.381 398.859ZM97.47 202.08C95.6464 200.865 93.8228 199.65 91.9992 199.043C74.9787 217.87 57.3504 236.698 40.33 256.133C37.8985 259.17 37.2905 265.851 38.5062 270.102C56.7424 324.763 96.2542 361.204 144.884 389.749C103.549 332.659 88.3519 270.102 97.47 202.08ZM570.395 199.65C578.905 269.495 564.924 330.836 526.02 386.105C574.042 358.167 612.339 321.726 629.967 268.28C631.183 265.243 631.182 260.992 629.359 258.563C614.77 234.876 597.142 215.441 570.395 199.65ZM253.086 109.763C217.221 110.371 186.827 117.659 159.473 134.057C155.826 135.879 151.571 140.131 150.963 143.775C143.06 182.645 146.708 220.3 164.944 257.348C173.454 196.613 205.064 150.455 253.086 109.763ZM502.313 257.348C522.373 228.803 524.805 168.068 516.902 141.953C516.294 140.131 515.079 138.308 513.863 137.094C498.666 124.947 438.487 104.297 417.819 112.8C462.194 150.455 493.803 196.613 502.313 257.348ZM127.864 255.526C132.119 350.879 205.671 424.367 271.93 425.582C255.517 406.754 240.32 383.675 220.26 368.492C178.317 338.732 146.708 302.899 127.864 255.526ZM243.967 558.59C291.382 589.565 389.249 585.313 420.251 558.59C395.328 554.946 367.973 550.695 340.011 546.443C336.364 545.836 332.109 545.836 327.854 546.443C299.284 550.088 270.714 554.339 243.967 558.59ZM332.717 149.848C344.874 145.597 356.424 143.167 367.366 138.308C376.484 134.057 377.092 126.162 368.581 119.481C352.777 106.727 313.873 106.727 298.676 119.481C290.774 126.162 290.166 133.45 299.284 137.701C309.01 143.167 321.167 145.597 332.717 149.848Z" fill="#FFD9DF"/>
<path d="M332.719 40.161C332.719 40.161 269.5 28.0141 302.326 8.57914C312.659 2.5057 324.817 -0.531072 336.366 0.0762721C343.661 0.0762721 351.563 1.29098 359.466 4.93504C360.073 4.3277 405.056 25.5848 332.719 40.161Z" fill="#FFD9DF"/>
</svg>
