<svg width="24" height="24" viewBox="0 0 24 24" fill="none" xmlns="http://www.w3.org/2000/svg">
<path d="M21.4245 14.1232C21.5687 13.4729 21.6454 12.7978 21.6454 12.105C21.6454 6.91053 17.3747 2.6994 12.1064 2.6994C11.5502 2.6994 11.0052 2.7468 10.475 2.837C9.62249 2.3074 8.61386 2 7.53194 2C4.47669 2 2 4.44233 2 7.4544C2 8.46133 2.27782 9.40373 2.76036 10.2134C2.63386 10.8245 2.5674 11.4569 2.5674 12.1049C2.5674 17.2994 6.8381 21.5105 12.1064 21.5105C12.7031 21.5105 13.2868 21.4561 13.853 21.3527C14.6318 21.7654 15.5222 22 16.4681 22C19.5234 22 22 19.5579 22 16.5456C22 15.6751 21.7922 14.8531 21.4245 14.1232ZM16.9987 16.5999C16.5574 17.2156 15.9054 17.7035 15.0607 18.0498C14.2241 18.3927 13.2213 18.5665 12.0798 18.5665C10.7097 18.5665 9.56104 18.3289 8.6645 17.86C8.02361 17.5186 7.49509 17.0563 7.09395 16.4858C6.68875 15.9095 6.48321 15.3376 6.48321 14.7862C6.48321 14.4415 6.61708 14.1427 6.88117 13.8982C7.14249 13.6558 7.47737 13.533 7.87669 13.533C8.20447 13.533 8.48716 13.6301 8.71704 13.8215C8.93657 14.005 9.12501 14.2765 9.27639 14.6271C9.44542 15.0088 9.62973 15.3311 9.82438 15.585C10.0115 15.8292 10.2806 16.0345 10.6244 16.1947C10.9702 16.3561 11.4364 16.4379 12.0098 16.4379C12.7984 16.4379 13.4449 16.2719 13.9313 15.9445C14.4062 15.6247 14.6372 15.2408 14.6372 14.7709C14.6372 14.3995 14.5166 14.1077 14.2688 13.8787C14.0092 13.6393 13.6668 13.453 13.2509 13.3252C12.8174 13.1919 12.2288 13.0482 11.5008 12.8979C10.5146 12.6897 9.67631 12.4426 9.00865 12.1633C9.00608 12.1623 9.00344 12.1613 9.00087 12.1601C8.31684 11.8733 7.76553 11.4755 7.36223 10.9777C6.95257 10.4723 6.745 9.83813 6.745 9.09273C6.745 8.3822 6.96291 7.74173 7.39272 7.18927C7.81929 6.64067 8.44226 6.21433 9.24427 5.9218C10.0359 5.63313 10.9776 5.48687 12.0431 5.48687C12.895 5.48687 13.644 5.58387 14.2692 5.77553C14.8979 5.9686 15.428 6.22933 15.8445 6.55013C16.264 6.87333 16.576 7.21913 16.772 7.57827C16.97 7.941 17.0703 8.302 17.0703 8.6512C17.0703 8.98727 16.9387 9.29267 16.6791 9.55887C16.4179 9.8266 16.0883 9.96253 15.6994 9.96253C15.3461 9.96253 15.0696 9.87753 14.8778 9.70993C14.6992 9.55433 14.5141 9.31173 14.3085 8.96267C14.0706 8.51707 13.7828 8.1658 13.4525 7.91827C13.132 7.67787 12.5961 7.5558 11.8599 7.5558C11.1761 7.5558 10.62 7.69113 10.2071 7.95807C9.80924 8.21527 9.61594 8.5102 9.61594 8.8596C9.61594 9.07393 9.67814 9.253 9.80613 9.40713C9.94169 9.5704 10.1329 9.7138 10.3746 9.833C10.6253 9.95727 10.8837 10.056 11.1425 10.1265C11.4076 10.199 11.8524 10.3065 12.4624 10.4454C13.1051 10.5815 13.7037 10.7313 14.2486 10.8917C14.358 10.9239 14.4662 10.9565 14.5711 10.9896C15.2064 11.1901 15.7553 11.4373 16.203 11.7244C16.6599 12.0178 17.0217 12.3946 17.2784 12.8444C17.5358 13.2958 17.6662 13.8532 17.6662 14.5007C17.6661 15.2757 17.4415 15.9818 16.9987 16.5999Z" fill="black"/>
</svg>
