<svg width="16" height="16" viewBox="0 0 16 16" fill="none" xmlns="http://www.w3.org/2000/svg">
<path d="M1.38481 7.75393L4.54484 8.93922L5.76797 12.8923C5.84623 13.1455 6.1543 13.2391 6.35878 13.0711L8.12023 11.628C8.30487 11.4768 8.56787 11.4693 8.76083 11.61L11.9379 13.9281C12.1566 14.0879 12.4665 13.9674 12.5214 13.7018L14.8487 2.45112C14.9086 2.16095 14.6249 1.91889 14.35 2.02575L1.38111 7.05364C1.06106 7.17768 1.06385 7.63305 1.38481 7.75393ZM5.57085 8.30826L11.7467 4.4856C11.8577 4.4171 11.9719 4.56792 11.8766 4.65678L6.77971 9.41816C6.60056 9.58575 6.485 9.81004 6.45226 10.0535L6.27864 11.3466C6.25565 11.5192 6.01432 11.5363 5.96692 11.3692L5.29917 9.0113C5.22269 8.74236 5.33414 8.45508 5.57085 8.30826Z" fill="#323232"/>
</svg>
