<svg width="16" height="16" viewBox="0 0 16 16" fill="none" xmlns="http://www.w3.org/2000/svg">
<path d="M8 1.33337C6.39659 1.33337 5.09677 2.69181 5.09677 4.36753C5.09677 6.04325 6.39659 7.40168 8 7.40168C9.60341 7.40168 10.9032 6.04325 10.9032 4.36753C10.9032 2.69181 9.60341 1.33337 8 1.33337Z" fill="black"/>
<path d="M4.90323 9.0199C3.29982 9.0199 2 10.3783 2 12.0541V13.0155C2 13.6249 2.42262 14.1446 2.99815 14.2428C6.31079 14.808 9.68921 14.808 13.0019 14.2428C13.5774 14.1446 14 13.6249 14 13.0155V12.0541C14 10.3783 12.7002 9.0199 11.0968 9.0199H10.8329C10.69 9.0199 10.5481 9.0435 10.4123 9.08984L9.74225 9.31851C8.61016 9.70484 7.38984 9.70484 6.25774 9.31851L5.58767 9.08984C5.45189 9.0435 5.30996 9.0199 5.16712 9.0199H4.90323Z" fill="black"/>
</svg>
