<svg width="16" height="16" viewBox="0 0 16 16" fill="none" xmlns="http://www.w3.org/2000/svg">
<path fill-rule="evenodd" clip-rule="evenodd" d="M8.12706 14.6391C11.923 14.6391 14.9996 11.5859 14.9996 7.81954C14.9996 4.05317 11.9233 1 8.12706 1C4.33129 1 1.25433 4.05317 1.25433 7.81954C1.25433 9.10797 1.61474 10.3132 2.24052 11.3408L1 14.9996L4.80495 13.7905C5.7899 14.3311 6.92201 14.6391 8.12706 14.6391ZM11.3394 9.55908C11.4636 9.62352 11.5475 9.66704 11.5836 9.73099C11.6278 9.81044 11.6278 10.1919 11.4802 10.6374C11.3316 11.0822 10.6064 11.5114 10.2811 11.5432C10.2253 11.5486 10.1791 11.5606 10.1317 11.5729C9.90243 11.6324 9.64613 11.6989 8.14971 11.0668C6.48117 10.3616 5.38137 8.61107 5.15408 8.2493C5.13542 8.2196 5.12264 8.19926 5.11591 8.18963L5.11562 8.18921C5.02547 8.06066 4.39075 7.15552 4.39075 6.21872C4.39075 5.34136 4.79233 4.88123 4.97725 4.66934C4.98996 4.65478 5.00164 4.64139 5.01211 4.62911C5.17495 4.43846 5.36747 4.39075 5.48587 4.39075C5.54707 4.39075 5.6083 4.39502 5.66748 4.39914C5.7228 4.40299 5.77632 4.40671 5.82631 4.40671C5.83873 4.40671 5.85177 4.40581 5.86537 4.40486C5.96547 4.39789 6.09557 4.38883 6.22579 4.72453C6.2732 4.84686 6.34194 5.02633 6.41493 5.21688C6.56964 5.62082 6.74343 6.07455 6.77352 6.13926C6.81812 6.23486 6.8478 6.34606 6.78827 6.47322C6.77982 6.49151 6.77196 6.50881 6.76445 6.52536C6.71969 6.624 6.68709 6.69583 6.61084 6.79121C6.58144 6.82806 6.55105 6.86775 6.52065 6.90746C6.45929 6.9876 6.39786 7.06783 6.34436 7.12498C6.25564 7.21987 6.16298 7.32291 6.26646 7.51356C6.3701 7.70457 6.72661 8.32814 7.2545 8.83324C7.82235 9.37655 8.31576 9.60625 8.56555 9.72254C8.61419 9.74519 8.65359 9.76353 8.68251 9.77905C8.86028 9.87447 8.96375 9.85851 9.0674 9.73099C9.1712 9.60383 9.51164 9.17481 9.62988 8.98398C9.74811 8.79333 9.86684 8.82525 10.0297 8.88875C10.192 8.95206 11.0654 9.41335 11.2432 9.50859C11.2775 9.527 11.3096 9.54364 11.3394 9.55908Z" fill="#323232"/>
</svg>
