<svg width="25" height="24" viewBox="0 0 25 24" fill="none" xmlns="http://www.w3.org/2000/svg">
<path fill-rule="evenodd" clip-rule="evenodd" d="M4.50223 4.01306C3.58708 4.13585 2.85367 4.75694 2.57834 5.64232C2.50469 5.87916 2.5 6.12825 2.5 9.81905C2.5 13.5098 2.50469 13.7589 2.57834 13.9958C2.81588 14.7596 3.37672 15.3174 4.14013 15.5491C4.29571 15.5963 4.59272 15.6277 5.02409 15.6426L5.67375 15.6651L5.67392 16.8244C5.67405 17.8932 5.68044 17.9939 5.7558 18.1157C5.86712 18.2955 6.08391 18.3656 6.27966 18.285C6.35916 18.2523 7.30493 17.6469 8.38133 16.9397C10.0788 15.8244 10.3596 15.6539 10.4982 15.6539H10.658L10.6583 16.1051C10.6586 16.6863 10.7105 16.987 10.8673 17.3173C11.1074 17.8229 11.633 18.2051 12.2178 18.2994C12.3557 18.3217 13.1602 18.34 14.0056 18.3402L15.5426 18.3404L17.3453 19.6723C19.029 20.9164 19.159 21.0039 19.3166 20.9999C19.4455 20.9965 19.517 20.9644 19.6193 20.8636L19.7533 20.7316L19.7658 19.536L19.7783 18.3404L20.2344 18.3402C20.8224 18.3399 21.1278 18.2886 21.4628 18.1342C21.9758 17.8976 22.3637 17.3797 22.4595 16.8035C22.5135 16.4782 22.5135 11.2195 22.4595 10.8942C22.3637 10.318 21.9758 9.80012 21.4628 9.56353C21.1279 9.40914 20.8224 9.35785 20.2355 9.35755L19.7804 9.3573L19.7644 7.60476C19.7504 6.06277 19.7394 5.82446 19.6723 5.62134C19.4231 4.86671 18.888 4.33864 18.1132 4.08279C17.8898 4.00899 17.5706 4.00517 11.2544 4.00064C7.61102 3.99804 4.57252 4.00362 4.50223 4.01306ZM18.0706 5.02761C18.3317 5.16236 18.5666 5.39075 18.7026 5.64232L18.8161 5.85221V9.81905V13.7859L18.7026 13.9958C18.5666 14.2473 18.3317 14.4757 18.0706 14.6105L17.8789 14.7094L13.9759 14.7304L10.073 14.7514L8.33131 15.8952L6.58967 17.039L6.56837 16.0169C6.54592 14.9406 6.54144 14.9169 6.33756 14.8015C6.27975 14.7688 5.9225 14.7439 5.31165 14.7298C4.43475 14.7096 4.36208 14.7019 4.18273 14.6099C3.92205 14.4762 3.6869 14.2478 3.5507 13.9958L3.43722 13.7859V9.81905V5.85221L3.53758 5.66331C3.71842 5.32296 4.03967 5.05469 4.39573 4.94672C4.45431 4.92896 7.51197 4.91763 11.1905 4.92158L17.8789 4.92871L18.0706 5.02761ZM12.7185 7.6482C12.6685 7.67624 12.1822 8.22564 11.6379 8.86907L10.6482 10.0389L10.1525 9.55703C9.87993 9.29198 9.6095 9.04419 9.55157 9.00633C9.26376 8.81832 8.86881 9.01586 8.86881 9.34777C8.86881 9.57159 8.98004 9.71087 9.77054 10.4767C10.4655 11.1499 10.5819 11.2207 10.837 11.1251C10.9083 11.0984 11.3904 10.5637 12.1196 9.70277C12.7622 8.94399 13.3097 8.28323 13.3362 8.23433C13.4908 7.94981 13.2874 7.59288 12.9724 7.59573C12.8827 7.59657 12.7685 7.62016 12.7185 7.6482ZM21.1629 10.4166C21.2545 10.4796 21.3774 10.601 21.436 10.6863L21.5425 10.8413V13.8489V16.8564L21.436 17.0114C21.3774 17.0967 21.2545 17.2181 21.1629 17.2812C20.9967 17.3957 20.9942 17.396 20.0766 17.4169C19.3889 17.4326 19.1343 17.4527 19.0673 17.4966C18.8713 17.6251 18.8597 17.6848 18.8374 18.6824L18.8161 19.6331L17.4741 18.6466C16.7361 18.104 16.057 17.6101 15.965 17.549L15.7979 17.4379L13.9809 17.4169L12.1639 17.3959L12.0067 17.291C11.9202 17.2333 11.7971 17.1122 11.733 17.0219C11.6214 16.8646 11.616 16.8329 11.6028 16.2576L11.589 15.6574L14.7339 15.6441C17.6392 15.6318 17.8967 15.625 18.1132 15.5543C18.8845 15.3029 19.423 14.7718 19.6723 14.0168C19.7394 13.8136 19.7504 13.5752 19.7645 12.0303L19.7805 10.2747L20.3884 10.2882C20.971 10.3012 21.0033 10.3066 21.1629 10.4166Z" fill="black"/>
</svg>
