<svg width="25" height="24" viewBox="0 0 25 24" fill="none" xmlns="http://www.w3.org/2000/svg">
<g clip-path="url(#clip0_4016_867)">
<path fill-rule="evenodd" clip-rule="evenodd" d="M15.7112 5.06108C13.8215 5.35444 11.9813 6.42543 10.876 7.8753L10.6394 8.18561L10.4565 8.00039C10.0202 7.5586 9.65569 7.44944 8.61271 7.44838C7.57854 7.44731 7.35523 7.39644 6.47749 6.96234C5.60326 6.52995 5.16985 6.41149 4.55892 6.43803C4.20295 6.45346 4.08107 6.48047 3.81777 6.60236C3.45336 6.771 3.10353 7.07654 2.82167 7.47233C2.57927 7.81276 2.44493 8.06344 1.90886 9.17567C1.67838 9.65383 1.38193 10.2216 1.25003 10.4375C0.0883124 12.3383 0.25683 13.4369 1.89058 14.6136C2.44437 15.0125 2.6637 15.2437 2.74601 15.5152C2.7957 15.6791 2.78932 15.7779 2.70087 16.217C2.60988 16.6686 2.60426 16.7664 2.65235 17.0574C2.76068 17.713 3.12617 18.2683 3.69829 18.6465C4.21603 18.9887 4.61278 19.101 5.3048 19.101C5.82278 19.101 5.88798 19.0909 6.12826 18.9743C6.2718 18.9046 6.59275 18.6711 6.84152 18.4553C7.13707 18.1989 7.35523 18.047 7.4712 18.0169C7.56875 17.9916 7.95444 17.972 8.32827 17.9735C9.39445 17.9776 9.91496 17.8134 10.476 17.296L10.7753 17.0199L10.9889 17.2728C12.2329 18.7459 14.007 19.7175 15.8985 19.9617C16.5112 20.0408 17.8874 19.9912 18.4426 19.8701C19.3428 19.6737 20.4107 19.2477 20.6005 19.0093C20.75 18.8214 20.7367 18.594 20.5664 18.4256C20.3778 18.2393 20.1954 18.2493 19.7138 18.4723C19.2451 18.6893 18.7256 18.8615 18.203 18.973C17.654 19.0902 16.108 19.0889 15.5471 18.9707C13.1931 18.4748 11.2659 16.7741 10.5362 14.5488C10.4083 14.1586 10.2811 13.5725 10.2342 13.1577L10.2118 12.9592L10.6855 12.9723L11.1593 12.9855L11.2185 13.3909C11.4745 15.1465 12.673 16.7501 14.3521 17.5836C15.6683 18.237 17.4038 18.3406 18.7815 17.8483C20.4755 17.2428 21.7573 15.9559 22.319 14.2968C23.338 11.2873 21.6651 8.05038 18.594 7.08942C17.941 6.88506 17.4638 6.82965 16.6206 6.86028C15.6965 6.89386 15.1031 7.04031 14.3283 7.42596C13.2656 7.95503 12.3594 8.82584 11.8087 9.8473C11.5538 10.3201 11.2926 11.0991 11.2185 11.6072L11.1593 12.0126L10.6855 12.0257L10.2118 12.0389L10.2342 11.8404C10.559 8.96482 12.6556 6.65374 15.5002 6.03548C15.7087 5.99021 16.1772 5.94894 16.6512 5.93406C17.9305 5.89408 18.7644 6.06624 19.8362 6.59157C21.6954 7.50286 22.9736 9.13814 23.4331 11.1933C23.5794 11.8472 23.5772 13.1088 23.4287 13.791C23.307 14.3503 23.1292 14.8779 22.8892 15.3911C22.7956 15.5913 22.719 15.7949 22.719 15.8435C22.719 16.0719 22.9523 16.298 23.1878 16.298C23.4277 16.298 23.5301 16.1895 23.7776 15.6728C24.7835 13.5729 24.7368 11.1496 23.6505 9.07069C22.5203 6.90795 20.4389 5.41749 18.0549 5.06382C17.4894 4.97991 16.2435 4.97848 15.7112 5.06108ZM5.28816 7.44805C5.45199 7.49841 5.74426 7.62346 5.93762 7.72594C6.99658 8.28726 7.34248 8.37371 8.53921 8.37617C9.2099 8.37751 9.36609 8.39127 9.52552 8.46285C9.74592 8.56176 9.9391 8.77154 10.0126 8.9917C10.0586 9.12943 10.0466 9.18493 9.90436 9.49089C9.627 10.0876 9.39956 10.9103 9.33464 11.5518C9.28073 12.0841 9.34805 12.0358 8.65996 12.0358H8.05597L7.91253 11.7846C7.48503 11.0359 6.454 10.8759 5.76456 11.4513C5.68224 11.52 5.55043 11.7038 5.47158 11.8597C5.34905 12.102 5.32824 12.1948 5.32824 12.499C5.32824 12.8032 5.34905 12.896 5.47158 13.1384C5.7197 13.6291 6.14879 13.8884 6.71107 13.8874C7.24409 13.8865 7.66212 13.652 7.91253 13.2135L8.05597 12.9623H8.65996C9.34805 12.9623 9.28073 12.914 9.33464 13.4463C9.40626 14.1538 9.68377 15.0894 10.0153 15.7411L10.208 16.1199L10.0902 16.3184C9.96249 16.5339 9.71869 16.7655 9.50433 16.875C9.26039 16.9997 8.93577 17.0424 8.23339 17.0421C7.18385 17.0417 6.91268 17.1362 6.25047 17.7328C5.75537 18.1788 5.6769 18.2132 5.21457 18.1862C4.73161 18.1581 4.3694 18.0212 4.06743 17.7529C3.57997 17.3197 3.49072 17.0093 3.64269 16.2759C3.76377 15.6916 3.74399 15.4195 3.55133 15.0188C3.37016 14.642 3.0522 14.3106 2.44605 13.8668C1.69806 13.3191 1.498 13.0683 1.45225 12.6212C1.40697 12.1789 1.60534 11.6515 2.16968 10.7136C2.30829 10.4833 2.61223 9.88988 2.84511 9.3949C3.46649 8.07415 3.79185 7.60761 4.21987 7.42355C4.43709 7.3301 4.94208 7.34173 5.28816 7.44805ZM17.8078 7.84662C17.8755 7.88438 17.822 7.93516 17.4796 8.15782C17.2546 8.30412 17.0508 8.4256 17.0266 8.42773C17.0024 8.42986 16.8988 8.28087 16.7963 8.09657L16.6099 7.76152L17.1683 7.78149C17.4755 7.79247 17.7632 7.82179 17.8078 7.84662ZM15.9299 8.45683C16.0932 8.75625 16.2346 9.01903 16.244 9.0408C16.2536 9.06263 16.1251 9.21899 15.9585 9.38827C15.7919 9.55761 15.4115 9.97758 15.1132 10.3216C14.8148 10.6656 14.3993 11.1138 14.1897 11.3177L13.8087 11.6883L13.7171 11.5725C13.6055 11.4313 12.8742 9.99607 12.8748 9.91925C12.8755 9.81821 13.4234 9.18114 13.7322 8.9222C14.1375 8.58233 14.6471 8.27336 15.0783 8.10611C15.4907 7.94614 15.5598 7.92103 15.6018 7.91612C15.619 7.91413 15.7667 8.1574 15.9299 8.45683ZM19.5009 8.5322C20.0131 8.866 20.3604 9.18415 20.7024 9.63271C20.9521 9.96025 21.4067 10.7804 21.4064 10.9028C21.4063 10.9271 21.2956 11.0042 21.1603 11.0741C21.025 11.144 20.7245 11.3244 20.4925 11.475L20.0706 11.7488L19.8125 11.5101C19.6706 11.3788 19.312 11.0692 19.0156 10.8223C18.4054 10.3137 17.5627 9.41283 17.5627 9.26898C17.5627 9.21245 18.08 8.86503 18.6621 8.53058C18.8953 8.3966 19.0935 8.28606 19.1025 8.28499C19.1114 8.28397 19.2907 8.39521 19.5009 8.5322ZM17.4482 10.6217C17.6301 10.8261 18.1316 11.2937 18.5627 11.6607L19.3464 12.3281L19.0871 12.5565C18.9445 12.6821 18.5244 13.1324 18.1536 13.557C17.7827 13.9816 17.3509 14.453 17.194 14.6045L16.9086 14.88L16.5443 14.5338C16.3439 14.3433 15.9162 13.966 15.594 13.6951C15.0954 13.2762 14.7178 12.9 14.4263 12.5319C14.3665 12.4565 14.4141 12.3954 14.9491 11.8601C15.2728 11.5363 15.7431 11.0316 15.9941 10.7385C16.2452 10.4455 16.5267 10.1262 16.6199 10.0288L16.7893 9.85194L16.9534 10.051C17.0436 10.1604 17.2662 10.4173 17.4482 10.6217ZM12.9766 12.139C13.028 12.2104 13.0631 12.2887 13.0546 12.313C13.0279 12.3898 12.1632 13.0087 12.1198 12.9822C12.0103 12.9154 12.1171 11.6369 12.2716 11.1645L12.3216 11.0114L12.6024 11.5103C12.7568 11.7847 12.9252 12.0676 12.9766 12.139ZM21.6688 12.0663C21.7097 12.2817 21.6603 13.2397 21.6055 13.2938C21.5818 13.3172 21.392 13.1385 21.1589 12.8734L20.7535 12.4122L21.162 12.1547C21.3867 12.0131 21.5854 11.897 21.6036 11.897C21.6218 11.8969 21.6511 11.9731 21.6688 12.0663ZM7.03502 12.1783C7.11954 12.2776 7.15638 12.3749 7.15638 12.499C7.15638 12.6232 7.11954 12.7205 7.03502 12.8198C6.93401 12.9385 6.87977 12.9623 6.71107 12.9623C6.54236 12.9623 6.48813 12.9385 6.38711 12.8198C6.11256 12.4973 6.30597 12.0358 6.71566 12.0358C6.87921 12.0358 6.9348 12.0605 7.03502 12.1783ZM20.3682 13.3809C20.5474 13.5856 20.8218 13.9162 20.9778 14.1155L21.2615 14.4779L21.0586 14.8297C20.5638 15.6881 19.7191 16.4601 18.8912 16.8109L18.6672 16.9057L18.572 16.7758C18.5197 16.7043 18.3081 16.4395 18.1018 16.1874C17.8956 15.9353 17.6978 15.6902 17.6625 15.6428C17.6041 15.5647 17.6366 15.5156 18.0141 15.1123C18.2428 14.8679 18.6167 14.4492 18.8451 14.1819C19.2716 13.6823 19.9374 13.0087 20.0045 13.0087C20.0252 13.0087 20.1889 13.1761 20.3682 13.3809ZM14.2098 13.698C14.3652 13.8606 14.7454 14.2046 15.0547 14.4625C15.3639 14.7203 15.7536 15.0591 15.9206 15.2152L16.2242 15.4991L16.0655 15.6321C15.8134 15.8435 15.1052 16.364 14.8456 16.5286L14.6082 16.6792L14.3468 16.5233C13.9318 16.2761 13.4526 15.853 13.1265 15.4461C12.8363 15.0839 12.359 14.2256 12.3594 14.0665C12.3595 14.023 12.5182 13.8784 12.7228 13.7355C12.9226 13.5959 13.2126 13.3872 13.3672 13.2717L13.6483 13.0616L13.7878 13.232C13.8645 13.3257 14.0544 13.5355 14.2098 13.698ZM17.0783 16.4075C17.1771 16.5187 17.3578 16.7352 17.4797 16.8888C17.6923 17.1566 17.6971 17.1691 17.5969 17.1957C17.2737 17.2813 15.7346 17.1898 15.7346 17.0849C15.7346 17.0643 15.8665 16.9531 16.0276 16.8377C16.1887 16.7224 16.4366 16.5337 16.5784 16.4185C16.7201 16.3032 16.8502 16.2081 16.8673 16.2071C16.8845 16.2062 16.9794 16.2963 17.0783 16.4075ZM21.6779 17.1736C21.5521 17.2847 21.5258 17.3414 21.5258 17.5026C21.5258 17.837 21.8788 18.062 22.1713 17.9141C22.3338 17.832 22.4356 17.6774 22.4368 17.5111C22.4381 17.3094 22.3719 17.1949 22.2043 17.1093C22.0005 17.0051 21.8475 17.0238 21.6779 17.1736Z" fill="black"/>
</g>
<defs>
<clipPath id="clip0_4016_867">
<rect width="24" height="24" fill="white" transform="translate(0.5)"/>
</clipPath>
</defs>
</svg>
