<svg width="40" height="40" viewBox="0 0 40 40" fill="none" xmlns="http://www.w3.org/2000/svg">
<g clip-path="url(#clip0_3792_16396)">
<path d="M35.7031 0H9.14062C6.77133 0 4.84375 1.92758 4.84375 4.29688V15.7812H4.29688C1.92758 15.7812 0 17.7088 0 20.0781V35.7031C0 38.0724 1.92758 40 4.29688 40H30.8594C33.2287 40 35.1562 38.0724 35.1562 35.7031V24.2188H35.7031C38.0724 24.2188 40 22.2912 40 19.9219V4.29688C40 1.92758 38.0724 0 35.7031 0ZM32.8125 35.7031C32.8125 36.7801 31.9363 37.6562 30.8594 37.6562H4.29688C3.21992 37.6562 2.34375 36.7801 2.34375 35.7031V20.0781C2.34375 19.0012 3.21992 18.125 4.29688 18.125H30.8594C31.9363 18.125 32.8125 19.0012 32.8125 20.0781V35.7031ZM37.6562 19.9219C37.6562 20.9988 36.7801 21.875 35.7031 21.875H35.1562V20.0781C35.1562 17.7088 33.2287 15.7812 30.8594 15.7812H7.1875V11.7188H37.6562V19.9219ZM37.6562 9.375H7.1875V7.03125H37.6562V9.375ZM37.6562 4.6875H7.1875V4.29688C7.1875 3.21992 8.06367 2.34375 9.14062 2.34375H35.7031C36.7801 2.34375 37.6562 3.21992 37.6562 4.29688V4.6875Z" fill="#F08597"/>
<path d="M5.85938 29.0625H12.1094C12.7566 29.0625 13.2812 28.5378 13.2812 27.8906V21.6406C13.2812 20.9934 12.7566 20.4688 12.1094 20.4688H5.85938C5.21219 20.4688 4.6875 20.9934 4.6875 21.6406V27.8906C4.6875 28.5378 5.21219 29.0625 5.85938 29.0625ZM7.03125 22.8125H10.9375V26.7188H7.03125V22.8125Z" fill="#F08597"/>
<path d="M8.20312 32.1875H5.85938C5.21219 32.1875 4.6875 32.7122 4.6875 33.3594C4.6875 34.0066 5.21219 34.5312 5.85938 34.5312H8.20312C8.85031 34.5312 9.375 34.0066 9.375 33.3594C9.375 32.7122 8.85031 32.1875 8.20312 32.1875Z" fill="#F08597"/>
<path d="M22.2656 32.1875H19.9219C19.2747 32.1875 18.75 32.7122 18.75 33.3594C18.75 34.0066 19.2747 34.5312 19.9219 34.5312H22.2656C22.9128 34.5312 23.4375 34.0066 23.4375 33.3594C23.4375 32.7122 22.9128 32.1875 22.2656 32.1875Z" fill="#F08597"/>
<path d="M29.2969 21.25H26.9531C26.3059 21.25 25.7812 21.7747 25.7812 22.4219C25.7812 23.0691 26.3059 23.5938 26.9531 23.5938H29.2969C29.9441 23.5938 30.4688 23.0691 30.4688 22.4219C30.4688 21.7747 29.9441 21.25 29.2969 21.25Z" fill="#F08597"/>
<path d="M15.2344 32.1875H12.8906C12.2434 32.1875 11.7188 32.7122 11.7188 33.3594C11.7188 34.0066 12.2434 34.5312 12.8906 34.5312H15.2344C15.8816 34.5312 16.4062 34.0066 16.4062 33.3594C16.4062 32.7122 15.8816 32.1875 15.2344 32.1875Z" fill="#F08597"/>
</g>
<defs>
<clipPath id="clip0_3792_16396">
<rect width="40" height="40" fill="white"/>
</clipPath>
</defs>
</svg>
