<svg width="40" height="40" viewBox="0 0 40 40" fill="none" xmlns="http://www.w3.org/2000/svg">
<g clip-path="url(#clip0_3792_16410)">
<path d="M39.9051 8.89174C39.7011 8.37017 39.1981 8.02736 38.6385 8.02736H29.0694V10.7485H35.1646L31.439 14.1951H22.3574V16.9162H31.9718C32.3142 16.9162 32.6444 16.787 32.8957 16.5543L39.5622 10.3866C39.9731 10.0064 40.1092 9.41283 39.9051 8.89174Z" fill="#F08597"/>
<path d="M16.553 10.7484V8.0273H8.02696C7.68454 8.0273 7.35438 8.15652 7.10313 8.38917L0.436551 14.557C0.0256912 14.9371 -0.110403 15.5307 0.09366 16.0518C0.297723 16.5733 0.800224 16.9161 1.3603 16.9161H10.4759V14.195H4.83469L8.55985 10.7484H16.553Z" fill="#F08597"/>
<path d="M10.204 19.4563H1.36055C0.609064 19.4563 0 20.0653 0 20.8167C0 21.5682 0.609064 22.1773 1.36055 22.1773H10.204C10.9555 22.1773 11.5646 21.5682 11.5646 20.8167C11.5646 20.0653 10.9555 19.4563 10.204 19.4563Z" fill="#F08597"/>
<path d="M39.7068 14.713C39.2411 14.1226 38.3862 14.0219 37.7957 14.4876L31.4996 19.4563H22.4934C21.7419 19.4563 21.1328 20.0654 21.1328 20.8169C21.1328 21.5684 21.7419 22.1774 22.4934 22.1774H31.9717C32.2778 22.1774 32.5745 22.074 32.8148 21.8849L39.4814 16.6237C40.0714 16.1583 40.1722 15.303 39.7068 14.713Z" fill="#F08597"/>
<path d="M10.204 24.7619H1.36055C0.609064 24.7619 0 25.3709 0 26.1224C0 26.8739 0.609064 27.483 1.36055 27.483H10.204C10.9555 27.483 11.5646 26.8739 11.5646 26.1224C11.5646 25.3709 10.9555 24.7619 10.204 24.7619Z" fill="#F08597"/>
<path d="M39.7428 20.5198C39.3039 19.9102 38.4544 19.7723 37.8435 20.2118L31.5334 24.7619H22.5852C21.8337 24.7619 21.2246 25.3709 21.2246 26.1224C21.2246 26.8739 21.8337 27.483 22.5852 27.483H31.9728C32.2585 27.483 32.537 27.3932 32.7683 27.2263L39.4349 22.4191C40.0444 21.9796 40.1818 21.1293 39.7428 20.5198Z" fill="#F08597"/>
<path d="M39.7779 26.2852C39.367 25.6563 38.5235 25.4784 37.8949 25.8902L31.5676 30.0226H1.36055C0.609064 30.0226 0 30.6316 0 31.3831C0 32.1346 0.609064 32.7437 1.36055 32.7437H31.9725C32.2369 32.7437 32.4949 32.667 32.7162 32.5223L39.3828 28.1682C40.0119 27.7573 40.1887 26.9147 39.7779 26.2852Z" fill="#F08597"/>
<path d="M30.7893 8.11894C30.5848 7.59832 30.0823 7.25636 29.5232 7.25636H17.6412C17.2974 7.25636 16.9663 7.38652 16.7147 7.62097L9.54922 14.2876C9.27258 14.5447 9.11523 14.9057 9.11523 15.2835V30.9296H11.8363V15.8762L18.1764 9.97739H26.0634L21.4308 14.2876C21.1546 14.5447 20.9973 14.9057 20.9973 15.2835V30.9296H23.7184V15.8762L30.4503 9.61278C30.8592 9.23231 30.9939 8.63957 30.7893 8.11894Z" fill="#F08597"/>
</g>
<defs>
<clipPath id="clip0_3792_16410">
<rect width="40" height="40" fill="white"/>
</clipPath>
</defs>
</svg>
