<svg width="40" height="40" viewBox="0 0 40 40" fill="none" xmlns="http://www.w3.org/2000/svg">
<path d="M30.5469 12.8906V8.20312C30.5469 3.67981 26.8671 0 22.3438 0H17.6562C13.1329 0 9.45312 3.67981 9.45312 8.20312V12.8906C9.45312 18.7061 14.1846 23.4375 20 23.4375C25.8154 23.4375 30.5469 18.7061 30.5469 12.8906ZM17.6562 2.34375H22.3438C25.1733 2.34375 27.5409 4.36005 28.0853 7.03125H11.9147C12.4591 4.36005 14.8267 2.34375 17.6562 2.34375ZM28.0017 9.375C27.5177 10.7388 26.2152 11.7188 24.6875 11.7188H15.3125C13.7848 11.7188 12.4823 10.7388 11.9983 9.375H28.0017ZM20 21.0938C15.4767 21.0938 11.7969 17.4139 11.7969 12.8906V12.8876C12.7768 13.6249 13.9944 14.0625 15.3125 14.0625H24.6875C26.0056 14.0625 27.2232 13.6249 28.2031 12.8876V12.8906C28.2031 17.4139 24.5233 21.0938 20 21.0938Z" fill="#F08597"/>
<path d="M20 16.4063C19.0609 16.4063 18.1781 16.0407 17.514 15.3766L15.8569 17.0337C16.9635 18.1406 18.435 18.75 20 18.75C21.5649 18.75 23.0365 18.1406 24.143 17.0337L22.4859 15.3766C21.8219 16.0407 20.939 16.4063 20 16.4063Z" fill="#F08597"/>
<path d="M29.375 23.4375H10.625C7.3941 23.4375 4.76562 26.066 4.76562 29.2969V40H35.2344V29.2969C35.2344 26.066 32.6059 23.4375 29.375 23.4375ZM18.8281 30.4688H21.1719V32.8125H18.8281V30.4688ZM23.5156 35.1562V30.4688H28.2031V37.6562H11.7969V30.4688H16.4844V35.1562H23.5156ZM32.8906 37.6562H30.5469V28.125H9.45312V37.6562H7.10938V29.2969C7.10938 27.3584 8.68652 25.7812 10.625 25.7812H29.375C31.3135 25.7812 32.8906 27.3584 32.8906 29.2969V37.6562Z" fill="#F08597"/>
</svg>
