<svg width="40" height="40" viewBox="0 0 40 40" fill="none" xmlns="http://www.w3.org/2000/svg">
<path d="M20 10C16.1404 10 13 12.9157 13 16.5C13 20.0843 16.14 23 20 23C23.86 23 27 20.0843 27 16.5C27 12.9161 23.8596 10 20 10ZM20 20.6785C17.5187 20.6785 15.5 18.804 15.5 16.4999C15.5 14.1959 17.5187 12.3213 20 12.3213C22.4813 12.3213 24.5 14.1959 24.5 16.4999C24.5 18.804 22.4813 20.6785 20 20.6785Z" fill="#F08597"/>
<path d="M31.4879 8.91155C28.8458 5.15495 24.6585 3 20.0004 3C15.3423 3 11.155 5.15495 8.51288 8.91155C5.88375 12.6492 5.27667 17.3811 6.88572 21.5617C7.3161 22.7033 8.00023 23.8125 8.91426 24.8519L19.0791 36.5815C19.309 36.847 19.6459 37 20.0004 37C20.3549 37 20.6918 36.8471 20.9217 36.5815L31.0837 24.8551C32.0018 23.8097 32.6851 22.7017 33.1119 21.5692C34.7241 17.3811 34.1171 12.6492 31.4879 8.91155ZM30.8458 20.7366C30.5167 21.6104 29.9793 22.4743 29.2496 23.3052C29.2476 23.3072 29.2456 23.3092 29.244 23.3116L20.0004 33.9777L10.7512 23.3049C10.0219 22.4747 9.48456 21.6109 9.1522 20.7287C7.82151 17.2713 8.32652 13.3589 10.5035 10.2636C12.6873 7.15849 16.149 5.37761 20.0004 5.37761C23.8517 5.37761 27.313 7.15843 29.4969 10.2636C31.6743 13.3589 32.1797 17.2713 30.8458 20.7366Z" fill="#F08597"/>
</svg>
