<svg width="40" height="40" viewBox="0 0 40 40" fill="none" xmlns="http://www.w3.org/2000/svg">
<path d="M32.1886 12.466C32.5569 12.2255 32.7417 12.1047 33.2381 12.1047C33.7346 12.1047 33.9195 12.2254 34.2878 12.466C34.7678 12.7793 35.4251 13.2086 36.6191 13.2086C37.813 13.2086 38.4702 12.7793 38.9502 12.466C39.3186 12.2254 39.5034 12.1047 40 12.1047V9.761C38.8061 9.761 38.1488 10.1902 37.6688 10.5036C37.3005 10.7441 37.1156 10.8648 36.6191 10.8648C36.1225 10.8648 35.9376 10.7441 35.5692 10.5036C35.0892 10.1902 34.432 9.761 33.2381 9.761C32.0443 9.761 31.387 10.1902 30.9071 10.5036C30.5388 10.744 30.354 10.8648 29.8576 10.8648C29.3612 10.8648 29.1764 10.7441 28.808 10.5036C28.511 10.3096 28.1457 10.0715 27.6277 9.91803C24.7532 6.51062 20.4544 4.34204 15.6578 4.34204C7.02411 4.34212 0 11.3661 0 19.9999C0 28.6337 7.02411 35.6578 15.6578 35.6578C20.6146 35.6578 25.0402 33.342 27.9112 29.7362C28.356 29.9922 28.9523 30.2389 29.8575 30.2389C31.0514 30.2389 31.7086 29.8097 32.1885 29.4963C32.5568 29.2558 32.7416 29.135 33.238 29.135C33.7345 29.135 33.9194 29.2558 34.2878 29.4963C34.7678 29.8097 35.425 30.2389 36.619 30.2389C37.8129 30.2389 38.4702 29.8097 38.9502 29.4963C39.3185 29.2558 39.5034 29.135 39.9999 29.135V26.7913C38.806 26.7913 38.1488 27.2205 37.6688 27.5339C37.3004 27.7744 37.1156 27.8951 36.619 27.8951C36.1224 27.8951 35.9375 27.7744 35.5692 27.5339C35.0892 27.2205 34.4319 26.7913 33.238 26.7913C32.0442 26.7913 31.3869 27.2205 30.907 27.5339C30.5387 27.7744 30.3539 27.8951 29.8575 27.8951C29.5847 27.8951 29.4061 27.8584 29.2393 27.7857C29.8324 26.7551 30.3105 25.6504 30.6585 24.4901C31.3691 24.3546 31.8287 24.0545 32.1885 23.8195C32.5567 23.5791 32.7415 23.4583 33.2379 23.4583C33.7344 23.4583 33.9193 23.579 34.2877 23.8195C34.7677 24.1329 35.4249 24.5621 36.6189 24.5621C37.8128 24.5621 38.4701 24.1329 38.9501 23.8195C39.3184 23.579 39.5033 23.4583 39.9998 23.4583V21.1145C38.8059 21.1145 38.1487 21.5438 37.6687 21.8571C37.3003 22.0977 37.1155 22.2184 36.6189 22.2184C36.1224 22.2184 35.9374 22.0977 35.5691 21.8571C35.0891 21.5438 34.4318 21.1145 33.2379 21.1145C32.2889 21.1145 31.6796 21.3858 31.2282 21.6545C31.2856 21.1106 31.3157 20.5588 31.3157 19.9999C31.3157 19.5431 31.2948 19.0912 31.2563 18.6442C31.6465 18.4958 31.9414 18.3041 32.1885 18.1427C32.5568 17.9022 32.7416 17.7814 33.238 17.7814C33.7345 17.7814 33.9194 17.9021 34.2878 18.1427C34.7678 18.456 35.425 18.8853 36.619 18.8853C37.8129 18.8853 38.4702 18.456 38.9502 18.1427C39.3185 17.9021 39.5034 17.7814 39.9999 17.7814V15.4377C38.806 15.4377 38.1488 15.8669 37.6688 16.1803C37.3004 16.4208 37.1156 16.5415 36.619 16.5415C36.1224 16.5415 35.9375 16.4208 35.5692 16.1803C35.0892 15.8669 34.4319 15.4377 33.238 15.4377C32.0442 15.4377 31.3869 15.8669 30.907 16.1803C30.8882 16.1925 30.8703 16.2043 30.8524 16.2159C30.5911 15.1673 30.2249 14.16 29.7638 13.2064C29.7952 13.207 29.8254 13.2085 29.8576 13.2085C31.0514 13.2086 31.7087 12.7793 32.1886 12.466ZM25.4276 12.4661C25.7688 12.2432 25.953 12.1234 26.373 12.107C27.2111 13.2418 27.8733 14.5139 28.3195 15.8828C27.8864 15.6486 27.3138 15.4378 26.477 15.4378C26.4751 15.4378 26.4733 15.4379 26.4715 15.4379C26.0664 14.4813 25.5376 13.5893 24.9058 12.7817C25.1051 12.6764 25.2754 12.5655 25.4276 12.4661ZM15.6578 33.3141C8.31645 33.314 2.34374 27.3415 2.34374 19.9999C2.34374 12.6584 8.31645 6.68586 15.6578 6.68586C19.1234 6.68586 22.2835 8.01726 24.6547 10.1948C24.461 10.2981 24.2949 10.4065 24.1461 10.5037C23.7778 10.7441 23.593 10.8649 23.0966 10.8649C23.0687 10.8649 23.0419 10.8644 23.0158 10.8637C21.0016 9.23827 18.4416 8.26343 15.6578 8.26343C9.18629 8.26343 3.92123 13.5285 3.92123 20C3.92123 26.4715 9.18629 31.7366 15.6578 31.7366C17.8918 31.7366 19.9819 31.1089 21.7614 30.0211C22.1174 30.1486 22.5504 30.2389 23.0966 30.2389C23.627 30.2389 24.0511 30.1539 24.4012 30.0323C22.0605 32.075 19.0013 33.3141 15.6578 33.3141ZM24.146 21.8573C23.7777 22.0977 23.593 22.2185 23.0965 22.2185C22.6001 22.2185 22.4154 22.0978 22.0471 21.8573C21.5672 21.5438 20.91 21.1147 19.7162 21.1147V23.4584C20.2125 23.4584 20.3973 23.5791 20.7655 23.8197C21.2455 24.133 21.9026 24.5623 23.0965 24.5623C23.3994 24.5623 23.6675 24.5344 23.9071 24.4881C23.3243 25.5551 22.5405 26.497 21.607 27.263C21.1684 27.0185 20.5847 26.7913 19.7163 26.7913V28.4699C18.4872 29.0612 17.1106 29.3929 15.6578 29.3929C10.4786 29.3929 6.26498 25.1792 6.26498 20C6.26498 14.8208 10.4786 10.6072 15.6578 10.6072C17.1106 10.6072 18.4872 10.9388 19.7163 11.5301V12.1049C20.2127 12.1049 20.3975 12.2256 20.7657 12.4661C21.0697 12.6647 21.4454 12.9093 21.983 13.0622C22.9216 13.9187 23.6865 14.9625 24.2177 16.1339C24.1935 16.1496 24.1694 16.1653 24.1461 16.1805C23.7778 16.421 23.593 16.5417 23.0966 16.5417C22.6002 16.5417 22.4155 16.421 22.0472 16.1805C21.5673 15.8671 20.9101 15.4379 19.7163 15.4379V17.7817C20.2126 17.7817 20.3974 17.9024 20.7656 18.1429C21.2455 18.4563 21.9027 18.8855 23.0966 18.8855C23.9221 18.8855 24.4908 18.6803 24.922 18.45C25.0062 18.9545 25.0506 19.4721 25.0506 20.0001C25.0506 20.4791 25.0144 20.9498 24.9448 21.4096C24.6197 21.5488 24.3641 21.7148 24.146 21.8573ZM27.0814 26.8315C26.8964 26.806 26.6959 26.7913 26.477 26.7913C25.876 26.7913 25.4111 26.9001 25.0363 27.0482C25.8352 25.9878 26.459 24.7885 26.8636 23.4932C27.1055 23.5448 27.2724 23.6537 27.5265 23.8195C27.734 23.955 27.9747 24.1119 28.2774 24.2466C27.9706 25.156 27.5676 26.0215 27.0814 26.8315ZM28.839 21.8774C28.8287 21.8707 28.8187 21.8642 28.8081 21.8573C28.4579 21.6286 28.0123 21.339 27.3338 21.1988C27.374 20.8045 27.3946 20.4047 27.3946 20.0001C27.3946 19.3009 27.3329 18.6158 27.215 17.9499C27.311 18.0022 27.4096 18.0664 27.5268 18.1429C27.8621 18.3619 28.2848 18.637 28.916 18.7831C28.9523 19.184 28.972 19.5897 28.972 20C28.972 20.6372 28.926 21.2638 28.839 21.8774Z" fill="#F08597"/>
</svg>
