<svg width="40" height="40" viewBox="0 0 40 40" fill="none" xmlns="http://www.w3.org/2000/svg">
<path fill-rule="evenodd" clip-rule="evenodd" d="M20 35.5C28.5604 35.5 35.5 28.5604 35.5 20C35.5 19.0145 35.408 18.0505 35.2322 17.1162C28.7876 18.7732 23.4606 21.836 19.426 25.0301C15.6561 28.0146 13.0669 31.0713 11.7588 33.13C14.146 34.6315 16.9716 35.5 20 35.5ZM8.93163 30.8509C8.96693 30.3421 9.01444 29.8575 9.07559 29.3891C8.82827 29.7749 8.63153 30.1008 8.47435 30.364C8.6233 30.5296 8.77576 30.6919 8.93163 30.8509ZM12.9477 24.4989L13.0491 24.5424C12.3489 26.1762 11.9054 27.5399 11.6478 29.0835C13.2059 27.2116 15.2984 25.1092 17.8743 23.0699C20.794 20.7585 24.3635 18.5051 28.5255 16.75H23.5266C18.9604 19.0809 15.6497 21.7548 13.2964 24.1403C13.1778 24.2606 13.0615 24.3802 12.9477 24.4989ZM29.3654 14.25C30.7509 13.7595 32.2209 13.3051 33.7801 12.8966C34.007 13.3359 34.2136 13.7875 34.3984 14.25H29.3654ZM29.4241 10.2805C30.3194 10.2597 31.1914 10.2395 32.0293 10.2245C29.1873 6.73142 24.8542 4.5 20 4.5C15.6878 4.5 11.787 6.2609 8.9772 9.10285C12.705 10.0199 17.0953 10.3167 21.4777 10.3688C23.8174 10.3967 26.1338 10.3549 28.3254 10.3058C28.695 10.2975 29.0614 10.289 29.4241 10.2805ZM4.5 20C4.5 16.9592 5.3756 14.123 6.88843 11.7296C7.169 13.1202 7.70297 15.1169 9.07416 16.9972C8.2205 18.8515 7.43949 21.6883 6.85851 24.1574C6.61226 25.204 6.39545 26.214 6.21854 27.1008C5.12022 24.9735 4.5 22.5592 4.5 20ZM20 38C29.9411 38 38 29.9411 38 20C38 10.0589 29.9411 2 20 2C10.0589 2 2 10.0589 2 20C2 29.9411 10.0589 38 20 38ZM9.46283 11.7774C9.76449 13.0892 10.2794 14.6133 11.4993 16.0365L12.0726 16.7053L11.6356 17.4702C10.8399 18.8626 9.97343 21.8342 9.29205 24.73L9.25173 24.9022C9.89608 24.1144 10.6469 23.2663 11.5167 22.3846C14.6482 19.2102 19.2993 15.6241 26.0259 12.8516C24.5365 12.8755 22.9991 12.8871 21.4479 12.8687C17.4095 12.8206 13.2152 12.5692 9.46283 11.7774Z" fill="#F08597"/>
</svg>
