<svg width="16" height="16" viewBox="0 0 16 16" fill="none" xmlns="http://www.w3.org/2000/svg">
<path fill-rule="evenodd" clip-rule="evenodd" d="M1.33594 7.99998C1.33594 4.31998 4.3226 1.33331 8.0026 1.33331C11.6826 1.33331 14.6693 4.31998 14.6693 7.99998C14.6693 11.68 11.6826 14.6666 8.0026 14.6666C4.3226 14.6666 1.33594 11.68 1.33594 7.99998ZM3.8026 8.46665L6.19594 10.86C6.45594 11.12 6.8826 11.12 7.13594 10.86L12.1959 5.79998C12.4559 5.53998 12.4559 5.11998 12.1959 4.85998C11.9359 4.59998 11.5159 4.59998 11.2559 4.85998L6.66927 9.44665L4.7426 7.52665C4.4826 7.26665 4.0626 7.26665 3.8026 7.52665C3.67777 7.6512 3.60761 7.8203 3.60761 7.99665C3.60761 8.17299 3.67777 8.34209 3.8026 8.46665Z" fill="#8DD951"/>
</svg>
