<svg width="16" height="16" viewBox="0 0 16 16" fill="none" xmlns="http://www.w3.org/2000/svg">
<g clip-path="url(#clip0_3868_20022)">
<path d="M7.99994 8.56244C6.44916 8.56244 5.1875 9.82413 5.1875 11.3749C5.1875 12.9258 6.44916 14.1874 7.99994 14.1874C9.55073 14.1874 10.8124 12.9258 10.8124 11.3749C10.8124 9.82413 9.55073 8.56244 7.99994 8.56244ZM7.99994 12.9374C7.13838 12.9374 6.43747 12.2365 6.43747 11.3749C6.43747 10.5134 7.13838 9.81244 7.99994 9.81244C8.86151 9.81244 9.56242 10.5134 9.56242 11.3749C9.56242 12.2365 8.86151 12.9374 7.99994 12.9374Z" fill="black"/>
<path d="M15.9328 9.8945C15.2435 8.52922 14.1511 7.37263 12.773 6.54822L14.4648 4.85641C14.7089 4.61235 14.7089 4.21663 14.4648 3.97253C14.2207 3.72847 13.825 3.72847 13.5809 3.97253L11.5962 5.95731C10.6608 5.57016 9.6567 5.33728 8.62499 5.27025V2.43744C8.62499 2.09225 8.34517 1.81244 7.99999 1.81244C7.6548 1.81244 7.37499 2.09225 7.37499 2.43744V5.27022C6.34327 5.33725 5.3392 5.57013 4.40377 5.95728L2.41905 3.9725C2.17495 3.72841 1.7792 3.72841 1.53514 3.9725C1.29111 4.21656 1.29111 4.61228 1.53517 4.85638L3.22695 6.54819C1.84889 7.3726 0.756517 8.52919 0.0672043 9.89447C-0.0883582 10.2026 0.0353293 10.5785 0.343454 10.7341C0.651486 10.8897 1.02752 10.766 1.18305 10.4579C2.34236 8.16172 4.92592 6.49994 8.00002 6.49994C11.0764 6.49994 13.6587 8.16372 14.817 10.4579C14.9728 10.7666 15.3489 10.8895 15.6565 10.7341C15.9647 10.5785 16.0884 10.2026 15.9328 9.8945Z" fill="black"/>
</g>
<defs>
<clipPath id="clip0_3868_20022">
<rect width="16" height="16" fill="white"/>
</clipPath>
</defs>
</svg>
