<svg width="32" height="32" viewBox="0 0 32 32" fill="none" xmlns="http://www.w3.org/2000/svg">
<path fill-rule="evenodd" clip-rule="evenodd" d="M26.6641 6.66667H22.4374L20.7841 4.86667C20.2907 4.32 19.5707 4 18.8241 4H13.1707C12.4241 4 11.7041 4.32 11.1974 4.86667L9.5574 6.66667H5.33073C3.86406 6.66667 2.66406 7.86667 2.66406 9.33333V25.3333C2.66406 26.8 3.86406 28 5.33073 28H26.6641C28.1307 28 29.3307 26.8 29.3307 25.3333V9.33333C29.3307 7.86667 28.1307 6.66667 26.6641 6.66667ZM15.9974 13.3333C13.7883 13.3333 11.9974 15.1242 11.9974 17.3333C11.9974 19.5425 13.7883 21.3333 15.9974 21.3333C18.2065 21.3333 19.9974 19.5425 19.9974 17.3333C19.9974 15.1242 18.2065 13.3333 15.9974 13.3333ZM9.33073 17.3333C9.33073 21.0133 12.3174 24 15.9974 24C19.6774 24 22.6641 21.0133 22.6641 17.3333C22.6641 13.6533 19.6774 10.6667 15.9974 10.6667C12.3174 10.6667 9.33073 13.6533 9.33073 17.3333Z" fill="white"/>
</svg>
