<svg width="16" height="16" viewBox="0 0 16 16" fill="none" xmlns="http://www.w3.org/2000/svg">
<g clip-path="url(#clip0_3868_20044)">
<path d="M0.0672338 6.10537C0.756546 7.47066 1.84892 8.62725 3.22698 9.45166L1.5352 11.1435C1.29114 11.3875 1.29114 11.7833 1.53517 12.0273C1.77926 12.2714 2.17495 12.2714 2.41908 12.0273L4.4038 10.0426C5.33923 10.4297 6.3433 10.6626 7.37501 10.7296L7.37501 13.5624C7.37501 13.9076 7.65483 14.1874 8.00001 14.1874C8.3452 14.1874 8.62501 13.9076 8.62501 13.5624L8.62501 10.7297C9.65673 10.6626 10.6608 10.4298 11.5962 10.0426L13.581 12.0274C13.825 12.2715 14.2208 12.2715 14.4649 12.0274C14.7089 11.7833 14.7089 11.3876 14.4648 11.1435L12.773 9.45169C14.1511 8.62728 15.2435 7.47069 15.9328 6.10541C16.0884 5.79725 15.9647 5.42138 15.6565 5.26578C15.3485 5.11019 14.9725 5.23385 14.817 5.542C13.6576 7.83816 11.0741 9.49994 7.99998 9.49994C4.92358 9.49994 2.34133 7.83616 1.18305 5.54197C1.0272 5.23331 0.651109 5.11041 0.343452 5.26575C0.035296 5.42134 -0.0883912 5.79725 0.0672338 6.10537Z" fill="black"/>
</g>
<defs>
<clipPath id="clip0_3868_20044">
<rect width="16" height="16" fill="white" transform="translate(16 15.9999) rotate(-180)"/>
</clipPath>
</defs>
</svg>
