<svg width="80" height="80" viewBox="0 0 80 80" fill="none" xmlns="http://www.w3.org/2000/svg">
<path fill-rule="evenodd" clip-rule="evenodd" d="M51.8017 0.194054C51.5011 0.329733 51.0887 0.5953 50.8853 0.784342C50.6818 0.973385 49.7052 2.74769 48.7149 4.72732C47.7246 6.70694 46.9047 8.33649 46.8927 8.34854C46.8808 8.36059 45.3218 8.59126 43.4283 8.8609C41.5347 9.13069 39.6685 9.42536 39.2812 9.51582C37.4504 9.94351 36.4681 11.8155 37.172 13.535C37.3302 13.9212 38.3869 15.0638 40.3158 16.9337L43.2212 19.7506L42.5685 23.5064C42.1672 25.8149 41.9419 27.5471 41.9835 28.0016C42.1298 29.5956 43.5082 30.7343 45.1201 30.5925C45.777 30.5347 46.5395 30.1984 49.1117 28.8319C50.8976 27.8831 52.3481 27.2032 52.4208 27.2806C52.6441 27.5191 53.3121 29.551 53.6494 31.018C54.6495 35.3678 54.4082 38.9396 52.8963 42.166C51.023 46.1634 47.7078 48.9312 43.243 50.225C42.187 50.531 41.6669 50.5787 39.4377 50.5739C37.3102 50.5693 36.6138 50.5077 35.4825 50.2238C30.2466 48.9103 26.6291 45.522 25.3365 40.7205C24.8913 39.067 24.8473 36.281 25.2454 34.9694C25.3957 34.4746 25.5559 34.0696 25.6015 34.0696C25.6468 34.0696 26.5155 34.4921 27.5318 35.0085C28.9585 35.7337 29.5357 35.9473 30.0659 35.9469C31.3087 35.9458 32.3946 34.9243 32.3942 33.7566C32.394 33.4553 32.2203 32.2582 32.0081 31.0962L31.6222 28.9836L33.4071 27.2622C34.389 26.3154 35.2672 25.3869 35.3587 25.199C35.6273 24.6481 35.5553 23.5572 35.2132 22.9964C34.696 22.1479 34.1672 21.9441 31.4989 21.5649C30.1435 21.3724 29.0243 21.2022 29.0114 21.1868C28.9987 21.1715 28.5185 20.2188 27.9443 19.0695C27.37 17.9204 26.7179 16.8112 26.495 16.6046C25.6227 15.7963 24.1165 15.8173 23.3101 16.649C23.0749 16.8918 22.4056 18.0057 21.8228 19.1246C21.24 20.2435 20.7574 21.1704 20.7501 21.1843C20.7429 21.1983 19.6806 21.3594 18.3895 21.5427C17.0985 21.726 15.847 21.9526 15.6087 22.0463C14.6581 22.4202 14.0927 23.5982 14.3096 24.7538C14.4176 25.33 14.6624 25.6142 16.7033 27.534L17.9905 28.7446L17.5077 29.9504C16.1982 33.2208 15.6323 36.1678 15.6201 39.7815C15.6101 42.7167 15.891 44.6466 16.6716 47.0052C18.2244 51.6975 21.0921 55.2757 25.3534 57.8384L26.6836 58.6382L24.571 58.6417C22.0884 58.6456 20.5723 58.837 19.5942 59.2697C17.9288 60.0063 16.5207 61.5305 15.9533 63.2106L15.6739 64.0378L14.2148 64.1162C12.4466 64.2112 11.3371 64.6851 10.3332 65.7741C9.04507 67.1716 9 67.3853 9 72.0972V76.2442L9.53739 77.2354C10.1299 78.328 10.9679 79.1033 12.1424 79.6449L12.9123 80H39.5942H66.2761L67.046 79.6449C68.2205 79.1033 69.0585 78.328 69.651 77.2354L70.1884 76.2442V72.0972C70.1884 67.3853 70.1433 67.1716 68.8552 65.7741C67.8485 64.6819 66.7428 64.2111 64.9617 64.1162L63.4909 64.0378L63.2763 63.3C62.9367 62.1322 61.8607 60.7012 60.7511 59.9419C59.2153 58.8909 58.6301 58.7684 54.7226 58.6787L51.3067 58.6005L52.491 57.9547C54.5584 56.827 56.519 55.3334 58.3732 53.4735C62.9797 48.8529 65.6138 43.1449 66.2082 36.4952C66.6636 31.3986 65.613 25.3472 63.4594 20.6629L62.9436 19.541L65.6739 16.8454C67.1755 15.3628 68.5196 13.9311 68.6606 13.6638C69.0491 12.9277 68.9972 11.7429 68.5407 10.9325C67.8754 9.75165 67.3997 9.58139 62.9292 8.92428L58.975 8.34307L57.101 4.6148C55.4656 1.3618 55.1503 0.835985 54.626 0.489198C53.8563 -0.0203401 52.5738 -0.154297 51.8017 0.194054ZM55.1293 6.60976C56.6021 9.55807 57.2169 10.6397 57.4753 10.7375C57.6679 10.8106 59.6565 11.1361 61.8943 11.4612C64.1322 11.786 66.0548 12.1233 66.1669 12.2105C66.3219 12.3313 65.6651 13.0801 63.4085 15.3555C59.7665 19.0277 59.7521 19.0647 60.9765 21.6138C63.3732 26.6033 64.2575 33.845 63.1403 39.3349C61.2274 48.736 53.9581 56.0628 44.4268 58.1969C42.9823 58.5204 42.4037 58.5604 39.203 58.5587C36.0907 58.557 35.3659 58.5088 33.8466 58.2025C25.2512 56.4695 19.92 51.344 18.5398 43.4859C18.229 41.7173 18.2266 38.1377 18.5347 36.245C18.8351 34.4002 19.3568 32.5295 20.0897 30.6693C21.0072 28.3404 20.8915 27.9077 18.8049 25.8642C18.0199 25.0954 17.3939 24.4502 17.414 24.4305C17.4341 24.4107 18.5069 24.2428 19.798 24.0572C21.7284 23.7798 22.2056 23.6593 22.4845 23.3784C22.671 23.1906 23.299 22.1283 23.8799 21.018L24.9364 18.9989L26.0046 21.131C26.6212 22.3616 27.2277 23.3646 27.4396 23.5034C27.6424 23.6364 28.8105 23.8852 30.0537 24.0603C31.2896 24.2344 32.3397 24.4156 32.3871 24.463C32.4345 24.5104 32.3359 24.6495 32.1682 24.7724C31.4906 25.2677 29.0632 27.7548 28.9393 28.0805C28.8524 28.3086 28.9462 29.1919 29.2102 30.6319C29.4322 31.8433 29.58 32.8685 29.5383 32.9101C29.4969 32.9518 28.5991 32.5605 27.5432 32.041C26.4875 31.5214 25.4503 31.0962 25.2382 31.0962C24.627 31.0962 23.8201 31.5558 23.488 32.0932C23.0298 32.8347 22.3996 35.1744 22.2837 36.5652C22.0827 38.9753 22.7251 42.1236 23.8979 44.4763C26.2431 49.1803 30.9762 52.3839 36.7363 53.1658C38.6884 53.4308 42.1115 53.2884 43.6678 52.8773C50.3349 51.1163 55.1983 46.0763 56.5858 39.4903C57.2772 36.2087 56.8955 31.9746 55.5396 27.886C54.663 25.2423 54.0045 24.5236 52.4585 24.5236C51.6665 24.5236 51.3344 24.6613 48.3088 26.245C46.4997 27.1918 44.9257 27.9664 44.8109 27.9664C44.5151 27.9664 44.5257 27.8684 45.3135 23.3499C45.7036 21.112 45.9852 19.1294 45.9392 18.944C45.8932 18.7586 44.4467 17.2379 42.7248 15.5645C41.0029 13.8913 39.5942 12.4422 39.5942 12.3444C39.5942 12.1095 39.6823 12.0923 44.1325 11.4558C46.2412 11.1543 48.1645 10.8271 48.4063 10.7288C48.7787 10.5775 49.1433 9.94147 50.784 6.58237C51.8552 4.38898 52.8139 2.61467 52.9278 2.61467C53.0409 2.61467 54.0317 4.41245 55.1293 6.60976ZM51.9835 10.7925C51.7829 10.8889 51.4209 11.3595 51.179 11.8382C50.5928 12.9984 50.2914 13.2385 49.2009 13.4133C48.52 13.5223 48.1875 13.6663 47.9274 13.9649C47.4514 14.5114 47.472 15.2015 47.9795 15.709C48.3549 16.0844 48.4604 16.1077 49.4601 16.0362C50.779 15.9419 52.0627 15.3572 52.6542 14.5816C52.8829 14.2819 53.2779 13.5921 53.5323 13.0486C53.9373 12.1831 53.973 11.9978 53.8196 11.558C53.6525 11.0784 52.9929 10.5834 52.5517 10.6064C52.4398 10.6122 52.1841 10.6959 51.9835 10.7925ZM59.02 62.0073C59.6715 62.4654 60.7206 63.6771 60.7206 63.9718C60.7206 64.0589 54.3426 64.1161 44.6148 64.1161C35.7565 64.1161 28.3948 64.1599 28.2556 64.2132C28.1161 64.2668 27.8947 64.5184 27.7634 64.7724C27.4268 65.4232 27.6099 66.0996 28.2243 66.4742C28.7041 66.7667 29.2382 66.7753 47.15 66.7758C67.5251 66.7764 66.2426 66.7104 67.077 67.8035L67.528 68.3944L67.5756 71.9L67.623 75.4055L67.2257 76.0836C66.9579 76.5406 66.6071 76.8689 66.1506 77.0899L65.4731 77.4179H39.5942H13.7153L13.0378 77.0899C12.5813 76.8689 12.2305 76.5406 11.9627 76.0836L11.5654 75.4055L11.6128 71.9L11.6604 68.3944L12.1114 67.8035C12.8668 66.8138 13.081 66.7764 18.0011 66.7764C22.8535 66.7764 23.142 66.7267 23.4519 65.8378C23.6426 65.291 23.5627 64.9688 23.112 64.4682C22.8123 64.1353 22.6769 64.1161 20.6314 64.1161C19.4415 64.1161 18.4678 64.0563 18.4678 63.983C18.4678 63.8031 19.2862 62.6956 19.6713 62.3543C19.8421 62.2031 20.2573 61.9413 20.594 61.7727C21.1929 61.4728 21.6128 61.4668 39.7764 61.5L58.3463 61.5339L59.02 62.0073ZM20.4015 70.844C19.5501 71.1875 19.3067 72.3242 19.9474 72.9649L20.3314 73.3491H35.567C50.6557 73.3491 50.8059 73.346 51.1432 73.0317C51.8313 72.3907 51.6892 71.3098 50.8616 70.8912C50.5541 70.7357 47.2897 70.695 35.6037 70.7009C27.4269 70.7052 20.586 70.7695 20.4015 70.844ZM54.7753 71.1327C54.178 71.73 54.1453 72.4216 54.6886 72.9649C55.0541 73.3305 55.1645 73.3491 56.9648 73.3491C58.7651 73.3491 58.8756 73.3305 59.241 72.9649C59.7383 72.4677 59.741 71.7799 59.2479 71.2061C58.8807 70.7789 58.8213 70.7656 57.0584 70.7144L55.2462 70.6618L54.7753 71.1327Z" fill="#F08597"/>
</svg>
