<svg width="80" height="80" viewBox="0 0 80 80" fill="none" xmlns="http://www.w3.org/2000/svg">
<path fill-rule="evenodd" clip-rule="evenodd" d="M22.5815 6.19549C21.5897 6.4617 20.6857 6.97858 19.9561 7.69672C18.6682 8.96415 18.2155 10.1265 18.088 12.4933L18.0022 14.0885H14.6572C11.0192 14.0885 10.3206 14.1836 9.10498 14.8441C8.37068 15.243 7.37238 16.1811 6.91886 16.898C6.74827 17.1678 6.47174 17.7669 6.30434 18.2292L6 19.07V44.044V69.0179L6.30434 69.8587C7.04129 71.8941 8.52186 73.2739 10.5291 73.7958C11.221 73.9757 14.6554 73.9995 40 73.9995C71.3697 73.9995 69.4166 74.0473 70.895 73.2439C71.6293 72.8449 72.6276 71.9068 73.0811 71.1899C73.2517 70.9201 73.5283 70.321 73.6957 69.8587L74 69.0179V44.044V19.07L73.6957 18.2292C72.9587 16.1939 71.4781 14.814 69.4709 14.2921C68.8698 14.1358 67.9254 14.0885 65.4094 14.0885H62.1309L62.045 12.4933C61.9176 10.1265 61.4648 8.96415 60.177 7.69672C57.8828 5.43883 54.1876 5.43883 51.8935 7.69672C50.6056 8.96415 50.1529 10.1265 50.0254 12.4933L49.9396 14.0885H48.0509H46.1622L46.0764 12.4933C45.9489 10.1265 45.4962 8.96415 44.2083 7.69672C41.9141 5.43883 38.219 5.43883 35.9248 7.69672C34.6369 8.96415 34.1842 10.1265 34.0567 12.4933L33.9709 14.0885H32.0822H30.1935L30.1077 12.4933C29.9802 10.1265 29.5275 8.96415 28.2396 7.69672C26.7617 6.24212 24.5719 5.66107 22.5815 6.19549ZM24.9602 10.2032C25.2149 10.3308 25.5592 10.6385 25.7253 10.8867C25.9908 11.2834 26.0274 11.5047 26.0274 12.7133V14.0885H24.0978H22.1683V12.7133C22.1683 11.5047 22.2049 11.2834 22.4704 10.8867C22.8186 10.3663 23.5214 9.97081 24.0978 9.97081C24.3174 9.97081 24.7055 10.0754 24.9602 10.2032ZM40.9288 10.2032C41.1835 10.3308 41.5279 10.6385 41.694 10.8867C41.9595 11.2834 41.9961 11.5047 41.9961 12.7133V14.0885H40.0665H38.137V12.7133C38.137 11.5047 38.1736 11.2834 38.4391 10.8867C38.7873 10.3663 39.4901 9.97081 40.0665 9.97081C40.2861 9.97081 40.6741 10.0754 40.9288 10.2032ZM56.8975 10.2032C57.1522 10.3308 57.4966 10.6385 57.6627 10.8867C57.9282 11.2834 57.9648 11.5047 57.9648 12.7133V14.0885H56.0352H54.1057V12.7133C54.1057 11.5047 54.1423 11.2834 54.4077 10.8867C54.756 10.3663 55.4588 9.97081 56.0352 9.97081C56.2548 9.97081 56.6428 10.0754 56.8975 10.2032ZM26.0269 19.3689C26.0262 21.2498 25.6237 21.811 24.0978 22.0589C23.6767 22.1273 23.1872 22.2781 23.01 22.394C21.7953 23.1886 21.925 25.1541 23.2355 25.8114C24.455 26.4231 26.8281 25.7217 28.2396 24.3326C29.5118 23.0807 29.9737 21.911 30.1054 19.6085L30.1932 18.0737H36.0946H41.9961L41.9956 19.3689C41.9949 21.2498 41.5923 21.811 40.0665 22.0589C39.6454 22.1273 39.1559 22.2781 38.9787 22.394C37.764 23.1886 37.8937 25.1541 39.2042 25.8114C40.4237 26.4231 42.7968 25.7217 44.2083 24.3326C45.4805 23.0807 45.9423 21.911 46.0741 19.6085L46.1619 18.0737H52.0633H57.9648L57.9642 19.3689C57.9636 21.2498 57.561 21.811 56.0352 22.0589C55.6141 22.1273 55.1246 22.2781 54.9474 22.394C53.7327 23.1886 53.8624 25.1541 55.1729 25.8114C56.3924 26.4231 58.7655 25.7217 60.177 24.3326C61.4491 23.0807 61.911 21.911 62.0428 19.6085L62.1306 18.0737L65.2707 18.0739C68.7857 18.0741 69.0655 18.1328 69.6392 18.99C69.9406 19.4405 69.9413 19.4527 69.9413 24.7354V30.0293H40H10.0587V24.7354C10.0587 19.4527 10.0594 19.4405 10.3608 18.99C10.9903 18.0492 10.7609 18.0741 18.8082 18.0739L26.0274 18.0737L26.0269 19.3689ZM69.9413 43.9775V53.9406H62.7501C55.8054 53.9406 55.5409 53.9497 55.0337 54.208C54.6956 54.3801 54.4129 54.6623 54.2405 54.9998C53.9817 55.5062 53.9726 55.77 53.9726 62.7691V70.0142L32.7808 70.014C12.8709 70.0138 11.561 69.9998 11.1259 69.7815C10.8712 69.6538 10.5269 69.3462 10.3608 69.0979L10.0587 68.6465V51.3305V34.0145H40H69.9413V43.9775ZM19.0758 38.2736C18.514 38.5697 18.0431 39.3535 18.0431 39.9923C18.0431 40.6515 18.5137 41.4168 19.1042 41.7175C19.5731 41.9564 19.8865 41.9849 22.0352 41.9849C24.1839 41.9849 24.4973 41.9564 24.9663 41.7175C25.5567 41.4168 26.0274 40.6515 26.0274 39.9923C26.0274 39.3332 25.5567 38.5679 24.9663 38.2671C24.4951 38.0272 24.1909 38.0004 22.0073 38.0056C19.8478 38.0108 19.5174 38.041 19.0758 38.2736ZM31.0523 38.2736C30.4905 38.5697 30.0196 39.3535 30.0196 39.9923C30.0196 40.6515 30.4902 41.4168 31.0807 41.7175C31.5496 41.9564 31.863 41.9849 34.0117 41.9849C36.1605 41.9849 36.4738 41.9564 36.9428 41.7175C37.5332 41.4168 38.0039 40.6515 38.0039 39.9923C38.0039 39.3332 37.5332 38.5679 36.9428 38.2671C36.4716 38.0272 36.1674 38.0004 33.9838 38.0056C31.8243 38.0108 31.4939 38.041 31.0523 38.2736ZM43.0289 38.2736C42.467 38.5697 41.9961 39.3535 41.9961 39.9923C41.9961 40.6515 42.4668 41.4168 43.0572 41.7175C43.5262 41.9564 43.8395 41.9849 45.9883 41.9849C48.137 41.9849 48.4504 41.9564 48.9193 41.7175C49.5098 41.4168 49.9804 40.6515 49.9804 39.9923C49.9804 39.3332 49.5098 38.5679 48.9193 38.2671C48.4481 38.0272 48.1439 38.0004 45.9603 38.0056C43.8008 38.0108 43.4704 38.041 43.0289 38.2736ZM55.0054 38.2736C54.4435 38.5697 53.9726 39.3535 53.9726 39.9923C53.9726 40.6515 54.4433 41.4168 55.0337 41.7175C55.5027 41.9564 55.8161 41.9849 57.9648 41.9849C60.1135 41.9849 60.4269 41.9564 60.8958 41.7175C61.4863 41.4168 61.9569 40.6515 61.9569 39.9923C61.9569 39.3332 61.4863 38.5679 60.8958 38.2671C60.4246 38.0272 60.1204 38.0004 57.9368 38.0056C55.7773 38.0108 55.4469 38.041 55.0054 38.2736ZM19.0758 46.2441C18.514 46.5402 18.0431 47.3239 18.0431 47.9627C18.0431 48.6219 18.5137 49.3872 19.1042 49.6879C19.5731 49.9268 19.8865 49.9554 22.0352 49.9554C24.1839 49.9554 24.4973 49.9268 24.9663 49.6879C25.5567 49.3872 26.0274 48.6219 26.0274 47.9627C26.0274 47.3036 25.5567 46.5383 24.9663 46.2376C24.4951 45.9976 24.1909 45.9708 22.0073 45.976C19.8478 45.9812 19.5174 46.0115 19.0758 46.2441ZM31.0523 46.2441C30.4905 46.5402 30.0196 47.3239 30.0196 47.9627C30.0196 48.6219 30.4902 49.3872 31.0807 49.6879C31.5496 49.9268 31.863 49.9554 34.0117 49.9554C36.1605 49.9554 36.4738 49.9268 36.9428 49.6879C37.5332 49.3872 38.0039 48.6219 38.0039 47.9627C38.0039 47.3036 37.5332 46.5383 36.9428 46.2376C36.4716 45.9976 36.1674 45.9708 33.9838 45.976C31.8243 45.9812 31.4939 46.0115 31.0523 46.2441ZM43.0289 46.2441C42.467 46.5402 41.9961 47.3239 41.9961 47.9627C41.9961 48.6219 42.4668 49.3872 43.0572 49.6879C43.5262 49.9268 43.8395 49.9554 45.9883 49.9554C48.137 49.9554 48.4504 49.9268 48.9193 49.6879C49.5098 49.3872 49.9804 48.6219 49.9804 47.9627C49.9804 47.3036 49.5098 46.5383 48.9193 46.2376C48.4481 45.9976 48.1439 45.9708 45.9603 45.976C43.8008 45.9812 43.4704 46.0115 43.0289 46.2441ZM55.0054 46.2441C54.4435 46.5402 53.9726 47.3239 53.9726 47.9627C53.9726 48.6219 54.4433 49.3872 55.0337 49.6879C55.5027 49.9268 55.8161 49.9554 57.9648 49.9554C60.1135 49.9554 60.4269 49.9268 60.8958 49.6879C61.4863 49.3872 61.9569 48.6219 61.9569 47.9627C61.9569 47.3036 61.4863 46.5383 60.8958 46.2376C60.4246 45.9976 60.1204 45.9708 57.9368 45.976C55.7773 45.9812 55.4469 46.0115 55.0054 46.2441ZM19.0758 54.2145C18.514 54.5106 18.0431 55.2943 18.0431 55.9332C18.0431 56.5923 18.5137 57.3576 19.1042 57.6584C19.5731 57.8972 19.8865 57.9258 22.0352 57.9258C24.1839 57.9258 24.4973 57.8972 24.9663 57.6584C25.5567 57.3576 26.0274 56.5923 26.0274 55.9332C26.0274 55.274 25.5567 54.5087 24.9663 54.208C24.4951 53.9681 24.1909 53.9412 22.0073 53.9464C19.8478 53.9516 19.5174 53.9819 19.0758 54.2145ZM31.0523 54.2145C30.4905 54.5106 30.0196 55.2943 30.0196 55.9332C30.0196 56.5923 30.4902 57.3576 31.0807 57.6584C31.5496 57.8972 31.863 57.9258 34.0117 57.9258C36.1605 57.9258 36.4738 57.8972 36.9428 57.6584C37.5332 57.3576 38.0039 56.5923 38.0039 55.9332C38.0039 55.274 37.5332 54.5087 36.9428 54.208C36.4716 53.9681 36.1674 53.9412 33.9838 53.9464C31.8243 53.9516 31.4939 53.9819 31.0523 54.2145ZM43.0289 54.2145C42.467 54.5106 41.9961 55.2943 41.9961 55.9332C41.9961 56.5923 42.4668 57.3576 43.0572 57.6584C43.5262 57.8972 43.8395 57.9258 45.9883 57.9258C48.137 57.9258 48.4504 57.8972 48.9193 57.6584C49.5098 57.3576 49.9804 56.5923 49.9804 55.9332C49.9804 55.274 49.5098 54.5087 48.9193 54.208C48.4481 53.9681 48.1439 53.9412 45.9603 53.9464C43.8008 53.9516 43.4704 53.9819 43.0289 54.2145ZM63.6201 61.4128C61.7278 63.3308 59.6813 65.4076 59.0722 66.0281L57.9648 67.1563V62.541V57.9258H62.5127H67.0605L63.6201 61.4128ZM69.7104 68.9883C69.5812 69.2086 69.3065 69.5145 69.1001 69.6682C68.741 69.9357 68.5512 69.9496 64.7258 69.9867L60.7268 70.0255L65.3008 65.3725L69.8748 60.7194L69.91 64.6537C69.942 68.2128 69.9229 68.6262 69.7104 68.9883ZM19.0758 62.1849C18.514 62.481 18.0431 63.2648 18.0431 63.9036C18.0431 64.5627 18.5137 65.328 19.1042 65.6288C19.5731 65.8676 19.8865 65.8962 22.0352 65.8962C24.1839 65.8962 24.4973 65.8676 24.9663 65.6288C25.5567 65.328 26.0274 64.5627 26.0274 63.9036C26.0274 63.2444 25.5567 62.4791 24.9663 62.1784C24.4951 61.9385 24.1909 61.9116 22.0073 61.9168C19.8478 61.922 19.5174 61.9523 19.0758 62.1849ZM31.0523 62.1849C30.4905 62.481 30.0196 63.2648 30.0196 63.9036C30.0196 64.5627 30.4902 65.328 31.0807 65.6288C31.5496 65.8676 31.863 65.8962 34.0117 65.8962C36.1605 65.8962 36.4738 65.8676 36.9428 65.6288C37.5332 65.328 38.0039 64.5627 38.0039 63.9036C38.0039 63.2444 37.5332 62.4791 36.9428 62.1784C36.4716 61.9385 36.1674 61.9116 33.9838 61.9168C31.8243 61.922 31.4939 61.9523 31.0523 62.1849ZM43.0289 62.1849C42.467 62.481 41.9961 63.2648 41.9961 63.9036C41.9961 64.5627 42.4668 65.328 43.0572 65.6288C43.5262 65.8676 43.8395 65.8962 45.9883 65.8962C48.137 65.8962 48.4504 65.8676 48.9193 65.6288C49.5098 65.328 49.9804 64.5627 49.9804 63.9036C49.9804 63.2444 49.5098 62.4791 48.9193 62.1784C48.4481 61.9385 48.1439 61.9116 45.9603 61.9168C43.8008 61.922 43.4704 61.9523 43.0289 62.1849Z" fill="#F08597"/>
</svg>
