<svg width="80" height="80" viewBox="0 0 80 80" fill="none" xmlns="http://www.w3.org/2000/svg">
<path fill-rule="evenodd" clip-rule="evenodd" d="M58.3432 5.05015C55.3157 5.53431 52.7833 6.80465 50.7553 8.85665C47.9844 11.6604 46.5701 15.6892 47.0253 19.4833C47.1169 20.2476 47.3135 21.271 47.4622 21.7575C47.6109 22.2442 47.6955 22.6799 47.65 22.7257C47.6047 22.7717 44.6604 24.544 41.1071 26.6643L34.6468 30.5192L33.3604 29.2663C31.2837 27.2431 29.1251 25.9772 26.5784 25.2884C21.411 23.8908 16.2419 25.1456 12.0742 28.8089C10.6581 30.0537 9.01855 32.3836 8.23508 34.2648C4.23134 43.8784 10.3813 54.6617 20.6321 56.0018C24.4678 56.5032 28.5884 55.3836 31.8709 52.9476C32.2806 52.6436 33.1059 51.8855 33.705 51.2627L34.7944 50.1306L41.2202 53.8064C45.4048 56.2003 47.6297 57.5471 47.5994 57.6679C47.5737 57.7702 47.4297 58.3155 47.2794 58.88C46.9225 60.2204 46.8877 63.1397 47.2117 64.5748C48.6508 70.9506 54.2795 75.3326 60.5774 74.9802C64.4065 74.766 67.7897 73.0409 70.0711 70.1394C74.2405 64.837 73.9286 57.556 69.326 52.7412C66.7784 50.0761 63.6057 48.7126 59.9658 48.7184C57.7791 48.7219 56.0545 49.1285 54.1455 50.0906C52.8385 50.7496 52.1576 51.2436 50.9507 52.4088L49.914 53.4097L43.4991 49.7283C39.894 47.6593 37.1009 45.9741 37.1226 45.881C37.1436 45.7899 37.3084 45.2009 37.4887 44.5722C38.2503 41.9162 38.2439 38.8364 37.4715 36.2111C37.2756 35.5452 37.1082 34.8849 37.0997 34.7438C37.0877 34.545 38.5445 33.6166 43.5791 30.6149L50.0741 26.7426L51.0268 27.6556C53.4975 30.0236 56.4673 31.2408 59.8327 31.2649C62.1182 31.2812 63.8264 30.8899 65.7906 29.8999C67.1136 29.233 67.8029 28.7361 68.9536 27.6196C74.9928 21.7603 74.1339 11.918 67.1681 7.16045C66.1496 6.46486 64.3829 5.67978 63.1357 5.36859C62.0217 5.09065 59.2441 4.90619 58.3432 5.05015ZM61.6146 9.82963C66.1138 10.7688 69.0357 15.08 68.2399 19.6052C67.6702 22.8442 65.16 25.5707 62.0046 26.3779C60.9694 26.6428 58.9667 26.6428 57.9315 26.3779C55.0433 25.639 52.6027 23.2014 51.8355 20.2894C51.52 19.0923 51.5193 17.0569 51.8339 15.9788C52.753 12.8286 55.1814 10.4902 58.2078 9.84112C59.4595 9.57263 60.3689 9.56962 61.6146 9.82963ZM24.6356 29.6074C28.6341 30.3502 31.9897 33.571 33.1059 37.7373C33.5469 39.3833 33.5184 41.6999 33.0375 43.3216C32.3886 45.5097 31.5137 46.9318 29.8343 48.5286C28.9502 49.3689 28.4378 49.7249 27.3506 50.2536C25.4637 51.1715 24.4579 51.4062 22.4601 51.3949C19.4352 51.3781 16.9046 50.3233 14.8095 48.206C13.887 47.2737 13.3891 46.5611 12.7191 45.214C11.9523 43.6723 11.669 42.4059 11.659 40.4742C11.6484 38.433 11.8843 37.407 12.7989 35.5164C14.1695 32.6825 16.7619 30.5508 19.8225 29.7411C20.9877 29.4328 23.3436 29.3674 24.6356 29.6074ZM62.0046 53.6127C65.16 54.4198 67.6702 57.1463 68.2399 60.3853C69.0319 64.8893 66.0908 69.2403 61.6325 70.1598C60.3161 70.4313 59.6143 70.4307 58.3037 70.1572C54.4009 69.3425 51.6006 65.8933 51.5922 61.8906C51.589 60.4203 51.7987 59.52 52.4821 58.0695C53.4685 55.9753 55.5903 54.2231 57.8693 53.621C58.8621 53.3587 60.9949 53.3543 62.0046 53.6127Z" fill="#F08597"/>
</svg>
