<svg width="80" height="80" viewBox="0 0 80 80" fill="none" xmlns="http://www.w3.org/2000/svg">
<path fill-rule="evenodd" clip-rule="evenodd" d="M36.7459 6.08537C30.2977 6.75343 24.1913 9.21156 18.9948 13.2312C17.5201 14.3719 14.367 17.5243 13.226 18.9986C11.1324 21.7041 9.117 25.3091 7.99086 28.3635C7.36058 30.0728 6.56502 33.2446 6.25547 35.2822C5.91518 37.5213 5.91478 42.485 6.25467 44.7289C6.55903 46.7387 7.36364 49.9334 7.99938 51.6563C9.1359 54.7366 11.1329 58.3103 13.2275 61.0125C14.31 62.4092 17.3511 65.484 18.7133 66.5593C21.4632 68.7299 25.2068 70.8449 28.3531 72.0054C30.079 72.6421 33.2746 73.4461 35.282 73.7489C37.2488 74.0456 42.3575 74.0897 44.1985 73.8257C50.6075 72.9071 56.0221 70.6376 61.0334 66.7698C62.4014 65.714 65.4781 62.6682 66.565 61.2939C68.7104 58.5814 70.8742 54.7547 72.0147 51.6563C72.6504 49.9294 73.4545 46.7343 73.7582 44.7289C73.9397 43.5304 74 42.3527 74 40.0056C74 36.4064 73.8177 34.8755 73.0088 31.6812C72.3664 29.1444 71.7765 27.5476 70.5537 25.0372C67.9425 19.6761 63.8997 15.0668 58.8376 11.679C54.5906 8.83702 50.0372 7.08566 44.7974 6.27909C43.1247 6.02151 38.4478 5.90908 36.7459 6.08537ZM42.7346 10.0702C53.1784 11.0272 62.4256 17.431 67.027 26.893C68.4296 29.7773 69.2259 32.3287 69.7702 35.6814C70.1019 37.725 70.1019 42.2861 69.7702 44.3298C69.2259 47.6824 68.4296 50.2338 67.027 53.1181C64.0576 59.2242 59.2391 64.0398 53.115 67.0218C50.2416 68.421 47.6861 69.2184 44.3316 69.7627C42.2859 70.0945 37.7246 70.0944 35.6813 69.7623C29.9232 68.8264 24.9224 66.5614 20.5764 62.9214C13.9497 57.3709 9.93013 48.7186 9.93013 40.0056C9.93013 31.2888 13.9304 22.6763 20.5764 17.0851C26.7517 11.8898 34.7971 9.34275 42.7346 10.0702ZM39.043 14.3347C38.1402 14.8113 38.0102 15.2791 38.0102 18.052C38.0102 20.8515 38.1378 21.2995 39.0714 21.7757C39.7365 22.115 40.2763 22.115 40.9415 21.7757C41.875 21.2995 42.0027 20.8515 42.0027 18.052C42.0027 15.9036 41.974 15.5902 41.7348 15.1213C41.2437 14.159 40.0416 13.8077 39.043 14.3347ZM22.0724 21.3776C20.7238 22.1996 20.8012 24.1066 22.212 24.8167C23.0623 25.2446 23.7458 25.1283 24.4358 24.4385C25.1259 23.7486 25.2422 23.0652 24.8142 22.2152C24.2906 21.1756 23.0337 20.7915 22.0724 21.3776ZM55.9742 21.3607C55.3113 21.7161 54.8545 22.6423 54.979 23.379C55.107 24.1364 55.8766 24.908 56.6313 25.0355C57.3731 25.1607 58.3197 24.6974 58.6622 24.0414C59.5803 22.2825 57.7185 20.4257 55.9742 21.3607ZM39.043 26.3094C38.739 26.47 38.4414 26.776 38.2778 27.0966C38.0207 27.6006 38.0102 27.872 38.0102 34.0195C38.0102 39.6123 38.0369 40.4715 38.2226 40.8438C38.5156 41.4311 50.4687 53.4005 51.0802 53.7188C51.3518 53.8603 51.7584 53.976 51.9838 53.976C52.6442 53.976 53.4109 53.5054 53.7122 52.9151C54.0486 52.2557 54.0518 51.7083 53.7228 51.0768C53.5815 50.8054 50.8866 48.0089 47.7341 44.8625L42.0027 39.1419V33.3816C42.0027 27.8708 41.9911 27.5983 41.7348 27.096C41.2437 26.1337 40.0416 25.7824 39.043 26.3094ZM15.0883 38.2841C14.5264 38.5807 14.0554 39.3657 14.0554 40.0056C14.0554 40.6658 14.5261 41.4323 15.1166 41.7335C15.5856 41.9727 15.899 42.0013 18.0479 42.0013C20.8481 42.0013 21.2961 41.8737 21.7724 40.9404C22.1118 40.2754 22.1118 39.7357 21.7724 39.0707C21.294 38.1333 20.8514 38.0088 18.0199 38.0156C15.8603 38.0208 15.5298 38.0512 15.0883 38.2841ZM59.0054 38.2841C58.4435 38.5807 57.9725 39.3657 57.9725 40.0056C57.9725 40.6658 58.4432 41.4323 59.0337 41.7335C59.5027 41.9727 59.8161 42.0013 61.965 42.0013C64.1139 42.0013 64.4273 41.9727 64.8962 41.7335C65.4867 41.4323 65.9574 40.6658 65.9574 40.0056C65.9574 39.3454 65.4867 38.5788 64.8962 38.2776C64.425 38.0373 64.1208 38.0104 61.937 38.0156C59.7774 38.0208 59.4469 38.0512 59.0054 38.2841ZM22.1874 55.2007C21.1729 55.742 20.8004 56.9947 21.3743 57.9355C22.1862 59.267 24.0694 59.2038 24.8079 57.8206C25.7097 56.1311 23.8773 54.2991 22.1874 55.2007ZM56.2893 55.0527C56.0588 55.1195 55.6906 55.3787 55.471 55.6287C54.3387 56.9181 55.2487 58.9 56.9723 58.8984C58.9914 58.8966 59.6374 56.131 57.8346 55.2068C57.2108 54.8869 56.9512 54.8611 56.2893 55.0527ZM39.043 58.242C38.1402 58.7186 38.0102 59.1864 38.0102 61.9592C38.0102 64.1076 38.0388 64.4209 38.2781 64.8898C38.5794 65.4801 39.3461 65.9507 40.0064 65.9507C40.6668 65.9507 41.4335 65.4801 41.7348 64.8898C41.974 64.4209 42.0027 64.1076 42.0027 61.9592C42.0027 59.8108 41.974 59.4974 41.7348 59.0286C41.2437 58.0662 40.0416 57.7149 39.043 58.242Z" fill="#F08597"/>
</svg>
