<svg width="80" height="80" viewBox="0 0 80 80" fill="none" xmlns="http://www.w3.org/2000/svg">
<path fill-rule="evenodd" clip-rule="evenodd" d="M32.8469 3.47107L25.8949 6.94215H17.1438C8.74942 6.94215 8.35587 6.95587 7.49421 7.27818C6.23008 7.75124 5.19537 8.72182 4.54331 10.0466L4 11.1501V35.7025V60.2549L4.54331 61.3583C5.19537 62.6831 6.23008 63.6537 7.49421 64.1268C8.36562 64.4527 8.73504 64.4628 19.7914 64.4628H31.1901V70.5785V76.6942H28.1213C26.1869 76.6942 24.9192 76.7625 24.6916 76.8788C23.6479 77.4126 23.4243 78.7058 24.2352 79.5169L24.7183 80H40.4463H56.1742L56.6574 79.5169C57.4683 78.7058 57.2446 77.4126 56.201 76.8788C55.9734 76.7625 54.7056 76.6942 52.7712 76.6942H49.7025V70.5785V64.4628H61.1012C72.1575 64.4628 72.5269 64.4527 73.3983 64.1268C74.6625 63.6537 75.6972 62.6831 76.3493 61.3583L76.8926 60.2549V35.7025V11.1501L76.3493 10.0466C75.6972 8.72182 74.6625 7.75124 73.3983 7.27818C72.5367 6.95587 72.1431 6.94215 63.7488 6.94215H54.9977L48.0456 3.47107C42.5502 0.727273 40.958 0 40.4463 0C39.9345 0 38.3423 0.727273 32.8469 3.47107ZM50.2807 8.30512C55.599 10.9638 59.9504 13.1772 59.9504 13.2236C59.9504 13.2701 55.562 15.5012 50.1983 18.1818L40.4463 23.0555L30.6942 18.1818C25.3306 15.5012 20.9421 13.2701 20.9421 13.2236C20.9421 13.1069 40.1488 3.4919 40.4046 3.48033C40.518 3.47521 44.9623 5.64645 50.2807 8.30512ZM18.4628 10.6537C17.3408 11.2425 16.7871 11.9081 16.6879 12.7874C16.4884 14.5574 16.9336 15.0183 20.6279 16.8678L23.5714 18.3412L23.6203 24.3493L23.6694 30.3572L24.1707 31.1676C24.9469 32.4226 25.7212 32.8446 28.0876 33.3025C35.3512 34.7079 42.8564 34.8445 50.4463 33.7093C54.9633 33.0336 55.8473 32.6714 56.7575 31.1226L57.2231 30.3306L57.2722 24.3377L57.3212 18.3448L58.14 17.9299L58.9587 17.515V23.1504V28.7858L59.4418 29.2689C60.2888 30.1159 61.7033 29.8248 62.0868 28.7248C62.2012 28.3967 62.2645 26.0255 62.2645 22.0691V15.9231L62.879 15.5236C63.217 15.3038 63.6699 14.8636 63.8853 14.5455C64.2129 14.0618 64.2663 13.8111 64.2107 13.0164C64.1336 11.9139 63.6769 11.3081 62.4298 10.6537L61.6859 10.2633L66.8595 10.2557C72.4936 10.2473 72.6494 10.2699 73.2731 11.1899C73.5765 11.6377 73.5883 12.3365 73.6306 32.5207L73.6744 53.3884H40.4463H7.21818L7.26198 32.5207C7.3043 12.3569 7.31636 11.6374 7.61868 11.1912C8.23868 10.2767 8.34595 10.2612 14 10.2623L19.2066 10.2633L18.4628 10.6537ZM40.4463 26.4463C40.955 26.4463 42.4664 25.7605 47.5463 23.2248L54 20.0031V24.7086C54 29.4068 53.9995 29.4142 53.6281 29.6539C53.1964 29.9324 49.0253 30.6431 46.1488 30.9283C45.0578 31.0365 42.4917 31.125 40.4463 31.125C38.4008 31.125 35.8347 31.0365 34.7438 30.9283C31.8673 30.6431 27.6962 29.9324 27.2645 29.6539C26.8931 29.4142 26.8926 29.4068 26.8926 24.7086V20.0031L33.3463 23.2248C38.4261 25.7605 39.9375 26.4463 40.4463 26.4463ZM17.1278 38.8302C16.4937 39.4643 16.4582 40.4259 17.0435 41.1064L17.4425 41.5702H19.8678H22.2931L22.6921 41.1064C23.2774 40.4259 23.2418 39.4643 22.6078 38.8302L22.1246 38.3471H19.8678H17.6109L17.1278 38.8302ZM27.8716 38.8302C27.2375 39.4643 27.202 40.4259 27.7873 41.1064L28.1863 41.5702H37.1914C45.8375 41.5702 46.2107 41.5575 46.5471 41.2531C47.3048 40.5674 47.2531 39.3159 46.4405 38.6767C46.0339 38.3569 45.7623 38.3471 37.1881 38.3471H28.3547L27.8716 38.8302ZM17.5301 46.4385C16.5484 46.8524 16.3291 48.305 17.1278 49.1036L17.6109 49.5868H19.8678H22.1246L22.6078 49.1036C23.2417 48.4697 23.2774 47.5081 22.6924 46.8274C22.2964 46.3664 22.2803 46.3635 20.0891 46.3264C18.8765 46.306 17.725 46.3564 17.5301 46.4385ZM28.2739 46.4436C27.2939 46.8425 27.0727 48.3048 27.8716 49.1036L28.3547 49.5868H45.8182H63.2817L63.7648 49.1036C64.3988 48.4696 64.4344 47.5079 63.8491 46.8274L63.4501 46.3636L46.0392 46.3316C36.4316 46.3139 28.4694 46.3641 28.2739 46.4436ZM73.5818 58.2645C73.578 59.436 73.5114 59.8504 73.2681 60.215C72.5944 61.2248 74.9564 61.1572 40.4132 61.1559C9.92926 61.1549 8.77669 61.1438 8.32975 60.8491C7.54413 60.3311 7.33603 59.8745 7.25603 58.4926C7.21504 57.785 7.22595 57.0907 7.28 56.9497C7.36843 56.7192 10.6992 56.6975 40.4826 56.7352L73.5868 56.7769L73.5818 58.2645ZM46.3574 70.6198L46.4008 76.6942H40.4483H34.4959V70.6888C34.4959 67.3856 34.5464 64.6327 34.6081 64.5709C34.6699 64.5091 37.3289 64.4782 40.5172 64.502L46.314 64.5455L46.3574 70.6198Z" fill="#F08597"/>
</svg>
