<svg width="40" height="40" viewBox="0 0 40 40" fill="none" xmlns="http://www.w3.org/2000/svg">
<path fill-rule="evenodd" clip-rule="evenodd" d="M8.74957 4.45288C7.88448 4.66352 7.28308 5.36544 7.22185 6.23595C7.18461 6.76604 7.26981 7.10917 7.54098 7.52118C7.80723 7.92573 8.21018 8.1999 8.74642 8.34145L9.17657 8.45503V9.4261V10.3972L8.96307 10.4386C8.3076 10.5659 8.08983 10.6424 7.74509 10.8668C7.30114 11.1555 7.01177 11.5002 6.76155 12.0383C6.61053 12.3631 6.57854 12.5314 6.55955 13.1018L6.53695 13.7794H6.0243C4.65509 13.7794 3.6196 14.5424 3.28773 15.7959C3.21704 16.0628 3.20003 17.7297 3.19944 24.4593C3.19858 33.5238 3.18649 33.2091 3.56094 33.8522C3.92657 34.4803 4.61528 34.9698 5.35326 35.1262C5.60282 35.1791 9.42679 35.2 18.8555 35.2C30.4616 35.2 32.0551 35.1881 32.3962 35.0987C33.4756 34.8157 34.2273 33.9954 34.4044 32.9073C34.4388 32.6956 34.4666 32.0464 34.4663 31.4646C34.4655 30.4765 34.5442 29.7928 35.6597 21.0856C36.7647 12.4604 36.8486 11.733 36.7825 11.3447C36.6005 10.2752 35.8611 9.45783 34.8317 9.18802C34.4946 9.0997 33.7526 9.08541 29.4975 9.08541C26.0881 9.08541 24.4469 9.10849 24.2067 9.15973C23.0016 9.4171 22.1178 10.4887 22.1178 11.6926C22.1178 12.0098 22.9001 18.4236 23.076 19.5478L23.1147 19.7957H21.471H19.8274L19.8054 17.8289C19.7851 16.0046 19.7734 15.837 19.6439 15.5169C19.4346 14.9997 19.0705 14.5447 18.6281 14.2473C18.1211 13.9066 17.8915 13.8383 17.116 13.7977L16.4827 13.7646L16.4566 13.0944C16.4351 12.5411 16.3997 12.3568 16.2534 12.0383C15.8353 11.1277 15.1388 10.6145 14.087 10.4421L13.8407 10.4017V9.413V8.42429H14.2041C14.7238 8.42429 14.9834 8.56035 15.5799 9.14525C16.2042 9.75732 16.5491 9.9507 17.0952 9.9948C17.6815 10.0422 18.1458 9.88684 18.573 9.50027C19.0476 9.07087 19.226 8.66831 19.226 8.02761C19.226 7.27346 19.057 6.96676 18.1508 6.07728C17.384 5.32465 16.9598 5.02463 16.2607 4.74041C15.489 4.4267 15.0909 4.39563 11.9028 4.40045C10.2769 4.4029 8.85796 4.4265 8.74957 4.45288ZM15.2371 5.81064C15.9729 5.96753 16.4937 6.29195 17.2473 7.06269C17.8797 7.70941 17.9135 7.75813 17.9135 8.02311C17.9135 8.52974 17.4143 8.84351 16.9731 8.61416C16.8942 8.57311 16.5893 8.30528 16.2955 8.01901C15.9506 7.68276 15.625 7.43411 15.3759 7.31676L14.9903 7.13508L11.9466 7.10203L8.9029 7.06897L8.71128 6.85305C8.39642 6.49828 8.51236 5.95206 8.93929 5.77845C9.01562 5.74744 10.3639 5.72066 11.9356 5.71901C14.1741 5.71663 14.8894 5.73646 15.2371 5.81064ZM12.5268 9.41598V10.4077H11.5086H10.4904V9.41598V8.42429H11.5086H12.5268V9.41598ZM34.5517 10.4778C34.8746 10.568 35.2459 10.9002 35.3963 11.2335C35.5217 11.5111 35.5449 11.7938 35.4767 12.2093L35.4359 12.4572H29.4696H23.5033L23.4595 12.2227C23.3199 11.4735 23.5934 10.841 24.1748 10.5686L24.5155 10.409L29.4095 10.4087C32.6239 10.4085 34.3887 10.4322 34.5517 10.4778ZM14.1312 11.7932C14.4381 11.8649 14.6492 12.0142 14.9208 12.3518C15.1055 12.5813 15.1235 12.6489 15.1446 13.1904L15.1676 13.7794H11.5086H7.84967L7.87266 13.1959C7.89171 12.711 7.92232 12.5732 8.0539 12.3801C8.24375 12.1014 8.57181 11.8643 8.86421 11.7945C9.16809 11.7219 13.821 11.7208 14.1312 11.7932ZM35.244 13.9943C35.2294 14.1124 34.864 16.9685 34.432 20.3411L33.6466 26.4729L31.0435 26.4731L28.4404 26.4731L28.4109 26.1144C28.3208 25.0204 27.2703 23.9859 26.1093 23.8474L25.7965 23.8102V22.9669C25.7965 22.3129 25.7673 22.0283 25.6663 21.6993C25.5107 21.1923 25.1189 20.6182 24.7558 20.3649C24.5533 20.2237 24.4833 20.1251 24.4532 19.9388C24.3719 19.4343 23.6949 14.0702 23.6946 13.9282L23.6944 13.7794H29.4824H35.2705L35.244 13.9943ZM17.6836 15.227C18.2404 15.4865 18.5047 15.9563 18.5047 16.6863V17.1512H11.5086H4.51248V16.6629C4.51248 15.9739 4.7355 15.5449 5.22845 15.2858L5.57852 15.1017L11.4997 15.1031C17.1229 15.1045 17.434 15.1108 17.6836 15.227ZM18.5047 19.1274V19.7813L17.5358 19.8103C16.7434 19.8341 16.501 19.8655 16.2056 19.9827C15.5395 20.2469 14.9459 20.8443 14.6833 21.5146C14.5669 21.812 14.5357 22.0559 14.5121 22.8534L14.4833 23.8286H14.3053C14.0441 23.8286 13.4537 24.0178 13.1414 24.2016C12.754 24.4296 12.2842 24.9599 12.0788 25.4009L11.9028 25.7789L11.8833 28.1425L11.8637 30.506H8.18811H4.51248V24.4897V18.4735H11.5086H18.5047V19.1274ZM23.5155 21.188C23.8384 21.2783 24.2097 21.6105 24.3602 21.9438C24.4547 22.1532 24.4801 22.3787 24.4812 23.0187L24.4827 23.8286H20.147H15.8114L15.8118 23.0848C15.8122 22.1805 15.8816 21.9057 16.1945 21.5697C16.6113 21.1221 16.5939 21.1241 20.1142 21.1212C22.1209 21.1196 23.3576 21.144 23.5155 21.188ZM26.3864 25.2996C26.5455 25.3815 26.7585 25.5532 26.8596 25.6813C27.0587 25.9335 27.198 26.5025 27.1634 26.922L27.1432 27.1673L20.1635 27.1842L13.1837 27.201V26.6691C13.1837 26.0955 13.2938 25.7781 13.5884 25.5015C13.9701 25.1432 13.7235 25.1562 20.1495 25.1534L26.0971 25.1509L26.3864 25.2996ZM33.4379 27.845C33.4538 27.8723 33.4122 28.2962 33.3452 28.7871C33.2784 29.278 33.2227 29.7168 33.2216 29.7622C33.2201 29.8251 32.945 29.8449 32.0711 29.8449H30.9225L30.7105 30.0355C30.5163 30.2102 30.4964 30.2653 30.4722 30.6966L30.4457 31.1671H29.4678H28.4898V29.4813V27.7954H30.9494C32.3022 27.7954 33.422 27.8177 33.4379 27.845ZM27.1644 30.6932L27.1432 32.8637L26.9434 33.1889C26.8157 33.3969 26.638 33.5738 26.4507 33.6794L26.1578 33.8447H20.1419H14.126L13.8077 33.6464C13.5988 33.5161 13.4371 33.348 13.3367 33.1567C13.1855 32.8687 13.1837 32.8396 13.1837 30.694V28.5226H20.1847H27.1855L27.1644 30.6932ZM33.142 32.0101C33.1136 32.9594 33.0084 33.2693 32.6126 33.5699C32.249 33.8461 31.9851 33.877 29.988 33.8774L28.1031 33.8778L28.2256 33.5968C28.293 33.4423 28.3669 33.1968 28.3899 33.0514C28.4129 32.9059 28.4454 32.72 28.4621 32.6381L28.4923 32.4894H29.9414H31.3904L31.5824 32.2961C31.7585 32.119 31.7744 32.064 31.7744 31.635V31.1671H32.4707H33.1671L33.142 32.0101ZM11.8699 32.4203C11.8699 32.878 11.9053 33.1105 12.026 33.4451L12.1821 33.8778L8.95492 33.8774C6.90568 33.8772 5.63718 33.8517 5.47965 33.8077C5.34314 33.7695 5.12419 33.6435 4.99307 33.5276C4.65069 33.2251 4.51563 32.8812 4.51392 32.3076L4.51248 31.8283H8.1912H11.8699V32.4203Z" fill="black"/>
</svg>
