<svg width="74" height="56" viewBox="0 0 74 56" fill="none" xmlns="http://www.w3.org/2000/svg">
<path d="M4.35355 0.646447C4.15829 0.451184 3.84171 0.451184 3.64645 0.646447L0.464466 3.82843C0.269204 4.02369 0.269204 4.34027 0.464466 4.53553C0.659728 4.7308 0.976311 4.7308 1.17157 4.53553L4 1.70711L6.82843 4.53553C7.02369 4.7308 7.34027 4.7308 7.53553 4.53553C7.7308 4.34027 7.7308 4.02369 7.53553 3.82843L4.35355 0.646447ZM3.5 1V1.95H4.5V1H3.5ZM3.5 3.85V5.75H4.5V3.85H3.5ZM3.5 7.65V9.55H4.5V7.65H3.5ZM3.5 11.45V13.35H4.5V11.45H3.5ZM3.5 15.25V17.15H4.5V15.25H3.5ZM3.5 19.05V20.95H4.5V19.05H3.5ZM3.5 22.85V24.75H4.5V22.85H3.5ZM3.5 26.65V28.55H4.5V26.65H3.5ZM3.5 30.45V32.35H4.5V30.45H3.5ZM3.5 34.25V36.15H4.5V34.25H3.5ZM3.5 38.05V39H4.5V38.05H3.5ZM3.5 39C3.5 39.3627 3.51171 39.7227 3.53478 40.0797L4.5327 40.0152C4.51101 39.6797 4.5 39.3412 4.5 39H3.5ZM3.81405 42.2196C3.95508 42.9325 4.14203 43.6289 4.37169 44.3056L5.31864 43.9842C5.10301 43.3489 4.92747 42.695 4.79504 42.0256L3.81405 42.2196ZM5.19855 46.2996C5.51873 46.9477 5.88019 47.5716 6.27947 48.168L7.11044 47.6117C6.73531 47.0514 6.39579 46.4653 6.09509 45.8567L5.19855 46.2996ZM7.59456 49.8794C8.06955 50.4206 8.57938 50.9305 9.12057 51.4054L9.78021 50.6539C9.27163 50.2075 8.79251 49.7284 8.34614 49.2198L7.59456 49.8794ZM10.832 52.7205C11.4284 53.1198 12.0523 53.4813 12.7004 53.8015L13.1433 52.9049C12.5347 52.6042 11.9486 52.2647 11.3883 51.8896L10.832 52.7205ZM14.6944 54.6283C15.3711 54.858 16.0675 55.0449 16.7804 55.1859L16.9744 54.205C16.305 54.0725 15.6511 53.897 15.0158 53.6814L14.6944 54.6283ZM18.9203 55.4652C19.2773 55.4883 19.6373 55.5 20 55.5V54.5C19.6588 54.5 19.3203 54.489 18.9848 54.4673L18.9203 55.4652ZM20 55.5H20.9643V54.5H20V55.5ZM22.8929 55.5H24.8214V54.5H22.8929V55.5ZM26.75 55.5H28.6786V54.5H26.75V55.5ZM30.6071 55.5H32.5357V54.5H30.6071V55.5ZM34.4643 55.5H36.3929V54.5H34.4643V55.5ZM38.3214 55.5H40.25V54.5H38.3214V55.5ZM42.1786 55.5H44.1071V54.5H42.1786V55.5ZM46.0357 55.5H47.9643V54.5H46.0357V55.5ZM49.8929 55.5H51.8214V54.5H49.8929V55.5ZM53.75 55.5H55.6786V54.5H53.75V55.5ZM57.6071 55.5H59.5357V54.5H57.6071V55.5ZM61.4643 55.5H63.3928V54.5H61.4643V55.5ZM65.3214 55.5H67.25V54.5H65.3214V55.5ZM69.1786 55.5H71.1071V54.5H69.1786V55.5ZM73.0357 55.5H74V54.5H73.0357V55.5Z" fill="#878787"/>
</svg>
