<svg width="80" height="80" viewBox="0 0 80 80" fill="none" xmlns="http://www.w3.org/2000/svg">
<path fill-rule="evenodd" clip-rule="evenodd" d="M52.9296 0C53.5855 0 61.0183 1.18433 62.584 1.53814C63.0033 1.63321 63.3467 1.86716 63.3467 2.05798C63.3467 2.99037 60.0838 12.0803 58.7757 14.7923C52.9778 26.8132 44.2339 32.4333 35.0551 30.0385C27.7101 28.1221 22.6006 20.845 22.7127 12.4606L22.7548 9.33748L23.0595 11.4678C24.0994 18.7324 29.3059 24.7837 35.2571 25.6435C37.2444 25.9307 40.3917 25.3029 42.2011 24.2584C44.2701 23.0643 46.9246 19.9605 48.2347 17.2037C50.061 13.3608 51.5138 7.69307 52.0134 2.4617C52.2198 0.300497 52.3317 0 52.9296 0ZM36.3383 16.6544C39.683 16.6544 42.3944 13.943 42.3944 10.5983C42.3944 7.25354 39.683 4.54211 36.3383 4.54211C32.9935 4.54211 30.2821 7.25354 30.2821 10.5983C30.2821 13.943 32.9935 16.6544 36.3383 16.6544Z" fill="#FF5A08"/>
<path fill-rule="evenodd" clip-rule="evenodd" d="M79.9987 52.9298C79.9987 53.5857 78.8143 61.0185 78.4605 62.5842C78.3654 63.0035 78.1315 63.3468 77.9407 63.3468C77.0083 63.3468 67.9183 60.084 65.2064 58.7759C53.1855 52.9779 47.5653 44.234 49.9601 35.0553C51.8765 27.7103 59.1537 22.6007 67.538 22.7129L70.6612 22.755L68.5309 23.0597C61.2663 24.0996 55.2149 29.3061 54.3552 35.2573C54.068 37.2446 54.6958 40.3919 55.7402 42.2013C56.9344 44.2703 60.0382 46.9247 62.7949 48.2348C66.6379 50.0612 72.3056 51.514 77.537 52.0136C79.6982 52.22 79.9987 52.3319 79.9987 52.9298ZM68.1306 42.3936C71.4753 42.3936 74.1868 39.6822 74.1868 36.3374C74.1868 32.9927 71.4753 30.2813 68.1306 30.2813C64.7859 30.2813 62.0745 32.9927 62.0745 36.3374C62.0745 39.6822 64.7859 42.3936 68.1306 42.3936Z" fill="#B1CB2C"/>
<path fill-rule="evenodd" clip-rule="evenodd" d="M27.0733 80.0001C26.4174 80.0001 18.9846 78.8157 17.4189 78.4619C16.9996 78.3669 16.6562 78.1329 16.6562 77.9421C16.6562 77.0097 19.9191 67.9197 21.2272 65.2078C27.0251 53.1869 35.769 47.5667 44.9478 49.9615C52.2928 51.8779 57.4024 59.1551 57.2902 67.5394L57.2481 70.6626L56.9434 68.5323C55.9035 61.2677 50.697 55.2163 44.7458 54.3566C42.7585 54.0694 39.6112 54.6972 37.8018 55.7416C35.7328 56.9358 33.0783 60.0396 31.7682 62.7963C29.9419 66.6393 28.4891 72.307 27.9895 77.5384C27.7831 79.6996 27.6712 80.0001 27.0733 80.0001ZM43.9089 75.7017C47.2536 75.7017 49.9651 72.9903 49.9651 69.6456C49.9651 66.3009 47.2536 63.5894 43.9089 63.5894C40.5642 63.5894 37.8528 66.3009 37.8528 69.6456C37.8528 72.9903 40.5642 75.7017 43.9089 75.7017Z" fill="#237CF2"/>
<path fill-rule="evenodd" clip-rule="evenodd" d="M0 27.0714C0 26.4155 1.18433 18.9828 1.53814 17.4171C1.63321 16.9978 1.86716 16.6544 2.05798 16.6544C2.99037 16.6544 12.0803 19.9173 14.7923 21.2253C26.8132 27.0233 32.4333 35.7672 30.0385 44.946C28.1221 52.291 20.845 57.4005 12.4606 57.2883L9.33748 57.2463L11.4678 56.9416C18.7323 55.9016 24.7837 50.6952 25.6434 44.744C25.9307 42.7566 25.3029 39.6094 24.2584 37.8C23.0643 35.7309 19.9605 33.0765 17.2037 31.7664C13.3608 29.9401 7.69307 28.4873 2.4617 27.9877C0.300495 27.7812 -1.9259e-06 27.6694 0 27.0714ZM10.5983 49.9633C13.943 49.9633 16.6544 47.2519 16.6544 43.9071C16.6544 40.5624 13.943 37.851 10.5983 37.851C7.25354 37.851 4.54211 40.5624 4.54211 43.9071C4.54211 47.2519 7.25354 49.9633 10.5983 49.9633Z" fill="#535257"/>
</svg>
