<svg width="32" height="32" viewBox="0 0 32 32" fill="none" xmlns="http://www.w3.org/2000/svg">
<path d="M7.50117 20.875H9.37617V22.75H7.50117V20.875ZM11.2512 24.625V20.875H15.0012V26.625H1.87617V20.875H5.62617V24.625H11.2512ZM16.8774 28.5L16.8762 26.625V19H0.00116706V26.625L0 28.5H16.8774Z" fill="black"/>
<path d="M7.50117 12.875H9.37617V14.75H7.50117V12.875ZM11.2512 16.625V12.875H15.0012V18.625H1.87617V12.875H5.62617V16.625H11.2512ZM16.8774 20.5L16.8762 18.625V11H0.00116706V18.625L0 20.5H16.8774Z" fill="black"/>
<path d="M7.50117 4.875H9.37617V6.75H7.50117V4.875ZM11.2512 8.625V4.875H15.0012V10.625H1.87617V4.875H5.62617V8.625H11.2512ZM16.8774 12.5L16.8762 10.625V3H0.00116706V10.625L0 12.5H16.8774Z" fill="black"/>
<path d="M22.5012 20.875H24.3762V22.75H22.5012V20.875ZM26.2512 24.625V20.875H30.0012V26.625H16.8762V20.875H20.6262V24.625H26.2512ZM31.8774 28.5L31.8762 26.625V19H15.0012V26.625L15 28.5H31.8774Z" fill="black"/>
<path d="M22.5012 12.875H24.3762V14.75H22.5012V12.875ZM26.2512 16.625V12.875H30.0012V18.625H16.8762V12.875H20.6262V16.625H26.2512ZM31.8774 20.5L31.8762 18.625V11H15.0012V18.625L15 20.5H31.8774Z" fill="black"/>
<path d="M22.5012 4.875H24.3762V6.75H22.5012V4.875ZM26.2512 8.625V4.875H30.0012V10.625H16.8762V4.875H20.6262V8.625H26.2512ZM31.8774 12.5L31.8762 10.625V3H15.0012V10.625L15 12.5H31.8774Z" fill="black"/>
</svg>
