<svg width="32" height="32" viewBox="0 0 32 32" fill="none" xmlns="http://www.w3.org/2000/svg">
<path d="M25.1911 7.12927C23.0774 4.12398 19.7276 2.40002 16.0011 2.40002C12.2746 2.40002 8.92477 4.12398 6.81108 7.12927C4.70778 10.1194 4.22212 13.9049 5.50935 17.2494C5.85366 18.1627 6.40097 19.05 7.13219 19.8815L15.2641 29.2652C15.448 29.4776 15.7175 29.6 16.0011 29.6C16.2847 29.6 16.5542 29.4777 16.7381 29.2652L24.8678 19.8841C25.6022 19.0478 26.1488 18.1614 26.4903 17.2554C27.7801 13.9049 27.2944 10.1194 25.1911 7.12927ZM24.6774 16.5893C24.4141 17.2884 23.9843 17.9795 23.4005 18.6442C23.3989 18.6458 23.3973 18.6474 23.396 18.6493L16.0011 27.1821L8.60172 18.6439C8.01829 17.9798 7.58843 17.2887 7.32254 16.583C6.25799 13.8171 6.66199 10.6872 8.40358 8.21094C10.1506 5.72682 12.92 4.30211 16.0011 4.30211C19.0822 4.30211 21.8512 5.72677 23.5983 8.21094C25.3402 10.6872 25.7445 13.8171 24.6774 16.5893Z" fill="black"/>
<path d="M16.0004 8C12.9127 8 10.4004 10.3326 10.4004 13.2C10.4004 16.0674 12.9124 18.4 16.0004 18.4C19.0884 18.4 21.6004 16.0674 21.6004 13.2C21.6004 10.3329 19.0881 8 16.0004 8ZM16.0004 16.5428C14.0154 16.5428 12.4004 15.0432 12.4004 13.1999C12.4004 11.3567 14.0154 9.85708 16.0004 9.85708C17.9854 9.85708 19.6004 11.3567 19.6004 13.1999C19.6004 15.0432 17.9854 16.5428 16.0004 16.5428Z" fill="black"/>
</svg>
