<svg width="48" height="48" viewBox="0 0 48 48" fill="none" xmlns="http://www.w3.org/2000/svg">
<path fill-rule="evenodd" clip-rule="evenodd" d="M4.06733 3.99315C2.26298 4.47908 0.784424 5.89321 0.226502 7.66617C0.00132938 8.38198 0 8.43075 0 15.8C0 23.1693 0.00132938 23.218 0.226502 23.9338C0.791378 25.7291 2.27484 27.1337 4.11109 27.612C4.49692 27.7125 5.19278 27.7642 6.15698 27.7642H7.61825V31.2332V34.7022L7.88003 35.0132C8.16053 35.3466 8.66446 35.5025 9.06654 35.3804C9.19794 35.3406 11.0116 33.6085 13.0967 31.5314L16.888 27.755L17.6984 27.7852L18.5088 27.8154L18.5635 30.6275C18.6144 33.2442 18.6344 33.4804 18.8515 34.0261C19.3624 35.3107 20.2687 36.3424 21.4314 36.9632C22.5479 37.5593 22.7696 37.581 27.7059 37.581H32.2073L35.4852 40.8533C38.5948 43.9575 38.7825 44.1256 39.1383 44.1256C39.6386 44.1256 39.9643 43.9646 40.1707 43.6153C40.3186 43.3648 40.3409 42.951 40.3409 40.4541V37.581H41.8022C42.7746 37.581 43.4616 37.5295 43.8555 37.4268C45.6661 36.9552 47.1307 35.5852 47.7273 33.8048C47.9471 33.1488 47.9533 32.9929 47.9877 27.2529C48.028 20.5406 48.0005 20.1426 47.4104 18.9189C46.754 17.5578 45.7912 16.6801 44.3306 16.1113L43.6643 15.8518L38.1679 15.821L32.6716 15.7901V12.1353C32.6716 8.0976 32.6372 7.80493 32.0293 6.65626C31.6082 5.86069 30.6466 4.89916 29.8511 4.47806C28.5787 3.80458 29.2285 3.83506 16.3143 3.84252C6.58247 3.84804 4.51123 3.87361 4.06733 3.99315ZM28.6433 6.30991C29.4171 6.71803 29.7355 7.02623 30.1236 7.74194L30.473 8.38627V15.8V23.2137L30.1236 23.8581C29.7355 24.5738 29.4171 24.882 28.6433 25.2901L28.1211 25.5657L22.1901 25.591C18.928 25.6049 16.144 25.6431 16.0034 25.6757C15.8501 25.7113 14.551 26.9272 12.7567 28.7142L9.76568 31.6934V29.059C9.76568 26.2873 9.71864 25.9654 9.28373 25.7597C9.18321 25.7121 8.08864 25.649 6.85131 25.6195C4.65 25.5668 4.58915 25.5595 4.02274 25.2814C3.3871 24.9692 2.84565 24.4321 2.48416 23.7552L2.24968 23.316L2.22146 16.0252C2.20285 11.2135 2.22944 8.6002 2.29959 8.33974C2.43866 7.82344 2.97122 7.04648 3.44662 6.66669C3.65502 6.50011 4.06917 6.27924 4.36695 6.17575C4.88192 5.9969 5.47563 5.98882 16.5147 6.01101L28.1211 6.03433L28.6433 6.30991ZM6.97474 10.5865C6.58401 10.8937 6.44698 11.4005 6.63371 11.8475C6.93332 12.5645 6.4068 12.5277 16.366 12.5277C24.5445 12.5277 25.3537 12.5128 25.6168 12.3575C26.2084 12.008 26.3146 11.1657 25.8281 10.6792L25.5292 10.3803H16.383C7.36803 10.3803 7.23304 10.3833 6.97474 10.5865ZM7.13978 14.8401C6.8415 14.9873 6.49341 15.5042 6.49341 15.8C6.49341 15.8674 6.56601 16.0754 6.65467 16.2624C6.98353 16.9554 6.5383 16.9248 16.3034 16.9248C25.7811 16.9248 25.5864 16.9354 25.9602 16.4016C26.1742 16.0962 26.1742 15.5038 25.9602 15.1984C25.5862 14.6643 25.7833 14.675 16.2879 14.6775C8.4853 14.6796 7.42723 14.6984 7.13978 14.8401ZM43.8329 18.2693C44.5365 18.5992 45.131 19.175 45.4617 19.8471L45.7095 20.3505V26.7417V33.1328L45.475 33.572C45.1135 34.249 44.5721 34.786 43.9364 35.0982C43.3693 35.3768 43.3119 35.3835 41.1079 35.4336C38.7105 35.4881 38.5284 35.5263 38.303 36.0209C38.2369 36.1662 38.1935 37.0688 38.1935 38.3017C38.1935 39.4238 38.1594 40.342 38.1176 40.342C38.0758 40.342 36.9481 39.2492 35.6116 37.9134L33.1815 35.4847L28.146 35.4336L23.1104 35.3825L22.5882 35.1069C21.8144 34.6988 21.4959 34.3906 21.1079 33.6749L20.7585 33.0305L20.7252 30.3974L20.6921 27.7642H24.3595C27.3227 27.7642 28.1424 27.7342 28.6281 27.6077C30.4797 27.1254 32.0327 25.5723 32.515 23.7207C32.6351 23.2598 32.6716 22.5328 32.6716 20.6018C32.6716 19.2169 32.7042 18.0511 32.7441 18.0113C32.7838 17.9715 35.1652 17.9522 38.0359 17.9687L43.2553 17.9986L43.8329 18.2693ZM7.0408 19.2692C6.60027 19.538 6.43195 20.0566 6.63095 20.5329C6.93854 21.2691 6.23623 21.2197 16.3919 21.2197H25.5292L25.8281 20.9208C26.1577 20.5912 26.2234 20.1116 26.0048 19.6318C25.7407 19.0519 26.0914 19.0723 16.3409 19.0727C7.66948 19.073 7.35156 19.0797 7.0408 19.2692ZM35.5734 21.3666C35.1529 21.5497 34.9212 21.897 34.9212 22.3445C34.9212 22.801 35.1562 23.1431 35.596 23.3268C36.1194 23.5455 40.3349 23.5303 40.8034 23.3081C41.1157 23.1598 41.4658 22.6506 41.4658 22.3445C41.4658 22.0385 41.1157 21.5292 40.8034 21.381C40.3419 21.162 36.0705 21.1503 35.5734 21.3666ZM34.5122 25.689C33.6829 25.9922 33.5907 27.2933 34.3732 27.6499C34.5401 27.726 35.6443 27.7642 37.6732 27.7642C40.5754 27.7642 40.735 27.7543 40.9845 27.5581C41.3752 27.2508 41.5122 26.744 41.3255 26.297C41.0514 25.6411 40.9116 25.6158 37.6106 25.6249C35.9909 25.6293 34.5966 25.6582 34.5122 25.689ZM25.4033 30.3128C24.9169 30.7993 25.023 31.6416 25.6147 31.9911C25.8764 32.1457 26.5774 32.1614 33.2293 32.1614C41.3743 32.1614 41.0291 32.1904 41.3255 31.4811C41.5122 31.0342 41.3752 30.5274 40.9845 30.2201C40.7271 30.0176 40.587 30.0139 33.2123 30.0139H25.7022L25.4033 30.3128Z" fill="#F08597"/>
</svg>
