<svg width="48" height="48" viewBox="0 0 48 48" fill="none" xmlns="http://www.w3.org/2000/svg">
<g clip-path="url(#clip0_3830_15123)">
<path fill-rule="evenodd" clip-rule="evenodd" d="M23.5263 0.541613C23.0801 0.687483 22.8336 0.854807 19.5254 3.25806L16.2218 5.65803L12.4521 5.70487C8.35759 5.75575 8.40209 5.74975 8.06876 6.29641C7.90021 6.57288 7.88672 6.78546 7.88644 9.17662L7.88607 11.7583L4.08866 14.5507C1.67642 16.3245 0.241231 17.4401 0.153822 17.609C-0.0536008 18.0102 -0.0501344 43.1197 0.157475 44.0003C0.587872 45.8257 2.06559 47.3003 3.88827 47.723C4.43502 47.8498 6.80117 47.8636 24.3014 47.8418L44.096 47.8171L44.6581 47.5923C46.3001 46.9357 47.4591 45.6285 47.8429 44.0003C48.0485 43.1281 48.0542 18.0105 47.8488 17.6134C47.7663 17.4539 46.2319 16.2414 43.914 14.5039L40.1143 11.6558L40.1139 9.12538C40.1136 6.78499 40.1 6.57251 39.9316 6.29641C39.5981 5.74947 39.6331 5.75425 35.7279 5.72314L32.1378 5.69457L28.9602 3.31324C27.2126 2.0035 25.603 0.840192 25.3833 0.727956C24.95 0.506668 23.9425 0.40558 23.5263 0.541613ZM26.3737 4.18247L28.3442 5.65803L26.2658 5.68323C25.1228 5.6971 23.2564 5.6971 22.1183 5.68323L20.049 5.65803L22.048 4.19043C23.1474 3.38322 24.1272 2.71917 24.2252 2.71486C24.3232 2.71046 25.2901 3.37086 26.3737 4.18247ZM37.8611 15.5654L37.8564 23.1774L31.4202 27.7675C25.8649 31.7293 24.9326 32.3618 24.6091 32.3889C24.2511 32.4188 23.9222 32.2084 17.2079 27.6523L10.1814 22.8843L10.1574 15.4189L10.1334 7.95336H23.9996H37.8658L37.8611 15.5654ZM14.2587 11.4306C13.4367 11.7586 13.3095 12.8096 14.0239 13.3714L14.2821 13.5746H20.5979C27.5553 13.5746 27.3058 13.5952 27.6158 12.9956C27.8014 12.6367 27.745 12.0518 27.498 11.7743C27.0975 11.3245 27.1156 11.3257 20.607 11.332C16.8075 11.3357 14.403 11.373 14.2587 11.4306ZM42.6273 16.3383C43.8689 17.2658 44.8864 18.0492 44.8886 18.0793C44.8906 18.1093 44.0597 18.728 43.042 19.4542C42.0243 20.1804 40.9493 20.9486 40.653 21.1614L40.1143 21.5482V18.0251C40.1143 15.0766 40.1351 14.5143 40.242 14.577C40.3123 14.6182 41.3856 15.4108 42.6273 16.3383ZM7.84841 21.2321C7.8263 21.2542 6.74731 20.5545 5.45049 19.6773L3.09277 18.0825L3.96706 17.4355C4.44786 17.0797 5.51579 16.2948 6.34024 15.6912L7.83922 14.5939L7.86386 17.893C7.87745 19.7074 7.87042 21.21 7.84841 21.2321ZM14.2587 16.208C13.4364 16.5384 13.3095 17.5876 14.0239 18.1495L14.2821 18.3526H24.0056H33.7293L34.0113 18.1153C34.5834 17.6338 34.5753 16.7785 33.9944 16.3473C33.7303 16.1512 33.7155 16.1509 24.1105 16.1328C17.8942 16.1211 14.4088 16.1477 14.2587 16.208ZM13.5061 27.8654C18.7356 31.4122 23.2154 34.3907 23.4613 34.4841C24.0551 34.7098 25.0723 34.7087 25.6695 34.4818C25.9413 34.3785 30.0046 31.539 35.8121 27.3939C41.1411 23.5903 45.5546 20.437 45.6198 20.3865C45.7154 20.3125 45.7335 22.5611 45.7135 31.9479L45.6887 43.6012L45.4754 44.034C45.1745 44.6446 44.5714 45.2071 43.98 45.4283C43.4862 45.6131 43.2402 45.6154 24.0002 45.6154C4.76012 45.6154 4.51419 45.6131 4.02037 45.4283C3.42902 45.2071 2.82586 44.6446 2.52494 44.034L2.31171 43.6012L2.28688 31.9081L2.26196 20.2152L3.13006 20.8159C3.60749 21.1462 8.27665 24.3186 13.5061 27.8654ZM14.2587 20.986C13.4364 21.3165 13.3095 22.3657 14.0239 22.9275L14.2821 23.1306H24.0056H33.7293L34.0113 22.8933C34.5834 22.4118 34.5753 21.5565 33.9944 21.1253C33.7303 20.9292 33.7155 20.929 24.1105 20.9108C17.8942 20.8991 14.4088 20.9257 14.2587 20.986Z" fill="#F08597"/>
</g>
<defs>
<clipPath id="clip0_3830_15123">
<rect width="48" height="48" fill="white"/>
</clipPath>
</defs>
</svg>
