<svg width="48" height="48" viewBox="0 0 48 48" fill="none" xmlns="http://www.w3.org/2000/svg">
<path fill-rule="evenodd" clip-rule="evenodd" d="M11.4302 2.52016C10.8961 2.66221 10.4387 2.9316 9.02415 3.93725C6.81234 5.50966 4.28877 7.68202 3.584 8.62007C2.84817 9.5997 2.4014 10.9282 2.39845 12.1455C2.39558 13.2977 2.8979 15.8012 3.54357 17.8528C4.9758 22.4041 7.7952 27.3188 11.3944 31.5386C12.5504 32.8939 15.3043 35.6317 16.6644 36.7779C22.1195 41.3747 27.9452 44.3128 33.7909 45.4151C34.4855 45.5461 35.0947 45.6002 35.8707 45.6C36.8801 45.5996 37.0276 45.5786 37.7078 45.339C38.7593 44.9684 39.3037 44.617 40.1735 43.7467C41.9594 41.9601 44.9692 38.0183 45.386 36.9204C45.7187 36.0441 45.6575 34.983 45.2247 34.1258C44.968 33.6173 44.3483 32.9429 43.8938 32.6774C43.288 32.3237 35.6119 29.3529 35.0509 29.2551C34.3914 29.1402 33.4743 29.3053 32.8995 29.6425C32.6917 29.7643 31.9893 30.3264 31.3387 30.8915C30.6881 31.4565 30.0712 31.9837 29.9678 32.063C29.7851 32.2029 29.7502 32.1909 28.7729 31.6541C24.8144 29.4798 20.956 26.0259 18.2768 22.2584C17.5311 21.2098 16.8055 20.0489 16.2547 19.0234L15.8188 18.2117L16.843 17.0376C18.0572 15.6458 18.3231 15.3002 18.5276 14.8481C18.7699 14.3124 18.8734 13.4774 18.7683 12.9079C18.6874 12.4702 15.7727 4.88789 15.4311 4.22675C15.1977 3.77501 14.4523 3.05531 13.9629 2.80924C13.1256 2.38817 12.2866 2.29243 11.4302 2.52016ZM12.8546 5.32198C13.0466 5.50399 13.42 6.37909 14.5764 9.35693C15.3886 11.4483 16.0755 13.2263 16.1031 13.3081C16.1836 13.5473 16.0129 13.874 15.5049 14.4532L15.0292 14.9956L14.4964 13.9317C13.7437 12.4283 13.0467 10.7662 12.4899 9.14567C12.041 7.83928 11.4302 5.80009 11.4302 5.60759C11.4302 5.47045 12.1254 5.09129 12.3786 5.09036C12.5155 5.08994 12.7092 5.18416 12.8546 5.32198ZM9.27514 8.02603C10.0882 10.7709 11.6537 14.5532 12.7815 16.4973L13.1491 17.1311L13.155 18.0206L13.1609 18.9101L13.6493 19.8637C15.2359 22.9617 17.3647 25.8189 20.0529 28.4587C22.5016 30.8631 24.7562 32.5393 27.6949 34.1401C29.003 34.8527 29.3084 34.9471 30.0967 34.8838L30.739 34.8322L31.4475 35.227C33.7051 36.4849 37.2478 37.953 39.9888 38.7665L40.7299 38.9865L40.4531 39.3391C39.9618 39.9649 38.7367 41.3706 38.2867 41.8247C37.5558 42.5625 36.7176 42.943 35.8184 42.9453C34.903 42.9477 32.4577 42.4109 30.6365 41.8079C27.7326 40.8464 25.2797 39.6229 22.3208 37.6599C17.6076 34.533 13.4028 30.3111 10.2913 25.5812C8.84939 23.3893 7.82863 21.4883 6.96734 19.3906C5.86233 16.6992 5.004 13.1925 5.12709 11.8726C5.18247 11.2795 5.47331 10.552 5.81995 10.1397C6.16271 9.73195 8.91575 7.2934 9.0401 7.2874C9.04897 7.28698 9.15466 7.61941 9.27514 8.02603ZM38.5222 33.4106C40.5378 34.1987 42.2925 34.8983 42.4217 34.9651C42.7184 35.1188 42.92 35.4036 42.92 35.6695C42.92 35.9062 42.5339 36.6087 42.4037 36.6087C42.212 36.6087 40.1819 36.0004 38.8977 35.5582C37.3369 35.0207 35.4754 34.2383 34.0272 33.5107L33.0278 33.0087L33.5752 32.5276C34.1726 32.0027 34.4301 31.8653 34.6888 31.9333C34.7816 31.9577 36.5067 32.6225 38.5222 33.4106Z" fill="#F08597"/>
</svg>
