<svg width="48" height="48" viewBox="0 0 48 48" fill="none" xmlns="http://www.w3.org/2000/svg">
<path fill-rule="evenodd" clip-rule="evenodd" d="M3.51919 3.0472C3.33068 3.14678 3.14621 3.33655 3.04481 3.5353C2.87998 3.85856 2.87891 3.98661 2.87891 23.9985C2.87891 44.0186 2.8799 44.1384 3.04498 44.4621C3.1519 44.6718 3.32713 44.847 3.53676 44.9539C3.86041 45.119 3.98028 45.12 23.9989 45.12C44.0175 45.12 44.1374 45.119 44.4611 44.9539C45.0423 44.6574 45.1189 44.3845 45.1189 42.6109C45.1189 41.7718 45.0768 40.8886 45.0254 40.6481C44.7213 39.227 43.5786 38.0837 42.1655 37.7865C41.925 37.7359 41.0022 37.6945 40.1146 37.6945H38.5009L38.5393 35.57C38.5744 33.6193 38.595 33.3799 38.7901 32.6446C39.0226 31.7685 39.4545 30.7883 39.9954 29.9088C40.6222 28.8898 40.889 28.0576 40.9654 26.8846C41.2009 23.2654 38.1218 20.1828 34.4795 20.3912C34.0467 20.4161 33.6276 20.4621 33.5483 20.4936C33.4119 20.5477 33.4039 20.3168 33.4039 16.3302C33.4039 12.6307 33.3877 12.077 33.2722 11.8454C33.0906 11.4813 24.8558 3.23416 24.4766 3.03656C24.1788 2.88136 23.8958 2.87716 13.9991 2.8807C4.03506 2.88425 3.82139 2.88772 3.51919 3.0472ZM22.6789 8.9858C22.6789 12.4646 22.686 12.6332 22.845 12.9449C22.9519 13.1546 23.1271 13.3298 23.3368 13.4367C23.6484 13.5957 23.8171 13.6028 27.2956 13.6028H30.9289V17.669V21.7352L30.4652 22.1862C29.2052 23.4114 28.534 25.1464 28.6476 26.8846C28.727 28.0996 28.9737 28.8625 29.634 29.9358C30.1589 30.7889 30.5926 31.7773 30.8227 32.6446C31.0178 33.3799 31.0384 33.6193 31.0735 35.57L31.1119 37.6945H29.4982C28.6072 37.6945 27.6887 37.7364 27.4473 37.7881C26.7367 37.9402 26.14 38.2688 25.6017 38.8047C24.7917 39.611 24.4939 40.4338 24.4939 41.8651V42.6448H14.9239H5.35391V23.9985V5.35225H14.0164H22.6789V8.9858ZM27.1752 9.14751L29.1538 11.1276H27.1539H25.1539V9.14751C25.1539 8.05843 25.1635 7.16737 25.1752 7.16737C25.1869 7.16737 26.0869 8.05843 27.1752 9.14751ZM8.46919 7.99754C8.12087 8.18145 7.82891 8.66823 7.82891 9.065C7.82891 9.4744 8.12071 9.94971 8.48676 10.1365C8.8029 10.2977 8.96353 10.3026 14.0164 10.3026C19.0693 10.3026 19.2299 10.2977 19.5461 10.1365C19.9121 9.94971 20.2039 9.4744 20.2039 9.065C20.2039 8.65561 19.9121 8.18029 19.5461 7.9935C19.2297 7.83212 19.0731 7.8275 13.9991 7.83105C8.96353 7.83459 8.76668 7.84054 8.46919 7.99754ZM8.46919 12.9479C8.12087 13.1318 7.82891 13.6186 7.82891 14.0153C7.82891 14.4247 8.12071 14.9001 8.48676 15.0868C8.8029 15.2481 8.96353 15.2529 14.0164 15.2529C19.0693 15.2529 19.2299 15.2481 19.5461 15.0868C19.9121 14.9001 20.2039 14.4247 20.2039 14.0153C20.2039 13.606 19.9121 13.1306 19.5461 12.9438C19.2297 12.7825 19.0731 12.7778 13.9991 12.7814C8.96353 12.7849 8.76668 12.7909 8.46919 12.9479ZM8.46919 17.8982C8.12087 18.0821 7.82891 18.5689 7.82891 18.9657C7.82891 19.3751 8.12071 19.8504 8.48676 20.0372C8.80736 20.2007 8.95437 20.2033 18.1414 20.2033C27.3284 20.2033 27.4755 20.2007 27.7961 20.0372C28.1621 19.8504 28.4539 19.3751 28.4539 18.9657C28.4539 18.5563 28.1621 18.081 27.7961 17.8942C27.4753 17.7306 27.3322 17.7282 18.1241 17.7317C8.98151 17.7353 8.77089 17.7389 8.46919 17.8982ZM8.46919 22.8486C8.12087 23.0325 7.82891 23.5193 7.82891 23.916C7.82891 24.3254 8.12071 24.8007 8.48676 24.9875C8.80653 25.1507 8.95709 25.1536 16.9039 25.1536C24.8507 25.1536 25.0013 25.1507 25.3211 24.9875C25.6871 24.8007 25.9789 24.3254 25.9789 23.916C25.9789 23.5066 25.6871 23.0313 25.3211 22.8445C25.0011 22.6813 24.8544 22.6785 16.8866 22.6821C8.97607 22.6856 8.77015 22.6898 8.46919 22.8486ZM35.5655 22.937C36.631 23.1651 37.6871 23.9817 38.1243 24.9156C38.7143 26.1756 38.6254 27.4077 37.8537 28.6685C37.3407 29.5068 36.8824 30.4664 36.6245 31.2423C36.1682 32.6151 36.113 33.0313 36.0674 35.4462L36.025 37.6945H34.8064H33.5878L33.5463 35.4462C33.5088 33.4148 33.4848 33.1143 33.2974 32.3316C32.9759 30.9888 32.4975 29.853 31.752 28.6627C30.7467 27.0577 30.9214 25.2289 32.2017 23.9532C33.1189 23.0395 34.3319 22.673 35.5655 22.937ZM12.7384 27.7658C9.9103 28.3718 7.82891 30.9371 7.82891 33.8167C7.82891 36.7127 9.9367 39.2826 12.7962 39.8733C14.8263 40.2927 16.9094 39.6542 18.3824 38.1614C19.5186 37.0099 20.0685 35.7778 20.1752 34.1451C20.4041 30.6413 17.4979 27.5985 13.958 27.6356C13.6044 27.6392 13.0556 27.6978 12.7384 27.7658ZM14.7755 30.196C15.4902 30.3463 16.0817 30.6723 16.6188 31.2119C18.7465 33.3494 17.5866 36.9508 14.6059 37.462C13.4353 37.6627 12.28 37.2853 11.414 36.4193C9.94874 34.954 9.94775 32.6723 11.4117 31.2137C12.328 30.3009 13.5363 29.9352 14.7755 30.196ZM41.9861 40.3357C42.4786 40.5871 42.6439 40.9799 42.6439 41.899V42.6448H34.8064H26.9689L26.9724 41.8817C26.9764 40.979 27.107 40.6612 27.5953 40.3656L27.9177 40.1705L34.7891 40.1701C41.5134 40.1697 41.6674 40.1732 41.9861 40.3357Z" fill="#F08597"/>
</svg>
