<svg width="48" height="48" viewBox="0 0 48 48" fill="none" xmlns="http://www.w3.org/2000/svg">
<path fill-rule="evenodd" clip-rule="evenodd" d="M36.9448 0.121942C36.1917 0.28952 35.7535 0.483371 35.0004 0.982354C32.4247 2.68854 31.8003 6.40492 33.6762 8.86249C33.8555 9.09725 33.9799 9.3474 33.9527 9.41824C33.9254 9.48908 32.5856 11.4092 30.9751 13.685C28.8162 16.7361 28.0079 17.8108 27.8982 17.7763C27.8164 17.7506 27.4826 17.618 27.1563 17.4815C26.1909 17.0777 25.3536 16.9402 24.184 16.9935C22.5232 17.0692 20.9716 17.6817 19.8352 18.7101L19.2656 19.2256L15.3209 16.1646C13.1514 14.4812 11.3769 13.0963 11.3776 13.0873C11.3782 13.0783 11.4627 12.8032 11.5652 12.4761C12.2689 10.2315 11.0145 7.78214 8.76502 7.00824C7.20295 6.47079 5.55259 6.82171 4.31264 7.95488C2.84037 9.30058 2.46562 11.3518 3.35774 13.1816C4.44738 15.4167 7.13155 16.2913 9.38598 15.1459C9.65892 15.0073 9.93337 14.9248 9.99586 14.9627C10.3022 15.148 17.9444 21.1178 17.9443 21.1717C17.9443 21.206 17.8648 21.4451 17.7678 21.7032C17.1487 23.3485 17.2899 25.698 18.1062 27.3329C18.3644 27.8502 18.9441 28.6711 19.3758 29.1311C19.5552 29.3221 19.6281 29.4725 19.5806 29.5533C19.54 29.6222 18.4575 31.1642 17.175 32.9798L14.8434 36.2811L14.3376 36.0495C12.6105 35.2588 10.3832 35.4313 8.76136 36.4812C5.59453 38.5315 5.10521 42.9868 7.75673 45.6291C8.91599 46.7844 10.3178 47.3613 11.9727 47.364C12.9683 47.3657 13.7145 47.1893 14.6604 46.7288C15.6155 46.2639 16.7356 45.1514 17.1825 44.2241C17.7138 43.1218 17.7987 42.7418 17.8013 41.4542C17.804 40.0997 17.6397 39.478 16.9978 38.4136C16.7823 38.0563 16.6514 37.7417 16.6908 37.6756C16.7286 37.6122 17.8505 36.0164 19.184 34.1294L21.6084 30.6985L22.2562 30.9158C23.6343 31.378 24.9751 31.4133 26.4167 31.0255C26.8189 30.9172 27.1601 30.8444 27.1748 30.8635C27.512 31.3039 33.0509 39.5904 33.0509 39.6545C33.0509 39.705 32.9064 39.9612 32.7297 40.2236C32.2079 40.999 31.9947 41.668 31.9469 42.6802C31.895 43.778 32.023 44.4401 32.4534 45.3003C33.3076 47.0078 35.2904 48.1296 37.2039 47.988C39.033 47.8526 40.5954 46.8191 41.4036 45.21C41.7058 44.6081 41.784 44.317 41.8701 43.4715C42.0262 41.9402 41.5385 40.5596 40.4585 39.475C39.1937 38.2049 37.4172 37.7023 35.7075 38.131C35.3818 38.2128 35.0691 38.2643 35.013 38.2456C34.9568 38.2268 33.6118 36.2917 32.0241 33.9452L29.1374 29.6788L29.7103 29.0512C30.3569 28.3427 30.8068 27.644 31.1303 26.8452C31.3024 26.4206 31.3985 26.2962 31.5675 26.2799C31.6867 26.2683 32.6709 26.439 33.7546 26.659L35.725 27.0592L35.8043 27.4306C35.9647 28.1823 36.3447 29.0355 36.7467 29.547C37.2376 30.1714 38.1263 30.7904 38.8568 31.0165C39.6406 31.2593 41.0059 31.234 41.7133 30.9639C43.7067 30.2026 44.9316 28.1468 44.5988 26.1208C44.2817 24.1907 42.7991 22.7132 40.8618 22.3967C39.2478 22.1329 37.4587 22.9031 36.568 24.2449C36.3727 24.5392 36.1617 24.7526 36.066 24.7526C35.9751 24.7526 34.9562 24.5626 33.8015 24.3304C32.6468 24.0982 31.6889 23.9082 31.6728 23.9082C31.6567 23.9082 31.6434 23.7249 31.6434 23.5009C31.6434 22.4988 30.9982 20.8064 30.2298 19.7934L29.8488 19.2909L30.0755 18.9489C30.2589 18.6721 35.8428 10.7737 35.9033 10.7055C35.9128 10.6947 36.1934 10.7754 36.5266 10.8847C37.3913 11.1685 38.8567 11.1712 39.7596 10.8904C42.0723 10.1712 43.649 8.06888 43.6834 5.65842C43.6977 4.6505 43.5591 4.02288 43.1135 3.07812C42.7016 2.20495 41.6482 1.11437 40.7743 0.656579C39.6058 0.0443451 38.185 -0.154009 36.9448 0.121942ZM39.5405 2.68028C40.2666 3.03777 40.7637 3.54905 41.1022 4.28664C41.4473 5.03839 41.4463 6.09294 41.0999 6.8477C40.2467 8.70645 38.0862 9.36269 36.3762 8.28234C35.4317 7.68568 34.9068 6.7123 34.9105 5.56459C34.9116 5.20335 34.9776 4.72791 35.0569 4.50798C35.7256 2.65673 37.7864 1.81668 39.5405 2.68028ZM8.48569 9.41786C9.26484 9.96554 9.59728 10.7448 9.41994 11.6081C9.29412 12.2209 9.00888 12.6657 8.54198 12.9771C7.44456 13.7089 6.01282 13.3375 5.4309 12.1697C4.87655 11.0572 5.31746 9.79721 6.45035 9.25638C7.0364 8.97658 7.9624 9.05005 8.48569 9.41786ZM25.4815 19.3557C27.7349 19.8332 29.3845 21.8551 29.3901 24.1465C29.3953 26.2346 27.7906 28.3063 25.7581 28.8357C25.0896 29.0098 23.961 29.0132 23.3217 28.843C21.5883 28.3815 20.185 26.94 19.7746 25.1992C19.2752 23.0809 20.3018 20.8625 22.2569 19.835C23.3542 19.2585 24.3345 19.1126 25.4815 19.3557ZM41.3618 24.991C41.6927 25.1957 41.889 25.4108 42.0868 25.7861C42.3259 26.2398 42.3531 26.3734 42.316 26.9139C42.1633 29.1457 39.2763 29.6839 38.2591 27.6701C37.8869 26.9332 38.1422 25.7217 38.7836 25.1811C39.2856 24.758 39.6017 24.6533 40.2869 24.6833C40.7833 24.705 40.9991 24.7668 41.3618 24.991ZM13.5542 38.2434C15.7411 39.3209 16.2346 42.2055 14.5337 43.9692C14.3196 44.1913 13.8865 44.5001 13.5713 44.6557C11.7218 45.5682 9.59568 44.8247 8.70994 42.9557C8.45003 42.4073 8.42076 42.2553 8.42076 41.4542C8.42076 40.6501 8.44928 40.5031 8.71256 39.9529C9.02971 39.2899 9.48956 38.7665 10.0855 38.3904C10.6919 38.0076 11.1587 37.8969 12.0825 37.9171C12.8295 37.9334 13.0033 37.9719 13.5542 38.2434ZM38.0462 40.5345C38.6101 40.777 39.2692 41.4933 39.4695 42.0813C39.7973 43.0431 39.5884 44.0634 38.9093 44.8187C37.6353 46.2358 35.3301 45.9187 34.4552 44.2062C34.1297 43.569 34.124 42.4438 34.443 41.8295C35.1616 40.4459 36.621 39.9214 38.0462 40.5345Z" fill="#F08597"/>
</svg>
