<svg width="32" height="32" viewBox="0 0 32 32" fill="none" xmlns="http://www.w3.org/2000/svg">
<path fill-rule="evenodd" clip-rule="evenodd" d="M16.2112 27.0366C22.5214 27.0366 27.636 21.9611 27.636 15.6999C27.636 9.4388 22.522 4.36328 16.2112 4.36328C9.90116 4.36328 4.78607 9.4388 4.78607 15.6999C4.78607 17.8418 5.38521 19.8453 6.4255 21.5536L4.36328 27.636L10.6886 25.626C12.3259 26.5246 14.2079 27.0366 16.2112 27.0366ZM21.5509 18.5917C21.7574 18.6988 21.8969 18.7712 21.957 18.8775C22.0303 19.0096 22.0303 19.6438 21.7849 20.3844C21.5379 21.1238 20.3325 21.8373 19.7916 21.89C19.6989 21.8991 19.622 21.9191 19.5432 21.9395C19.1621 22.0384 18.7361 22.149 16.2485 21.0981C13.4747 19.9257 11.6464 17.0158 11.2686 16.4144C11.2376 16.365 11.2163 16.3312 11.2051 16.3152L11.2046 16.3145C11.0548 16.1008 9.99963 14.5961 9.99963 13.0388C9.99963 11.5803 10.6672 10.8154 10.9746 10.4631C10.9957 10.4389 11.0152 10.4166 11.0326 10.3962C11.3033 10.0793 11.6233 10 11.8201 10C11.9219 10 12.0237 10.0071 12.122 10.0139C12.214 10.0203 12.303 10.0265 12.3861 10.0265C12.4067 10.0265 12.4284 10.025 12.451 10.0235C12.6174 10.0119 12.8337 9.99681 13.0502 10.5549C13.129 10.7582 13.2433 11.0566 13.3646 11.3733C13.6218 12.0448 13.9107 12.7991 13.9607 12.9067C14.0348 13.0656 14.0842 13.2505 13.9852 13.4618C13.9712 13.4923 13.9581 13.521 13.9456 13.5485C13.8712 13.7125 13.817 13.8319 13.6903 13.9905C13.6414 14.0517 13.5909 14.1177 13.5403 14.1837C13.4383 14.3169 13.3362 14.4503 13.2473 14.5453C13.0998 14.7031 12.9458 14.8744 13.1178 15.1913C13.2901 15.5088 13.8827 16.5454 14.7603 17.3851C15.7043 18.2883 16.5245 18.6701 16.9397 18.8635C17.0206 18.9011 17.0861 18.9316 17.1342 18.9574C17.4297 19.116 17.6017 19.0895 17.774 18.8775C17.9466 18.6661 18.5125 17.9529 18.7091 17.6357C18.9056 17.3188 19.103 17.3718 19.3737 17.4774C19.6436 17.5826 21.0955 18.3495 21.391 18.5078C21.448 18.5384 21.5014 18.5661 21.5509 18.5917Z" fill="#F08597"/>
</svg>
